STARTFONT 2.1
COMMENT
COMMENT Izumi Bitmap Font Series
COMMENT   Izumi Gothic-M 16dot Kanji Font
COMMENT       for JIS X 0213:2004 Plane-1
COMMENT      (IZMG16-2004-1, Rel. Final Beta, 1st, March, 2007)
COMMENT
COMMENT  Designed by
COMMENT            Yu Izumi, 2001-2007.
COMMENT
COMMENT  Thanks to...
COMMENT    SHAKEN and JSA(JIS X 9051:1985, eq. jiskan16)
COMMENT    Toshiaki Imamura and HANATAKA Shinya(jiskan16-2000)
COMMENT    griponn(Japanese FreeDOS User's Group)
COMMENT
FONT -Izumi-Gothic-Medium-R-Normal--16-150-75-75-C-160-JISX0213.2004-1
SIZE 16 75 75
FONTBOUNDINGBOX 16 16 0 -2
STARTPROPERTIES 18
FONTNAME_REGISTRY ""
FOUNDRY "Izumi"
FAMILY_NAME "Gothic"
WEIGHT_NAME "Medium"
SLANT "R"
SETWIDTH_NAME "Normal"
ADD_STYLE_NAME ""
PIXEL_SIZE 16
POINT_SIZE 150
RESOLUTION_X 75
RESOLUTION_Y 75
SPACING "C"
AVERAGE_WIDTH 160
CHARSET_REGISTRY "JISX0213.2004"
CHARSET_ENCODING "1"
DEFAULT_CHAR 8481
FONT_DESCENT 2
FONT_ASCENT 14
ENDPROPERTIES
CHARS 8842
STARTCHAR 2121
ENCODING 8481
SWIDTH 823 0
DWIDTH 16 0
BBX 16 16 0 -2
BITMAP
0000
0000
0000
0000
0000
0000
0000
0000
0000
0000
0000
0000
0000
0000
0000
0000
ENDCHAR
STARTCHAR 2122
ENCODING 8482
SWIDTH 823 0
DWIDTH 16 0
BBX 16 16 0 -2
BITMAP
0000
0000
0000
0000
0000
0000
0000
0000
0000
0000
0000
0000
4000
2000
1000
0000
ENDCHAR
STARTCHAR 2123
ENCODING 8483
SWIDTH 823 0
DWIDTH 16 0
BBX 16 16 0 -2
BITMAP
0000
0000
0000
0000
0000
0000
0000
0000
0000
0000
0000
3000
4800
4800
3000
0000
ENDCHAR
STARTCHAR 2124
ENCODING 8484
SWIDTH 823 0
DWIDTH 16 0
BBX 16 16 0 -2
BITMAP
0000
0000
0000
0000
0000
0000
0000
0000
0000
0000
0000
6000
6000
2000
4000
0000
ENDCHAR
STARTCHAR 2125
ENCODING 8485
SWIDTH 823 0
DWIDTH 16 0
BBX 16 16 0 -2
BITMAP
0000
0000
0000
0000
0000
0000
0000
0000
0000
0000
0000
6000
6000
0000
0000
0000
ENDCHAR
STARTCHAR 2126
ENCODING 8486
SWIDTH 823 0
DWIDTH 16 0
BBX 16 16 0 -2
BITMAP
0000
0000
0000
0000
0000
0000
0000
0180
0180
0000
0000
0000
0000
0000
0000
0000
ENDCHAR
STARTCHAR 2127
ENCODING 8487
SWIDTH 823 0
DWIDTH 16 0
BBX 16 16 0 -2
BITMAP
0000
0000
0000
0000
0000
0000
0180
0180
0000
0000
0000
0000
0180
0180
0000
0000
ENDCHAR
STARTCHAR 2128
ENCODING 8488
SWIDTH 823 0
DWIDTH 16 0
BBX 16 16 0 -2
BITMAP
0000
0000
0000
0000
0000
0000
0180
0180
0000
0000
0000
0000
0180
0180
0080
0100
ENDCHAR
STARTCHAR 2129
ENCODING 8489
SWIDTH 823 0
DWIDTH 16 0
BBX 16 16 0 -2
BITMAP
0000
03c0
0420
0810
0810
0020
00c0
0100
0100
0100
0000
0000
0180
0180
0000
0000
ENDCHAR
STARTCHAR 212a
ENCODING 8490
SWIDTH 823 0
DWIDTH 16 0
BBX 16 16 0 -2
BITMAP
0000
0080
0080
0080
0080
0080
0080
0080
0080
0080
0000
0000
00c0
00c0
0000
0000
ENDCHAR
STARTCHAR 212b
ENCODING 8491
SWIDTH 823 0
DWIDTH 16 0
BBX 16 16 0 -2
BITMAP
5000
5000
0000
0000
0000
0000
0000
0000
0000
0000
0000
0000
0000
0000
0000
0000
ENDCHAR
STARTCHAR 212c
ENCODING 8492
SWIDTH 823 0
DWIDTH 16 0
BBX 16 16 0 -2
BITMAP
0000
0000
6000
9000
9000
6000
0000
0000
0000
0000
0000
0000
0000
0000
0000
0000
ENDCHAR
STARTCHAR 212d
ENCODING 8493
SWIDTH 823 0
DWIDTH 16 0
BBX 16 16 0 -2
BITMAP
00c0
0300
0000
0000
0000
0000
0000
0000
0000
0000
0000
0000
0000
0000
0000
0000
ENDCHAR
STARTCHAR 212e
ENCODING 8494
SWIDTH 823 0
DWIDTH 16 0
BBX 16 16 0 -2
BITMAP
0300
00c0
0000
0000
0000
0000
0000
0000
0000
0000
0000
0000
0000
0000
0000
0000
ENDCHAR
STARTCHAR 212f
ENCODING 8495
SWIDTH 823 0
DWIDTH 16 0
BBX 16 16 0 -2
BITMAP
0660
0660
0000
0000
0000
0000
0000
0000
0000
0000
0000
0000
0000
0000
0000
0000
ENDCHAR
STARTCHAR 2130
ENCODING 8496
SWIDTH 823 0
DWIDTH 16 0
BBX 16 16 0 -2
BITMAP
0180
0660
0000
0000
0000
0000
0000
0000
0000
0000
0000
0000
0000
0000
0000
0000
ENDCHAR
STARTCHAR 2131
ENCODING 8497
SWIDTH 823 0
DWIDTH 16 0
BBX 16 16 0 -2
BITMAP
ffff
0000
0000
0000
0000
0000
0000
0000
0000
0000
0000
0000
0000
0000
0000
0000
ENDCHAR
STARTCHAR 2132
ENCODING 8498
SWIDTH 823 0
DWIDTH 16 0
BBX 16 16 0 -2
BITMAP
0000
0000
0000
0000
0000
0000
0000
0000
0000
0000
0000
0000
0000
0000
0000
ffff
ENDCHAR
STARTCHAR 2133
ENCODING 8499
SWIDTH 823 0
DWIDTH 16 0
BBX 16 16 0 -2
BITMAP
0000
0000
0000
0000
0000
0600
0180
0040
0020
0010
0010
0000
0000
0000
0000
0000
ENDCHAR
STARTCHAR 2134
ENCODING 8500
SWIDTH 823 0
DWIDTH 16 0
BBX 16 16 0 -2
BITMAP
0000
0000
0000
0010
0028
0610
0180
0040
0020
0010
0010
0000
0000
0000
0000
0000
ENDCHAR
STARTCHAR 2135
ENCODING 8501
SWIDTH 823 0
DWIDTH 16 0
BBX 16 16 0 -2
BITMAP
0000
0000
0000
0000
0000
0c00
0300
00c0
0020
0010
0020
00c0
0000
0000
0000
0000
ENDCHAR
STARTCHAR 2136
ENCODING 8502
SWIDTH 823 0
DWIDTH 16 0
BBX 16 16 0 -2
BITMAP
0000
0000
0000
0020
0050
0c20
0300
00c0
0020
0010
0020
00c0
0000
0000
0000
0000
ENDCHAR
STARTCHAR 2137
ENCODING 8503
SWIDTH 823 0
DWIDTH 16 0
BBX 16 16 0 -2
BITMAP
0000
0000
0000
0000
0000
0210
0210
0210
0210
0420
0420
0420
0840
0000
0000
0000
ENDCHAR
STARTCHAR 2138
ENCODING 8504
SWIDTH 823 0
DWIDTH 16 0
BBX 16 16 0 -2
BITMAP
0080
0080
0140
0220
0410
0808
3006
0000
0ff8
0080
0080
0080
0080
3ffe
0000
0000
ENDCHAR
STARTCHAR 2139
ENCODING 8505
SWIDTH 823 0
DWIDTH 16 0
BBX 16 16 0 -2
BITMAP
0000
0000
0200
0200
0200
03f0
0210
0410
0420
0820
1340
0080
0040
0020
0000
0000
ENDCHAR
STARTCHAR 213a
ENCODING 8506
SWIDTH 823 0
DWIDTH 16 0
BBX 16 16 0 -2
BITMAP
0000
0002
0004
0008
0610
09a0
1040
10a0
1130
2200
2400
2800
3000
2000
4000
0000
ENDCHAR
STARTCHAR 213b
ENCODING 8507
SWIDTH 823 0
DWIDTH 16 0
BBX 16 16 0 -2
BITMAP
0000
0000
07e0
1818
2004
2004
4002
4002
4002
4002
2004
2004
1818
07e0
0000
0000
ENDCHAR
STARTCHAR 213c
ENCODING 8508
SWIDTH 823 0
DWIDTH 16 0
BBX 16 16 0 -2
BITMAP
0000
0000
0000
0000
0000
0000
0000
2000
1ffe
0000
0000
0000
0000
0000
0000
0000
ENDCHAR
STARTCHAR 213d
ENCODING 8509
SWIDTH 823 0
DWIDTH 16 0
BBX 16 16 0 -2
BITMAP
0000
0000
0000
0000
0000
0000
0000
ffff
0000
0000
0000
0000
0000
0000
0000
0000
ENDCHAR
STARTCHAR 213e
ENCODING 8510
SWIDTH 823 0
DWIDTH 16 0
BBX 16 16 0 -2
BITMAP
0000
0000
0000
0000
0000
0000
0000
07e0
0000
0000
0000
0000
0000
0000
0000
0000
ENDCHAR
STARTCHAR 213f
ENCODING 8511
SWIDTH 823 0
DWIDTH 16 0
BBX 16 16 0 -2
BITMAP
0000
0002
0004
0008
0010
0020
0040
0080
0100
0200
0400
0800
1000
2000
4000
0000
ENDCHAR
STARTCHAR 2140
ENCODING 8512
SWIDTH 823 0
DWIDTH 16 0
BBX 16 16 0 -2
BITMAP
0000
4000
2000
1000
0800
0400
0200
0100
0080
0040
0020
0010
0008
0004
0002
0000
ENDCHAR
STARTCHAR 2141
ENCODING 8513
SWIDTH 823 0
DWIDTH 16 0
BBX 16 16 0 -2
BITMAP
0000
0000
0000
0000
0000
0000
1c00
2302
40c4
0038
0000
0000
0000
0000
0000
0000
ENDCHAR
STARTCHAR 2142
ENCODING 8514
SWIDTH 823 0
DWIDTH 16 0
BBX 16 16 0 -2
BITMAP
0440
0440
0440
0440
0440
0440
0440
0440
0440
0440
0440
0440
0440
0440
0440
0440
ENDCHAR
STARTCHAR 2143
ENCODING 8515
SWIDTH 823 0
DWIDTH 16 0
BBX 16 16 0 -2
BITMAP
0100
0100
0100
0100
0100
0100
0100
0100
0100
0100
0100
0100
0100
0100
0100
0100
ENDCHAR
STARTCHAR 2144
ENCODING 8516
SWIDTH 823 0
DWIDTH 16 0
BBX 16 16 0 -2
BITMAP
0000
0000
0000
0000
0000
0000
0000
6186
6186
0000
0000
0000
0000
0000
0000
0000
ENDCHAR
STARTCHAR 2145
ENCODING 8517
SWIDTH 823 0
DWIDTH 16 0
BBX 16 16 0 -2
BITMAP
0000
0000
0000
0000
0000
0000
0000
1818
1818
0000
0000
0000
0000
0000
0000
0000
ENDCHAR
STARTCHAR 2146
ENCODING 8518
SWIDTH 823 0
DWIDTH 16 0
BBX 16 16 0 -2
BITMAP
0008
0010
0018
0018
0000
0000
0000
0000
0000
0000
0000
0000
0000
0000
0000
0000
ENDCHAR
STARTCHAR 2147
ENCODING 8519
SWIDTH 823 0
DWIDTH 16 0
BBX 16 16 0 -2
BITMAP
1800
1800
0800
1000
0000
0000
0000
0000
0000
0000
0000
0000
0000
0000
0000
0000
ENDCHAR
STARTCHAR 2148
ENCODING 8520
SWIDTH 823 0
DWIDTH 16 0
BBX 16 16 0 -2
BITMAP
0024
0048
006c
006c
0000
0000
0000
0000
0000
0000
0000
0000
0000
0000
0000
0000
ENDCHAR
STARTCHAR 2149
ENCODING 8521
SWIDTH 823 0
DWIDTH 16 0
BBX 16 16 0 -2
BITMAP
3600
3600
1200
2400
0000
0000
0000
0000
0000
0000
0000
0000
0000
0000
0000
0000
ENDCHAR
STARTCHAR 214a
ENCODING 8522
SWIDTH 823 0
DWIDTH 16 0
BBX 16 16 0 -2
BITMAP
0008
0010
0020
0040
0040
0080
0080
0080
0080
0080
0080
0040
0040
0020
0010
0008
ENDCHAR
STARTCHAR 214b
ENCODING 8523
SWIDTH 823 0
DWIDTH 16 0
BBX 16 16 0 -2
BITMAP
1000
0800
0400
0200
0200
0100
0100
0100
0100
0100
0100
0200
0200
0400
0800
1000
ENDCHAR
STARTCHAR 214c
ENCODING 8524
SWIDTH 823 0
DWIDTH 16 0
BBX 16 16 0 -2
BITMAP
0008
0030
00c0
0080
0080
0080
0080
0080
0080
0080
0080
0080
0080
00c0
0030
0008
ENDCHAR
STARTCHAR 214d
ENCODING 8525
SWIDTH 823 0
DWIDTH 16 0
BBX 16 16 0 -2
BITMAP
1000
0c00
0300
0100
0100
0100
0100
0100
0100
0100
0100
0100
0100
0300
0c00
1000
ENDCHAR
STARTCHAR 214e
ENCODING 8526
SWIDTH 823 0
DWIDTH 16 0
BBX 16 16 0 -2
BITMAP
00f8
0080
0080
0080
0080
0080
0080
0080
0080
0080
0080
0080
0080
0080
0080
00f8
ENDCHAR
STARTCHAR 214f
ENCODING 8527
SWIDTH 823 0
DWIDTH 16 0
BBX 16 16 0 -2
BITMAP
1f00
0100
0100
0100
0100
0100
0100
0100
0100
0100
0100
0100
0100
0100
0100
1f00
ENDCHAR
STARTCHAR 2150
ENCODING 8528
SWIDTH 823 0
DWIDTH 16 0
BBX 16 16 0 -2
BITMAP
0008
0010
0020
0040
0040
0040
0040
0080
0040
0040
0040
0040
0040
0020
0010
0008
ENDCHAR
STARTCHAR 2151
ENCODING 8529
SWIDTH 823 0
DWIDTH 16 0
BBX 16 16 0 -2
BITMAP
1000
0800
0400
0200
0200
0200
0200
0100
0200
0200
0200
0200
0200
0400
0800
1000
ENDCHAR
STARTCHAR 2152
ENCODING 8530
SWIDTH 823 0
DWIDTH 16 0
BBX 16 16 0 -2
BITMAP
0008
0010
0010
0020
0040
0040
0080
0100
0100
0080
0040
0040
0020
0010
0010
0008
ENDCHAR
STARTCHAR 2153
ENCODING 8531
SWIDTH 823 0
DWIDTH 16 0
BBX 16 16 0 -2
BITMAP
1000
0800
0800
0400
0200
0200
0100
0080
0080
0100
0200
0200
0400
0800
0800
1000
ENDCHAR
STARTCHAR 2154
ENCODING 8532
SWIDTH 823 0
DWIDTH 16 0
BBX 16 16 0 -2
BITMAP
0012
0024
0024
0048
0090
0090
0120
0240
0240
0120
0090
0090
0048
0024
0024
0012
ENDCHAR
STARTCHAR 2155
ENCODING 8533
SWIDTH 823 0
DWIDTH 16 0
BBX 16 16 0 -2
BITMAP
4800
2400
2400
1200
0900
0900
0480
0240
0240
0480
0900
0900
1200
2400
2400
4800
ENDCHAR
STARTCHAR 2156
ENCODING 8534
SWIDTH 823 0
DWIDTH 16 0
BBX 16 16 0 -2
BITMAP
00f8
0080
0080
0080
0080
0080
0080
0080
0080
0080
0080
0000
0000
0000
0000
0000
ENDCHAR
STARTCHAR 2157
ENCODING 8535
SWIDTH 823 0
DWIDTH 16 0
BBX 16 16 0 -2
BITMAP
0000
0000
0000
0000
0000
0100
0100
0100
0100
0100
0100
0100
0100
0100
0100
1f00
ENDCHAR
STARTCHAR 2158
ENCODING 8536
SWIDTH 823 0
DWIDTH 16 0
BBX 16 16 0 -2
BITMAP
01f8
0108
0178
0140
0140
0140
0140
0140
0140
0140
01c0
0000
0000
0000
0000
0000
ENDCHAR
STARTCHAR 2159
ENCODING 8537
SWIDTH 823 0
DWIDTH 16 0
BBX 16 16 0 -2
BITMAP
0000
0000
0000
0000
0000
0380
0280
0280
0280
0280
0280
0280
0280
1e80
1080
1f80
ENDCHAR
STARTCHAR 215a
ENCODING 8538
SWIDTH 823 0
DWIDTH 16 0
BBX 16 16 0 -2
BITMAP
00f8
00f0
00e0
00c0
00c0
0080
0080
0080
0080
0080
0080
00c0
00c0
00e0
00f0
00f8
ENDCHAR
STARTCHAR 215b
ENCODING 8539
SWIDTH 823 0
DWIDTH 16 0
BBX 16 16 0 -2
BITMAP
1f00
0f00
0700
0300
0300
0100
0100
0100
0100
0100
0100
0300
0300
0700
0f00
1f00
ENDCHAR
STARTCHAR 215c
ENCODING 8540
SWIDTH 823 0
DWIDTH 16 0
BBX 16 16 0 -2
BITMAP
0000
0000
0100
0100
0100
0100
0100
3ffc
0100
0100
0100
0100
0100
0100
0000
0000
ENDCHAR
STARTCHAR 215d
ENCODING 8541
SWIDTH 823 0
DWIDTH 16 0
BBX 16 16 0 -2
BITMAP
0000
0000
0000
0000
0000
0000
0000
3ffc
0000
0000
0000
0000
0000
0000
0000
0000
ENDCHAR
STARTCHAR 215e
ENCODING 8542
SWIDTH 823 0
DWIDTH 16 0
BBX 16 16 0 -2
BITMAP
0000
0000
0100
0100
0100
0100
3ffc
0100
0100
0100
0100
0000
0000
3ffc
0000
0000
ENDCHAR
STARTCHAR 215f
ENCODING 8543
SWIDTH 823 0
DWIDTH 16 0
BBX 16 16 0 -2
BITMAP
0000
0000
0000
1008
0810
0420
0240
0180
0180
0240
0420
0810
1008
0000
0000
0000
ENDCHAR
STARTCHAR 2160
ENCODING 8544
SWIDTH 823 0
DWIDTH 16 0
BBX 16 16 0 -2
BITMAP
0000
0000
0000
0000
0000
0000
0000
0000
0000
0000
0000
0000
0000
0000
0000
0000
ENDCHAR
STARTCHAR 2160
ENCODING 8544
SWIDTH 823 0
DWIDTH 16 0
BBX 16 16 0 -2
BITMAP
0000
0000
0000
0180
0180
0000
0000
3ffc
0000
0000
0180
0180
0000
0000
0000
0000
ENDCHAR
STARTCHAR 2161
ENCODING 8545
SWIDTH 823 0
DWIDTH 16 0
BBX 16 16 0 -2
BITMAP
0000
0000
0000
0000
0000
3ffc
0000
0000
0000
3ffc
0000
0000
0000
0000
0000
0000
ENDCHAR
STARTCHAR 2162
ENCODING 8546
SWIDTH 823 0
DWIDTH 16 0
BBX 16 16 0 -2
BITMAP
0000
0000
0040
0040
0080
3ffc
0080
0100
0100
3ffc
0100
0200
0200
0000
0000
0000
ENDCHAR
STARTCHAR 2163
ENCODING 8547
SWIDTH 823 0
DWIDTH 16 0
BBX 16 16 0 -2
BITMAP
0000
0006
0018
0060
0180
0600
1800
6000
1800
0400
0300
00c0
0020
0018
0006
0000
ENDCHAR
STARTCHAR 2164
ENCODING 8548
SWIDTH 823 0
DWIDTH 16 0
BBX 16 16 0 -2
BITMAP
0000
6000
1800
0600
0180
0060
0018
0006
0018
0020
00c0
0300
0400
1800
6000
0000
ENDCHAR
STARTCHAR 2165
ENCODING 8549
SWIDTH 823 0
DWIDTH 16 0
BBX 16 16 0 -2
BITMAP
0000
0000
001c
00e0
0700
3800
0700
00e0
001c
0000
3ffc
0000
0000
3ffc
0000
0000
ENDCHAR
STARTCHAR 2166
ENCODING 8550
SWIDTH 823 0
DWIDTH 16 0
BBX 16 16 0 -2
BITMAP
0000
0000
3800
0700
00e0
001c
00e0
0700
3800
0000
3ffc
0000
0000
3ffc
0000
0000
ENDCHAR
STARTCHAR 2167
ENCODING 8551
SWIDTH 823 0
DWIDTH 16 0
BBX 16 16 0 -2
BITMAP
0000
0000
0000
0000
0e38
1144
2082
2082
2082
2082
1144
0e38
0000
0000
0000
0000
ENDCHAR
STARTCHAR 2168
ENCODING 8552
SWIDTH 823 0
DWIDTH 16 0
BBX 16 16 0 -2
BITMAP
0000
0000
0000
0000
00c0
00c0
0000
0000
0000
0000
0c18
0c18
0000
0000
0000
0000
ENDCHAR
STARTCHAR 2169
ENCODING 8553
SWIDTH 823 0
DWIDTH 16 0
BBX 16 16 0 -2
BITMAP
0000
00fe
0006
000a
0012
0022
0042
1e82
2100
4080
4080
4080
4080
2100
1e00
0000
ENDCHAR
STARTCHAR 216a
ENCODING 8554
SWIDTH 823 0
DWIDTH 16 0
BBX 16 16 0 -2
BITMAP
03c0
0420
0810
0810
0810
0810
0420
03c0
0100
0100
1ff8
0100
0100
0100
0100
0000
ENDCHAR
STARTCHAR 216b
ENCODING 8555
SWIDTH 823 0
DWIDTH 16 0
BBX 16 16 0 -2
BITMAP
0000
3000
4800
4800
3000
0000
0000
0000
0000
0000
0000
0000
0000
0000
0000
0000
ENDCHAR
STARTCHAR 216c
ENCODING 8556
SWIDTH 823 0
DWIDTH 16 0
BBX 16 16 0 -2
BITMAP
0000
0800
1000
2000
2000
0000
0000
0000
0000
0000
0000
0000
0000
0000
0000
0000
ENDCHAR
STARTCHAR 216d
ENCODING 8557
SWIDTH 823 0
DWIDTH 16 0
BBX 16 16 0 -2
BITMAP
0000
1100
2200
4400
4400
0000
0000
0000
0000
0000
0000
0000
0000
0000
0000
0000
ENDCHAR
STARTCHAR 216e
ENCODING 8558
SWIDTH 823 0
DWIDTH 16 0
BBX 16 16 0 -2
BITMAP
0000
3078
4986
4a01
3200
0400
0400
0400
0400
0400
0201
0201
0186
0078
0000
0000
ENDCHAR
STARTCHAR 216f
ENCODING 8559
SWIDTH 823 0
DWIDTH 16 0
BBX 16 16 0 -2
BITMAP
0000
0808
0808
0410
0ff8
0220
0220
0140
0ff8
0080
0080
0080
0080
0080
0000
0000
ENDCHAR
STARTCHAR 2170
ENCODING 8560
SWIDTH 823 0
DWIDTH 16 0
BBX 16 16 0 -2
BITMAP
0000
0240
07c0
0a70
1248
1240
0a40
0740
02e0
0250
0248
1248
0e50
03e0
0240
0000
ENDCHAR
STARTCHAR 2171
ENCODING 8561
SWIDTH 823 0
DWIDTH 16 0
BBX 16 16 0 -2
BITMAP
0000
0000
0000
0000
0000
0020
03e0
0450
0880
0880
0900
0900
0610
03e0
0400
0000
ENDCHAR
STARTCHAR 2172
ENCODING 8562
SWIDTH 823 0
DWIDTH 16 0
BBX 16 16 0 -2
BITMAP
0000
00f0
0308
0404
0400
0400
0400
7ff0
0400
0200
3a00
4602
4584
3878
0000
0000
ENDCHAR
STARTCHAR 2173
ENCODING 8563
SWIDTH 823 0
DWIDTH 16 0
BBX 16 16 0 -2
BITMAP
0000
3802
4404
4408
4410
4420
4440
3880
011c
0222
0422
0822
1022
2022
401c
0000
ENDCHAR
STARTCHAR 2174
ENCODING 8564
SWIDTH 823 0
DWIDTH 16 0
BBX 16 16 0 -2
BITMAP
0000
0108
0108
0108
0ffe
0ffe
0210
0210
0210
0210
1ffc
1ffc
0420
0420
0420
0000
ENDCHAR
STARTCHAR 2175
ENCODING 8565
SWIDTH 823 0
DWIDTH 16 0
BBX 16 16 0 -2
BITMAP
0000
0700
0880
1080
1080
0900
0e00
1410
2210
4120
40a0
4040
31a2
0e1c
0000
0000
ENDCHAR
STARTCHAR 2176
ENCODING 8566
SWIDTH 823 0
DWIDTH 16 0
BBX 16 16 0 -2
BITMAP
0000
0000
0000
0000
0080
0888
0490
03e0
0080
03e0
0490
0888
0080
0000
0000
0000
ENDCHAR
STARTCHAR 2177
ENCODING 8567
SWIDTH 823 0
DWIDTH 16 0
BBX 16 16 0 -2
BITMAP
0000
0000
03c0
0c30
1008
11a8
2264
2444
2444
24c8
1370
1004
0c18
03e0
0000
0000
ENDCHAR
STARTCHAR 2178
ENCODING 8568
SWIDTH 823 0
DWIDTH 16 0
BBX 16 16 0 -2
BITMAP
0000
03e0
0410
0400
0380
0260
0410
0410
0320
00e0
0010
0410
0410
03e0
0000
0000
ENDCHAR
STARTCHAR 2179
ENCODING 8569
SWIDTH 823 0
DWIDTH 16 0
BBX 16 16 0 -2
BITMAP
0000
0080
0140
0140
0220
0220
3e3e
1004
0808
0410
0410
0888
0948
1634
180c
0000
ENDCHAR
STARTCHAR 217a
ENCODING 8570
SWIDTH 823 0
DWIDTH 16 0
BBX 16 16 0 -2
BITMAP
0000
0080
0080
01c0
01c0
03e0
3ffe
1ffc
0ff8
07f0
07f0
0f78
0e38
1c1c
1004
0000
ENDCHAR
STARTCHAR 217b
ENCODING 8571
SWIDTH 823 0
DWIDTH 16 0
BBX 16 16 0 -2
BITMAP
0000
03c0
0c30
1008
2004
2004
4002
4002
4002
4002
2004
2004
1008
0c30
03c0
0000
ENDCHAR
STARTCHAR 217c
ENCODING 8572
SWIDTH 823 0
DWIDTH 16 0
BBX 16 16 0 -2
BITMAP
0000
03c0
0ff0
1ff8
3ffc
3ffc
7ffe
7ffe
7ffe
7ffe
3ffc
3ffc
1ff8
0ff0
03c0
0000
ENDCHAR
STARTCHAR 217d
ENCODING 8573
SWIDTH 823 0
DWIDTH 16 0
BBX 16 16 0 -2
BITMAP
0000
03c0
0c30
1008
23c4
2424
4812
4812
4812
4812
2424
23c4
1008
0c30
03c0
0000
ENDCHAR
STARTCHAR 217e
ENCODING 8574
SWIDTH 823 0
DWIDTH 16 0
BBX 16 16 0 -2
BITMAP
0000
0180
0240
0420
0810
1008
2004
4002
4002
2004
1008
0810
0420
0240
0180
0000
ENDCHAR
STARTCHAR 2221
ENCODING 8737
SWIDTH 823 0
DWIDTH 16 0
BBX 16 16 0 -2
BITMAP
0000
0180
03c0
07e0
0ff0
1ff8
3ffc
7ffe
7ffe
3ffc
1ff8
0ff0
07e0
03c0
0180
0000
ENDCHAR
STARTCHAR 2222
ENCODING 8738
SWIDTH 823 0
DWIDTH 16 0
BBX 16 16 0 -2
BITMAP
0000
7ffe
4002
4002
4002
4002
4002
4002
4002
4002
4002
4002
4002
4002
7ffe
0000
ENDCHAR
STARTCHAR 2223
ENCODING 8739
SWIDTH 823 0
DWIDTH 16 0
BBX 16 16 0 -2
BITMAP
0000
7ffe
7ffe
7ffe
7ffe
7ffe
7ffe
7ffe
7ffe
7ffe
7ffe
7ffe
7ffe
7ffe
7ffe
0000
ENDCHAR
STARTCHAR 2224
ENCODING 8740
SWIDTH 823 0
DWIDTH 16 0
BBX 16 16 0 -2
BITMAP
0000
0000
0080
0080
0140
0140
0220
0220
0410
0410
0808
0808
1004
3ffe
0000
0000
ENDCHAR
STARTCHAR 2225
ENCODING 8741
SWIDTH 823 0
DWIDTH 16 0
BBX 16 16 0 -2
BITMAP
0000
0000
0080
0080
01c0
01c0
03e0
03e0
07f0
07f0
0ff8
0ff8
1ffc
3ffe
0000
0000
ENDCHAR
STARTCHAR 2226
ENCODING 8742
SWIDTH 823 0
DWIDTH 16 0
BBX 16 16 0 -2
BITMAP
0000
0000
3ffe
1004
0808
0808
0410
0410
0220
0220
0140
0140
0080
0080
0000
0000
ENDCHAR
STARTCHAR 2227
ENCODING 8743
SWIDTH 823 0
DWIDTH 16 0
BBX 16 16 0 -2
BITMAP
0000
0000
3ffe
1ffc
0ff8
0ff8
07f0
07f0
03e0
03e0
01c0
01c0
0080
0080
0000
0000
ENDCHAR
STARTCHAR 2228
ENCODING 8744
SWIDTH 823 0
DWIDTH 16 0
BBX 16 16 0 -2
BITMAP
0000
0000
2184
1188
0810
0420
0240
318c
318c
0240
0420
0810
1188
2184
0000
0000
ENDCHAR
STARTCHAR 2229
ENCODING 8745
SWIDTH 823 0
DWIDTH 16 0
BBX 16 16 0 -2
BITMAP
0000
7ffe
7ffe
0000
0000
7ffe
7ffe
0180
0180
0180
0180
0180
0180
0180
0180
0000
ENDCHAR
STARTCHAR 222a
ENCODING 8746
SWIDTH 823 0
DWIDTH 16 0
BBX 16 16 0 -2
BITMAP
0000
0000
0000
0000
0000
0018
0006
7fff
0006
0018
0000
0000
0000
0000
0000
0000
ENDCHAR
STARTCHAR 222b
ENCODING 8747
SWIDTH 823 0
DWIDTH 16 0
BBX 16 16 0 -2
BITMAP
0000
0000
0000
0000
0000
0c00
3000
7fff
3000
0c00
0000
0000
0000
0000
0000
0000
ENDCHAR
STARTCHAR 222c
ENCODING 8748
SWIDTH 823 0
DWIDTH 16 0
BBX 16 16 0 -2
BITMAP
0080
01c0
01c0
02a0
02a0
0080
0080
0080
0080
0080
0080
0080
0080
0080
0080
0000
ENDCHAR
STARTCHAR 222d
ENCODING 8749
SWIDTH 823 0
DWIDTH 16 0
BBX 16 16 0 -2
BITMAP
0080
0080
0080
0080
0080
0080
0080
0080
0080
0080
02a0
02a0
01c0
01c0
0080
0000
ENDCHAR
STARTCHAR 222e
ENCODING 8750
SWIDTH 823 0
DWIDTH 16 0
BBX 16 16 0 -2
BITMAP
0000
0000
7ffe
7ffe
7ffe
7ffe
0000
0000
0000
7ffe
7ffe
7ffe
7ffe
0000
0000
0000
ENDCHAR
STARTCHAR 222f
ENCODING 8751
SWIDTH 823 0
DWIDTH 16 0
BBX 16 16 0 -2
BITMAP
01c0
01c0
0080
0080
0000
0000
0000
0000
0000
0000
0000
0000
0000
0000
0000
0000
ENDCHAR
STARTCHAR 2230
ENCODING 8752
SWIDTH 823 0
DWIDTH 16 0
BBX 16 16 0 -2
BITMAP
0770
0770
0220
0220
0000
0000
0000
0000
0000
0000
0000
0000
0000
0000
0000
0000
ENDCHAR
STARTCHAR 2231
ENCODING 8753
SWIDTH 823 0
DWIDTH 16 0
BBX 16 16 0 -2
BITMAP
0000
0000
0000
0000
0000
0000
0000
07e0
07e0
0000
0000
0000
0000
0000
0000
0000
ENDCHAR
STARTCHAR 2232
ENCODING 8754
SWIDTH 823 0
DWIDTH 16 0
BBX 16 16 0 -2
BITMAP
0000
0710
08e0
0000
0000
0000
0000
0000
0000
0000
0000
0000
0000
0000
0000
0000
ENDCHAR
STARTCHAR 2233
ENCODING 8755
SWIDTH 823 0
DWIDTH 16 0
BBX 16 16 0 -2
BITMAP
0000
0400
0400
0400
0200
0200
0100
0100
0080
0080
0040
0040
0040
0020
0020
0020
ENDCHAR
STARTCHAR 2234
ENCODING 8756
SWIDTH 823 0
DWIDTH 16 0
BBX 16 16 0 -2
BITMAP
0000
0400
0400
0400
0200
0208
0114
0108
0080
0080
0040
0040
0040
0020
0020
0020
ENDCHAR
STARTCHAR 2235
ENCODING 8757
SWIDTH 823 0
DWIDTH 16 0
BBX 16 16 0 -2
BITMAP
0020
0020
0020
0040
0040
0040
0080
0080
0100
0100
0200
0200
0400
0400
0400
0000
ENDCHAR
STARTCHAR 2236
ENCODING 8758
SWIDTH 823 0
DWIDTH 16 0
BBX 16 16 0 -2
BITMAP
0000
0000
0200
0100
0080
0060
0180
0200
0100
0080
0040
0020
0010
0000
0000
0000
ENDCHAR
STARTCHAR 2237
ENCODING 8759
SWIDTH 823 0
DWIDTH 16 0
BBX 16 16 0 -2
BITMAP
0000
7ffe
4006
400a
4012
4022
4042
4082
4102
4202
4402
4802
5002
6002
7ffe
0000
ENDCHAR
STARTCHAR 2238
ENCODING 8760
SWIDTH 823 0
DWIDTH 16 0
BBX 16 16 0 -2
BITMAP
0000
0000
1ff8
0008
0008
0008
0008
0008
0008
0008
0008
0008
0008
0008
0008
0000
ENDCHAR
STARTCHAR 2239
ENCODING 8761
SWIDTH 823 0
DWIDTH 16 0
BBX 16 16 0 -2
BITMAP
0080
0080
0100
01f8
0100
0200
0200
02e0
0710
0408
0408
0808
0808
1310
10e0
0000
ENDCHAR
STARTCHAR 223a
ENCODING 8762
SWIDTH 823 0
DWIDTH 16 0
BBX 16 16 0 -2
BITMAP
0000
0000
0000
07f8
0800
1000
1000
1ff8
1000
1000
0800
07f8
0000
0000
0000
0000
ENDCHAR
STARTCHAR 223b
ENCODING 8763
SWIDTH 823 0
DWIDTH 16 0
BBX 16 16 0 -2
BITMAP
0000
0000
0000
1fe0
0010
0008
0008
1ff8
0008
0008
0010
1fe0
0000
0000
0000
0000
ENDCHAR
STARTCHAR 223c
ENCODING 8764
SWIDTH 823 0
DWIDTH 16 0
BBX 16 16 0 -2
BITMAP
0000
0000
0ffc
1000
2000
2000
2000
2000
1000
0ffc
0000
0000
3ffc
0000
0000
0000
ENDCHAR
STARTCHAR 223d
ENCODING 8765
SWIDTH 823 0
DWIDTH 16 0
BBX 16 16 0 -2
BITMAP
0000
0000
3ff0
0008
0004
0004
0004
0004
0008
3ff0
0000
0000
3ffc
0000
0000
0000
ENDCHAR
STARTCHAR 223e
ENCODING 8766
SWIDTH 823 0
DWIDTH 16 0
BBX 16 16 0 -2
BITMAP
0000
0000
0000
07fc
0800
1000
2000
2000
2000
2000
1000
0800
07fc
0000
0000
0000
ENDCHAR
STARTCHAR 223f
ENCODING 8767
SWIDTH 823 0
DWIDTH 16 0
BBX 16 16 0 -2
BITMAP
0000
0000
0000
3fe0
0010
0008
0004
0004
0004
0004
0008
0010
3fe0
0000
0000
0000
ENDCHAR
STARTCHAR 2240
ENCODING 8768
SWIDTH 823 0
DWIDTH 16 0
BBX 16 16 0 -2
BITMAP
0000
0000
1008
1008
1008
1008
1008
1008
1008
1008
1008
0810
0420
03c0
0000
0000
ENDCHAR
STARTCHAR 2241
ENCODING 8769
SWIDTH 823 0
DWIDTH 16 0
BBX 16 16 0 -2
BITMAP
0000
0000
03c0
0420
0810
1008
1008
1008
1008
1008
1008
1008
1008
1008
0000
0000
ENDCHAR
STARTCHAR 2242
ENCODING 8770
SWIDTH 823 0
DWIDTH 16 0
BBX 16 16 0 -2
BITMAP
0000
0000
0008
07fc
0810
1020
2020
2040
2080
2100
1100
0a00
07fc
0400
0000
0000
ENDCHAR
STARTCHAR 2243
ENCODING 8771
SWIDTH 823 0
DWIDTH 16 0
BBX 16 16 0 -2
BITMAP
0000
0000
0020
3fe0
0050
0088
0084
0104
0204
0404
0408
0810
3fe0
1000
0000
0000
ENDCHAR
STARTCHAR 2244
ENCODING 8772
SWIDTH 823 0
DWIDTH 16 0
BBX 16 16 0 -2
BITMAP
0000
0000
0ffc
1000
2000
2000
2000
2000
1000
0ffc
0040
0040
3ffc
0080
0100
0100
ENDCHAR
STARTCHAR 2245
ENCODING 8773
SWIDTH 823 0
DWIDTH 16 0
BBX 16 16 0 -2
BITMAP
0000
0000
3ff0
0008
0004
0004
0004
0004
0008
3ff0
0040
0040
3ffc
0080
0100
0100
ENDCHAR
STARTCHAR 2246
ENCODING 8774
SWIDTH 823 0
DWIDTH 16 0
BBX 16 16 0 -2
BITMAP
0000
0080
0080
07f8
0880
1080
1080
1ff8
1080
1080
0880
07f8
0080
0080
0000
0000
ENDCHAR
STARTCHAR 2247
ENCODING 8775
SWIDTH 823 0
DWIDTH 16 0
BBX 16 16 0 -2
BITMAP
0000
0000
0004
03c8
0430
0830
1048
1088
1108
1208
0c10
0c20
13c0
2000
0000
0000
ENDCHAR
STARTCHAR 2248
ENCODING 8776
SWIDTH 823 0
DWIDTH 16 0
BBX 16 16 0 -2
BITMAP
0000
0000
0000
0000
0000
3ffc
0180
0240
0420
0810
1008
2004
0000
0000
0000
0000
ENDCHAR
STARTCHAR 2249
ENCODING 8777
SWIDTH 823 0
DWIDTH 16 0
BBX 16 16 0 -2
BITMAP
0000
0000
0000
3ffc
0000
0000
3ffc
0180
0240
0420
0810
1008
2004
0000
0000
0000
ENDCHAR
STARTCHAR 224a
ENCODING 8778
SWIDTH 823 0
DWIDTH 16 0
BBX 16 16 0 -2
BITMAP
0000
0000
0080
0080
0140
0140
0220
0220
0410
0410
0808
0808
1004
1004
0000
0000
ENDCHAR
STARTCHAR 224b
ENCODING 8779
SWIDTH 823 0
DWIDTH 16 0
BBX 16 16 0 -2
BITMAP
0000
0000
1004
1004
0808
0808
0410
0410
0220
0220
0140
0140
0080
0080
0000
0000
ENDCHAR
STARTCHAR 224c
ENCODING 8780
SWIDTH 823 0
DWIDTH 16 0
BBX 16 16 0 -2
BITMAP
0000
0000
0000
0000
0000
0000
3ffc
0004
0004
0004
0004
0000
0000
0000
0000
0000
ENDCHAR
STARTCHAR 224d
ENCODING 8781
SWIDTH 823 0
DWIDTH 16 0
BBX 16 16 0 -2
BITMAP
0000
0000
0000
0010
0008
7ffc
0002
0001
0002
7ffc
0008
0010
0000
0000
0000
0000
ENDCHAR
STARTCHAR 224e
ENCODING 8782
SWIDTH 823 0
DWIDTH 16 0
BBX 16 16 0 -2
BITMAP
0000
0000
0000
0410
0808
1ffc
2002
4001
2002
1ffc
0808
0410
0000
0000
0000
0000
ENDCHAR
STARTCHAR 224f
ENCODING 8783
SWIDTH 823 0
DWIDTH 16 0
BBX 16 16 0 -2
BITMAP
0000
2002
2002
1004
1004
0ff8
0808
0410
0410
0220
0220
0140
0140
0080
0080
0000
ENDCHAR
STARTCHAR 2250
ENCODING 8784
SWIDTH 823 0
DWIDTH 16 0
BBX 16 16 0 -2
BITMAP
0000
0000
1ff0
0010
0010
0010
0010
1ff0
0010
0010
0010
0010
1ff0
0000
0000
0000
ENDCHAR
STARTCHAR 2251
ENCODING 8785
SWIDTH 823 0
DWIDTH 16 0
BBX 16 16 0 -2
BITMAP
0000
03c0
0c30
1108
2104
2104
4102
5ffa
4102
4102
2104
2104
1108
0c30
03c0
0000
ENDCHAR
STARTCHAR 2252
ENCODING 8786
SWIDTH 823 0
DWIDTH 16 0
BBX 16 16 0 -2
BITMAP
0000
03c0
0c30
1008
2004
2004
4002
5ffa
4002
4002
2004
2004
1008
0c30
03c0
0000
ENDCHAR
STARTCHAR 2253
ENCODING 8787
SWIDTH 823 0
DWIDTH 16 0
BBX 16 16 0 -2
BITMAP
0000
03c0
0c30
1008
2814
2424
4242
4182
4182
4242
2424
2814
1008
0c30
03c0
0000
ENDCHAR
STARTCHAR 2254
ENCODING 8788
SWIDTH 823 0
DWIDTH 16 0
BBX 16 16 0 -2
BITMAP
0040
0084
0084
0108
0108
0210
0210
0420
0420
0840
0840
1080
1080
2100
2100
0200
ENDCHAR
STARTCHAR 2255
ENCODING 8789
SWIDTH 823 0
DWIDTH 16 0
BBX 16 16 0 -2
BITMAP
0040
0084
0084
1108
0908
0610
0210
0520
04a0
0840
0860
1090
1088
2100
2100
0200
ENDCHAR
STARTCHAR 2256
ENCODING 8790
SWIDTH 823 0
DWIDTH 16 0
BBX 16 16 0 -2
BITMAP
0044
0088
0110
0110
0220
0220
0220
0220
0220
0220
0220
0220
0110
0110
0088
0044
ENDCHAR
STARTCHAR 2257
ENCODING 8791
SWIDTH 823 0
DWIDTH 16 0
BBX 16 16 0 -2
BITMAP
2200
1100
0880
0880
0440
0440
0440
0440
0440
0440
0440
0440
0880
0880
1100
2200
ENDCHAR
STARTCHAR 2258
ENCODING 8792
SWIDTH 823 0
DWIDTH 16 0
BBX 16 16 0 -2
BITMAP
001c
0060
018c
0130
0120
0120
0120
0120
0120
0120
0120
0120
0130
018c
0060
001c
ENDCHAR
STARTCHAR 2259
ENCODING 8793
SWIDTH 823 0
DWIDTH 16 0
BBX 16 16 0 -2
BITMAP
3800
0600
3180
0c80
0480
0480
0480
0480
0480
0480
0480
0480
0c80
3180
0600
3800
ENDCHAR
STARTCHAR 225a
ENCODING 8794
SWIDTH 823 0
DWIDTH 16 0
BBX 16 16 0 -2
BITMAP
01fc
0108
0110
0120
0120
0140
0140
0140
0140
0140
0140
0120
0120
0110
0108
01fc
ENDCHAR
STARTCHAR 225b
ENCODING 8795
SWIDTH 823 0
DWIDTH 16 0
BBX 16 16 0 -2
BITMAP
3f80
1080
0880
0480
0480
0280
0280
0280
0280
0280
0280
0480
0480
0880
1080
3f80
ENDCHAR
STARTCHAR 225c
ENCODING 8796
SWIDTH 823 0
DWIDTH 16 0
BBX 16 16 0 -2
BITMAP
0000
0000
0008
0010
0020
0040
0080
0100
0200
0400
0800
1000
3ffc
0000
0000
0000
ENDCHAR
STARTCHAR 225d
ENCODING 8797
SWIDTH 823 0
DWIDTH 16 0
BBX 16 16 0 -2
BITMAP
0000
0000
0100
0100
0100
0100
0100
0100
0100
0100
0100
0100
3ffc
0000
0000
0000
ENDCHAR
STARTCHAR 225e
ENCODING 8798
SWIDTH 823 0
DWIDTH 16 0
BBX 16 16 0 -2
BITMAP
03e0
1c1c
6003
0000
0000
0000
0000
0000
0000
0000
0000
0000
0000
0000
0000
0000
ENDCHAR
STARTCHAR 225f
ENCODING 8799
SWIDTH 823 0
DWIDTH 16 0
BBX 16 16 0 -2
BITMAP
0000
01c0
0220
0410
0010
0010
0390
0460
0820
1020
1040
1080
1100
0e00
0000
0000
ENDCHAR
STARTCHAR 2260
ENCODING 8800
SWIDTH 823 0
DWIDTH 16 0
BBX 16 16 0 -2
BITMAP
0000
7ffe
2004
3004
1008
1808
0810
0c10
0420
0620
0240
0340
0180
0180
0000
0000
ENDCHAR
STARTCHAR 2261
ENCODING 8801
SWIDTH 823 0
DWIDTH 16 0
BBX 16 16 0 -2
BITMAP
0000
0000
0000
3ffc
0000
0000
0000
3ffc
0000
0000
0000
3ffc
0000
0000
0000
0000
ENDCHAR
STARTCHAR 2262
ENCODING 8802
SWIDTH 823 0
DWIDTH 16 0
BBX 16 16 0 -2
BITMAP
0000
0000
1800
1800
0000
3ffc
0000
0000
0000
3ffc
0000
0018
0018
0000
0000
0000
ENDCHAR
STARTCHAR 2263
ENCODING 8803
SWIDTH 823 0
DWIDTH 16 0
BBX 16 16 0 -2
BITMAP
0084
0108
0210
0420
0840
1080
2100
4200
2100
1080
0840
0420
0210
0108
0084
0000
ENDCHAR
STARTCHAR 2264
ENCODING 8804
SWIDTH 823 0
DWIDTH 16 0
BBX 16 16 0 -2
BITMAP
4200
2100
1080
0840
0420
0210
0108
0084
0108
0210
0420
0840
1080
2100
4200
0000
ENDCHAR
STARTCHAR 2265
ENCODING 8805
SWIDTH 823 0
DWIDTH 16 0
BBX 16 16 0 -2
BITMAP
007f
0040
0080
0080
0080
0080
0100
0100
0100
1100
3a00
5a00
0e00
0c00
0400
0000
ENDCHAR
STARTCHAR 2266
ENCODING 8806
SWIDTH 823 0
DWIDTH 16 0
BBX 16 16 0 -2
BITMAP
0000
0000
0000
0000
1c38
2044
4082
4082
4102
4102
2204
1c38
0000
0000
0000
0000
ENDCHAR
STARTCHAR 2267
ENCODING 8807
SWIDTH 823 0
DWIDTH 16 0
BBX 16 16 0 -2
BITMAP
0000
0000
0000
0000
0e38
1144
2080
2080
2080
2080
1144
0e38
0000
0000
0000
0000
ENDCHAR
STARTCHAR 2268
ENCODING 8808
SWIDTH 823 0
DWIDTH 16 0
BBX 16 16 0 -2
BITMAP
0000
0000
0000
0000
0c18
0c18
0000
0000
0000
0000
00c0
00c0
0000
0000
0000
0000
ENDCHAR
STARTCHAR 2269
ENCODING 8809
SWIDTH 823 0
DWIDTH 16 0
BBX 16 16 0 -2
BITMAP
01c0
0240
0200
0200
0100
0100
0100
0080
0080
0080
0040
0040
0040
0240
0380
0000
ENDCHAR
STARTCHAR 226a
ENCODING 8810
SWIDTH 823 0
DWIDTH 16 0
BBX 16 16 0 -2
BITMAP
0e38
1248
1040
1040
0820
0820
0820
0410
0410
0410
0208
0208
0208
1248
1c70
0000
ENDCHAR
STARTCHAR 226b
ENCODING 8811
SWIDTH 823 0
DWIDTH 16 0
BBX 16 16 0 -2
BITMAP
0020
0020
0040
7ffe
0040
0080
0080
7ffe
0100
0100
0200
7ffe
0200
0400
0400
0000
ENDCHAR
STARTCHAR 226c
ENCODING 8812
SWIDTH 823 0
DWIDTH 16 0
BBX 16 16 0 -2
BITMAP
0000
0000
0000
1c02
2302
40c4
4038
0000
0000
0000
7ffe
0000
0000
0000
0000
0000
ENDCHAR
STARTCHAR 226d
ENCODING 8813
SWIDTH 823 0
DWIDTH 16 0
BBX 16 16 0 -2
BITMAP
0000
0000
0000
1c02
2302
40c4
4038
0000
0000
7ffe
0000
0000
7ffe
0000
0000
0000
ENDCHAR
STARTCHAR 226e
ENCODING 8814
SWIDTH 823 0
DWIDTH 16 0
BBX 16 16 0 -2
BITMAP
0000
0000
0000
0000
1e02
2182
4044
4038
1e02
2102
40c4
4038
0000
0000
0000
0000
ENDCHAR
STARTCHAR 226f
ENCODING 8815
SWIDTH 823 0
DWIDTH 16 0
BBX 16 16 0 -2
BITMAP
0000
001c
00e0
0700
3800
0700
00e0
381c
0700
00e0
001c
00e0
0700
3800
0000
0000
ENDCHAR
STARTCHAR 2270
ENCODING 8816
SWIDTH 823 0
DWIDTH 16 0
BBX 16 16 0 -2
BITMAP
0000
3800
0700
00e0
001c
00e0
0700
381c
00e0
0700
3800
0700
00e0
001c
0000
0000
ENDCHAR
STARTCHAR 2271
ENCODING 8817
SWIDTH 823 0
DWIDTH 16 0
BBX 16 16 0 -2
BITMAP
0000
0000
0000
0000
0000
1008
2004
ffff
2004
1008
0000
0000
0000
0000
0000
0000
ENDCHAR
STARTCHAR 2272
ENCODING 8818
SWIDTH 823 0
DWIDTH 16 0
BBX 16 16 0 -2
BITMAP
0180
0240
0240
0180
0000
0180
0240
0240
0420
0420
0ff0
0810
1008
1008
0000
0000
ENDCHAR
STARTCHAR 2273
ENCODING 8819
SWIDTH 823 0
DWIDTH 16 0
BBX 16 16 0 -2
BITMAP
0000
3040
4840
4880
4900
4900
4a00
3400
058c
0a52
1252
1252
2252
4252
418c
0000
ENDCHAR
STARTCHAR 2274
ENCODING 8820
SWIDTH 823 0
DWIDTH 16 0
BBX 16 16 0 -2
BITMAP
0020
0420
0420
043c
07fc
3fe0
3c20
0420
043c
07fc
3fe0
3c20
0420
0420
0400
0000
ENDCHAR
STARTCHAR 2275
ENCODING 8821
SWIDTH 823 0
DWIDTH 16 0
BBX 16 16 0 -2
BITMAP
0400
0400
0400
0400
0400
0400
05e0
0630
0430
0430
0460
04c0
0580
0600
0400
0000
ENDCHAR
STARTCHAR 2276
ENCODING 8822
SWIDTH 823 0
DWIDTH 16 0
BBX 16 16 0 -2
BITMAP
0080
0080
00c0
00e0
00b0
0098
008c
0084
0084
0088
0090
0f80
1f80
1f00
0e00
0000
ENDCHAR
STARTCHAR 2277
ENCODING 8823
SWIDTH 823 0
DWIDTH 16 0
BBX 16 16 0 -2
BITMAP
0080
01c0
0490
0ff8
0490
0080
03e0
01c0
01c0
0080
0080
0080
0080
0080
0080
0000
ENDCHAR
STARTCHAR 2278
ENCODING 8824
SWIDTH 823 0
DWIDTH 16 0
BBX 16 16 0 -2
BITMAP
0080
01c0
0490
0ff8
0490
01c0
0080
01c0
0490
0ff8
0490
0080
01c0
0080
0080
0000
ENDCHAR
STARTCHAR 2279
ENCODING 8825
SWIDTH 823 0
DWIDTH 16 0
BBX 16 16 0 -2
BITMAP
0000
07e0
0f20
1f20
1f20
1f20
0f20
0720
0120
0120
0120
0120
0120
0120
0120
0000
ENDCHAR
STARTCHAR 227a
ENCODING 8826
SWIDTH 823 0
DWIDTH 16 0
BBX 16 16 0 -2
BITMAP
0400
0400
0400
0470
07f0
0790
0410
0410
0410
04f0
07f0
0710
0010
0010
0010
0000
ENDCHAR
STARTCHAR 227b
ENCODING 8827
SWIDTH 823 0
DWIDTH 16 0
BBX 16 16 0 -2
BITMAP
0380
03f0
03fe
027e
020e
0202
0202
0202
0202
1e02
3e02
3c1e
183e
003c
0018
0000
ENDCHAR
STARTCHAR 227c
ENCODING 8828
SWIDTH 823 0
DWIDTH 16 0
BBX 16 16 0 -2
BITMAP
0380
03f0
027e
038e
03f2
027e
020e
0202
0202
1e02
3e02
3c1e
183e
003c
0018
0000
ENDCHAR
STARTCHAR 227d
ENCODING 8829
SWIDTH 823 0
DWIDTH 16 0
BBX 16 16 0 -2
BITMAP
0020
0020
0020
0020
0020
0020
0020
0020
0020
0020
0020
03e0
07e0
07c0
0380
0000
ENDCHAR
STARTCHAR 227e
ENCODING 8830
SWIDTH 823 0
DWIDTH 16 0
BBX 16 16 0 -2
BITMAP
0000
03c0
0c30
1008
2004
2004
4002
4002
4002
4002
2004
2004
1008
0c30
03c0
0000
ENDCHAR
STARTCHAR 2321
ENCODING 8993
SWIDTH 823 0
DWIDTH 16 0
BBX 16 16 0 -2
BITMAP
0000
2000
3800
2600
2180
2060
2018
2006
2018
2060
2180
2600
3800
2000
0000
0000
ENDCHAR
STARTCHAR 2322
ENCODING 8994
SWIDTH 823 0
DWIDTH 16 0
BBX 16 16 0 -2
BITMAP
0000
2000
3800
3e00
3f80
3fe0
3ff8
3ffe
3ff8
3fe0
3f80
3e00
3800
2000
0000
0000
ENDCHAR
STARTCHAR 2323
ENCODING 8995
SWIDTH 823 0
DWIDTH 16 0
BBX 16 16 0 -2
BITMAP
0000
0002
000e
0032
00c2
0302
0c02
3002
0c02
0302
00c2
0032
000e
0002
0000
0000
ENDCHAR
STARTCHAR 2324
ENCODING 8996
SWIDTH 823 0
DWIDTH 16 0
BBX 16 16 0 -2
BITMAP
0000
0002
000e
003e
00fe
03fe
0ffe
3ffe
0ffe
03fe
00fe
003e
000e
0002
0000
0000
ENDCHAR
STARTCHAR 2325
ENCODING 8997
SWIDTH 823 0
DWIDTH 16 0
BBX 16 16 0 -2
BITMAP
0000
0000
0004
0078
0018
0028
0048
0080
0100
0200
0400
0800
1000
2000
0000
0000
ENDCHAR
STARTCHAR 2326
ENCODING 8998
SWIDTH 823 0
DWIDTH 16 0
BBX 16 16 0 -2
BITMAP
0000
0000
2000
1000
0800
0400
0200
0100
0080
0048
0028
0018
0078
0004
0000
0000
ENDCHAR
STARTCHAR 2327
ENCODING 8999
SWIDTH 823 0
DWIDTH 16 0
BBX 16 16 0 -2
BITMAP
0000
0000
2000
1e00
1800
1400
1200
0100
0080
0040
0020
0010
0008
0004
0000
0000
ENDCHAR
STARTCHAR 2328
ENCODING 9000
SWIDTH 823 0
DWIDTH 16 0
BBX 16 16 0 -2
BITMAP
0000
0000
0004
0008
0010
0020
0040
0080
0100
1200
1400
1800
1e00
2000
0000
0000
ENDCHAR
STARTCHAR 2329
ENCODING 9001
SWIDTH 823 0
DWIDTH 16 0
BBX 16 16 0 -2
BITMAP
0000
0000
0008
0004
7fff
0004
0008
0000
0800
1000
7fff
1000
0800
0000
0000
0000
ENDCHAR
STARTCHAR 232a
ENCODING 9002
SWIDTH 823 0
DWIDTH 16 0
BBX 16 16 0 -2
BITMAP
0000
0000
0020
0030
0028
7fe4
4002
4001
4002
7fe4
0028
0030
0020
0000
0000
0000
ENDCHAR
STARTCHAR 232b
ENCODING 9003
SWIDTH 823 0
DWIDTH 16 0
BBX 16 16 0 -2
BITMAP
0000
0000
0200
0600
0a00
13ff
2001
4001
2001
13ff
0a00
0600
0200
0000
0000
0000
ENDCHAR
STARTCHAR 232c
ENCODING 9004
SWIDTH 823 0
DWIDTH 16 0
BBX 16 16 0 -2
BITMAP
0080
0140
0220
0410
0808
1e3c
0220
0220
0220
0220
0220
0220
0220
0220
03e0
0000
ENDCHAR
STARTCHAR 232d
ENCODING 9005
SWIDTH 823 0
DWIDTH 16 0
BBX 16 16 0 -2
BITMAP
03e0
0220
0220
0220
0220
0220
0220
0220
0220
1e3c
0808
0410
0220
0140
0080
0000
ENDCHAR
STARTCHAR 232e
ENCODING 9006
SWIDTH 823 0
DWIDTH 16 0
BBX 16 16 0 -2
BITMAP
0000
0008
0008
001c
002a
0008
0008
0008
0010
0010
0020
00c0
7f00
0000
0000
0000
ENDCHAR
STARTCHAR 232f
ENCODING 9007
SWIDTH 823 0
DWIDTH 16 0
BBX 16 16 0 -2
BITMAP
0000
0000
7f00
00c0
0020
0010
0010
0008
0008
0008
002a
001c
0008
0008
0000
0000
ENDCHAR
STARTCHAR 2330
ENCODING 9008
SWIDTH 823 0
DWIDTH 16 0
BBX 16 16 0 -2
BITMAP
0000
03c0
0420
0810
0810
1008
1008
1008
1008
1008
0810
0810
0420
03c0
0000
0000
ENDCHAR
STARTCHAR 2331
ENCODING 9009
SWIDTH 823 0
DWIDTH 16 0
BBX 16 16 0 -2
BITMAP
0000
0080
0380
0080
0080
0080
0080
0080
0080
0080
0080
0080
0080
0080
0000
0000
ENDCHAR
STARTCHAR 2332
ENCODING 9010
SWIDTH 823 0
DWIDTH 16 0
BBX 16 16 0 -2
BITMAP
0000
03c0
0420
0810
0810
0010
0020
0040
0080
0100
0200
0400
0800
0ff8
0000
0000
ENDCHAR
STARTCHAR 2333
ENCODING 9011
SWIDTH 823 0
DWIDTH 16 0
BBX 16 16 0 -2
BITMAP
0000
01c0
0220
0410
0410
0010
0020
00e0
0010
0008
0808
0808
0410
03e0
0000
0000
ENDCHAR
STARTCHAR 2334
ENCODING 9012
SWIDTH 823 0
DWIDTH 16 0
BBX 16 16 0 -2
BITMAP
0000
0020
0060
00a0
0120
0220
0420
0820
1020
1ffc
0020
0020
0020
0020
0000
0000
ENDCHAR
STARTCHAR 2335
ENCODING 9013
SWIDTH 823 0
DWIDTH 16 0
BBX 16 16 0 -2
BITMAP
0000
07e0
0400
0400
0800
0800
0bc0
0c20
0010
0010
0810
0810
0420
03c0
0000
0000
ENDCHAR
STARTCHAR 2336
ENCODING 9014
SWIDTH 823 0
DWIDTH 16 0
BBX 16 16 0 -2
BITMAP
0000
03c0
0420
0810
0810
0800
0bc0
0c20
0810
0810
0810
0810
0420
03c0
0000
0000
ENDCHAR
STARTCHAR 2337
ENCODING 9015
SWIDTH 823 0
DWIDTH 16 0
BBX 16 16 0 -2
BITMAP
0000
0ff0
0010
0010
0010
0020
0020
0020
0040
0040
0040
0080
0080
0080
0000
0000
ENDCHAR
STARTCHAR 2338
ENCODING 9016
SWIDTH 823 0
DWIDTH 16 0
BBX 16 16 0 -2
BITMAP
0000
01c0
0220
0410
0410
0410
0220
03e0
0410
0808
0808
0808
0410
03e0
0000
0000
ENDCHAR
STARTCHAR 2339
ENCODING 9017
SWIDTH 823 0
DWIDTH 16 0
BBX 16 16 0 -2
BITMAP
0000
03c0
0420
0810
0810
0810
0810
0430
03d0
0010
0810
0810
0420
03c0
0000
0000
ENDCHAR
STARTCHAR 233a
ENCODING 9018
SWIDTH 823 0
DWIDTH 16 0
BBX 16 16 0 -2
BITMAP
0000
03c0
0c30
1008
2004
2184
43c2
47e2
47e2
43c2
2184
2004
1008
0c30
03c0
0000
ENDCHAR
STARTCHAR 233b
ENCODING 9019
SWIDTH 823 0
DWIDTH 16 0
BBX 16 16 0 -2
BITMAP
0000
03c0
0c30
1188
27e4
2ff4
4ff2
5ffa
5ffa
4ff2
2ff4
27e4
1188
0c30
03c0
0000
ENDCHAR
STARTCHAR 233c
ENCODING 9020
SWIDTH 823 0
DWIDTH 16 0
BBX 16 16 0 -2
BITMAP
0000
0c00
1460
3290
0310
0010
0008
0008
0008
0004
0004
0002
0002
0002
0000
0000
ENDCHAR
STARTCHAR 233d
ENCODING 9021
SWIDTH 823 0
DWIDTH 16 0
BBX 16 16 0 -2
BITMAP
0000
0000
0000
0000
0000
0f00
02c0
0120
0090
0050
0030
0000
0000
0000
0000
0000
ENDCHAR
STARTCHAR 233e
ENCODING 9022
SWIDTH 823 0
DWIDTH 16 0
BBX 16 16 0 -2
BITMAP
0000
0000
0000
0000
0000
0f00
03c0
01e0
00f0
0070
0030
0000
0000
0000
0000
0000
ENDCHAR
STARTCHAR 233f
ENCODING 9023
SWIDTH 823 0
DWIDTH 16 0
BBX 16 16 0 -2
BITMAP
0000
0000
0000
0000
0180
0240
0420
0420
0240
0180
0000
0000
0000
0000
0000
0000
ENDCHAR
STARTCHAR 2340
ENCODING 9024
SWIDTH 823 0
DWIDTH 16 0
BBX 16 16 0 -2
BITMAP
0000
0000
0000
0000
0180
03c0
07e0
07e0
03c0
0180
0000
0000
0000
0000
0000
0000
ENDCHAR
STARTCHAR 2341
ENCODING 9025
SWIDTH 823 0
DWIDTH 16 0
BBX 16 16 0 -2
BITMAP
0000
0080
0140
0140
0220
0220
0410
0410
07f0
0808
0808
0808
1004
1004
0000
0000
ENDCHAR
STARTCHAR 2342
ENCODING 9026
SWIDTH 823 0
DWIDTH 16 0
BBX 16 16 0 -2
BITMAP
0000
0fe0
0810
0808
0808
0808
0810
0fe0
0818
0804
0804
0804
0808
0ff0
0000
0000
ENDCHAR
STARTCHAR 2343
ENCODING 9027
SWIDTH 823 0
DWIDTH 16 0
BBX 16 16 0 -2
BITMAP
0000
01e0
0618
0804
0800
1000
1000
1000
1000
1000
0804
0804
0618
01e0
0000
0000
ENDCHAR
STARTCHAR 2344
ENCODING 9028
SWIDTH 823 0
DWIDTH 16 0
BBX 16 16 0 -2
BITMAP
0000
0fc0
0830
0808
0808
0804
0804
0804
0804
0804
0808
0808
0830
0fc0
0000
0000
ENDCHAR
STARTCHAR 2345
ENCODING 9029
SWIDTH 823 0
DWIDTH 16 0
BBX 16 16 0 -2
BITMAP
0000
0ff8
0800
0800
0800
0800
0800
0fe0
0800
0800
0800
0800
0800
0ff8
0000
0000
ENDCHAR
STARTCHAR 2346
ENCODING 9030
SWIDTH 823 0
DWIDTH 16 0
BBX 16 16 0 -2
BITMAP
0000
0ff8
0800
0800
0800
0800
0800
0fe0
0800
0800
0800
0800
0800
0800
0000
0000
ENDCHAR
STARTCHAR 2347
ENCODING 9031
SWIDTH 823 0
DWIDTH 16 0
BBX 16 16 0 -2
BITMAP
0000
03c0
0c30
1008
1000
2000
2000
2000
203c
2004
1004
1004
0c18
03e0
0000
0000
ENDCHAR
STARTCHAR 2348
ENCODING 9032
SWIDTH 823 0
DWIDTH 16 0
BBX 16 16 0 -2
BITMAP
0000
1008
1008
1008
1008
1008
1008
1ff8
1008
1008
1008
1008
1008
1008
0000
0000
ENDCHAR
STARTCHAR 2349
ENCODING 9033
SWIDTH 823 0
DWIDTH 16 0
BBX 16 16 0 -2
BITMAP
0000
01c0
0080
0080
0080
0080
0080
0080
0080
0080
0080
0080
0080
01c0
0000
0000
ENDCHAR
STARTCHAR 234a
ENCODING 9034
SWIDTH 823 0
DWIDTH 16 0
BBX 16 16 0 -2
BITMAP
0000
0010
0010
0010
0010
0010
0010
0010
0010
0010
0010
0810
0420
03c0
0000
0000
ENDCHAR
STARTCHAR 234b
ENCODING 9035
SWIDTH 823 0
DWIDTH 16 0
BBX 16 16 0 -2
BITMAP
0000
0808
0810
0820
0840
0880
0900
0f00
0880
0840
0820
0810
0808
0804
0000
0000
ENDCHAR
STARTCHAR 234c
ENCODING 9036
SWIDTH 823 0
DWIDTH 16 0
BBX 16 16 0 -2
BITMAP
0000
0800
0800
0800
0800
0800
0800
0800
0800
0800
0800
0800
0800
0ff8
0000
0000
ENDCHAR
STARTCHAR 234d
ENCODING 9037
SWIDTH 823 0
DWIDTH 16 0
BBX 16 16 0 -2
BITMAP
0000
180c
180c
1414
1414
1414
1224
1224
1224
1144
1144
1084
1084
1004
0000
0000
ENDCHAR
STARTCHAR 234e
ENCODING 9038
SWIDTH 823 0
DWIDTH 16 0
BBX 16 16 0 -2
BITMAP
0000
1008
1808
1408
1408
1208
1208
1108
1088
1048
1048
1028
1018
1008
0000
0000
ENDCHAR
STARTCHAR 234f
ENCODING 9039
SWIDTH 823 0
DWIDTH 16 0
BBX 16 16 0 -2
BITMAP
0000
03e0
0410
0808
0808
1004
1004
1004
1004
1004
0808
0808
0410
03e0
0000
0000
ENDCHAR
STARTCHAR 2350
ENCODING 9040
SWIDTH 823 0
DWIDTH 16 0
BBX 16 16 0 -2
BITMAP
0000
07f0
0408
0404
0404
0404
0408
07f0
0400
0400
0400
0400
0400
0400
0000
0000
ENDCHAR
STARTCHAR 2351
ENCODING 9041
SWIDTH 823 0
DWIDTH 16 0
BBX 16 16 0 -2
BITMAP
0000
03e0
0410
0808
0808
1004
1004
1004
1004
1004
0844
0828
0410
03e8
0004
0000
ENDCHAR
STARTCHAR 2352
ENCODING 9042
SWIDTH 823 0
DWIDTH 16 0
BBX 16 16 0 -2
BITMAP
0000
0fe0
0810
0808
0808
0808
0810
0fe0
0820
0820
0810
0810
0808
0808
0000
0000
ENDCHAR
STARTCHAR 2353
ENCODING 9043
SWIDTH 823 0
DWIDTH 16 0
BBX 16 16 0 -2
BITMAP
0000
03c0
0420
0810
0810
0400
0380
0060
0010
0008
1008
1008
0810
07e0
0000
0000
ENDCHAR
STARTCHAR 2354
ENCODING 9044
SWIDTH 823 0
DWIDTH 16 0
BBX 16 16 0 -2
BITMAP
0000
1ffc
0080
0080
0080
0080
0080
0080
0080
0080
0080
0080
0080
0080
0000
0000
ENDCHAR
STARTCHAR 2355
ENCODING 9045
SWIDTH 823 0
DWIDTH 16 0
BBX 16 16 0 -2
BITMAP
0000
0808
0808
0808
0808
0808
0808
0808
0808
0808
0808
0808
0410
03e0
0000
0000
ENDCHAR
STARTCHAR 2356
ENCODING 9046
SWIDTH 823 0
DWIDTH 16 0
BBX 16 16 0 -2
BITMAP
0000
0808
0808
0808
0410
0410
0410
0220
0220
0220
0140
0140
0080
0080
0000
0000
ENDCHAR
STARTCHAR 2357
ENCODING 9047
SWIDTH 823 0
DWIDTH 16 0
BBX 16 16 0 -2
BITMAP
0000
2082
2082
2082
2142
1144
1144
1144
0a28
0a28
0a28
0410
0410
0410
0000
0000
ENDCHAR
STARTCHAR 2358
ENCODING 9048
SWIDTH 823 0
DWIDTH 16 0
BBX 16 16 0 -2
BITMAP
0000
0808
0410
0410
0220
0220
0140
0080
0140
0220
0220
0410
0808
1004
0000
0000
ENDCHAR
STARTCHAR 2359
ENCODING 9049
SWIDTH 823 0
DWIDTH 16 0
BBX 16 16 0 -2
BITMAP
0000
0808
0808
0410
0410
0220
0220
0140
0140
0080
0080
0080
0080
0080
0000
0000
ENDCHAR
STARTCHAR 235a
ENCODING 9050
SWIDTH 823 0
DWIDTH 16 0
BBX 16 16 0 -2
BITMAP
0000
0ff0
0020
0040
0040
0080
0080
0100
0100
0200
0200
0400
0400
0ff8
0000
0000
ENDCHAR
STARTCHAR 235b
ENCODING 9051
SWIDTH 823 0
DWIDTH 16 0
BBX 16 16 0 -2
BITMAP
0000
0000
3ffc
0000
0000
0100
0100
0100
0100
3ffc
0100
0100
0100
0100
0000
0000
ENDCHAR
STARTCHAR 235c
ENCODING 9052
SWIDTH 823 0
DWIDTH 16 0
BBX 16 16 0 -2
BITMAP
0000
1020
1020
0810
0418
0228
0120
0fc0
1040
1020
1010
0810
1008
2008
0000
0000
ENDCHAR
STARTCHAR 235d
ENCODING 9053
SWIDTH 823 0
DWIDTH 16 0
BBX 16 16 0 -2
BITMAP
0000
0e00
02c0
0300
0600
1c00
05e0
0610
0410
0410
0810
0820
0824
0838
0000
0000
ENDCHAR
STARTCHAR 235e
ENCODING 9054
SWIDTH 823 0
DWIDTH 16 0
BBX 16 16 0 -2
BITMAP
0000
20f8
2084
2082
2082
2082
2084
3ff8
2080
2080
2080
2080
2080
2080
0000
0000
ENDCHAR
STARTCHAR 235f
ENCODING 9055
SWIDTH 823 0
DWIDTH 16 0
BBX 16 16 0 -2
BITMAP
0000
00c0
0120
0220
0220
0420
0420
0420
0440
0440
0588
0308
0510
18e0
0000
0000
ENDCHAR
STARTCHAR 2360
ENCODING 9056
SWIDTH 823 0
DWIDTH 16 0
BBX 16 16 0 -2
BITMAP
0000
3e7c
0240
0240
0c30
1008
1008
2004
2004
2004
1008
1008
0c30
03c0
0000
0000
ENDCHAR
STARTCHAR 2361
ENCODING 9057
SWIDTH 823 0
DWIDTH 16 0
BBX 16 16 0 -2
BITMAP
0000
0000
0000
0000
0000
07c0
0820
0020
03e0
0420
0820
0820
0860
0790
0000
0000
ENDCHAR
STARTCHAR 2362
ENCODING 9058
SWIDTH 823 0
DWIDTH 16 0
BBX 16 16 0 -2
BITMAP
0000
0400
0400
0400
0400
0400
05e0
0610
0408
0408
0408
0408
0610
05e0
0000
0000
ENDCHAR
STARTCHAR 2363
ENCODING 9059
SWIDTH 823 0
DWIDTH 16 0
BBX 16 16 0 -2
BITMAP
0000
0000
0000
0000
0000
0000
01e0
0210
0400
0400
0400
0400
0210
01e0
0000
0000
ENDCHAR
STARTCHAR 2364
ENCODING 9060
SWIDTH 823 0
DWIDTH 16 0
BBX 16 16 0 -2
BITMAP
0000
0020
0020
0020
0020
0020
07a0
0860
1020
1020
1020
1020
0860
07a0
0000
0000
ENDCHAR
STARTCHAR 2365
ENCODING 9061
SWIDTH 823 0
DWIDTH 16 0
BBX 16 16 0 -2
BITMAP
0000
0000
0000
0000
0000
0000
01c0
0220
0410
07f0
0400
0400
0210
01e0
0000
0000
ENDCHAR
STARTCHAR 2366
ENCODING 9062
SWIDTH 823 0
DWIDTH 16 0
BBX 16 16 0 -2
BITMAP
0000
0060
0080
0080
0080
0080
01e0
0080
0080
0080
0080
0080
0080
0080
0000
0000
ENDCHAR
STARTCHAR 2367
ENCODING 9063
SWIDTH 823 0
DWIDTH 16 0
BBX 16 16 0 -2
BITMAP
0000
0000
0000
0000
0000
03a0
0460
0820
0820
0820
0460
03a0
0020
0820
0440
0380
ENDCHAR
STARTCHAR 2368
ENCODING 9064
SWIDTH 823 0
DWIDTH 16 0
BBX 16 16 0 -2
BITMAP
0000
0400
0400
0400
0400
0400
05c0
0620
0410
0410
0410
0410
0410
0410
0000
0000
ENDCHAR
STARTCHAR 2369
ENCODING 9065
SWIDTH 823 0
DWIDTH 16 0
BBX 16 16 0 -2
BITMAP
0000
0000
0080
0080
0000
0000
0080
0080
0080
0080
0080
0080
0080
0080
0000
0000
ENDCHAR
STARTCHAR 236a
ENCODING 9066
SWIDTH 823 0
DWIDTH 16 0
BBX 16 16 0 -2
BITMAP
0000
0000
0040
0040
0000
0000
0040
0040
0040
0040
0040
0040
0040
0040
0240
0180
ENDCHAR
STARTCHAR 236b
ENCODING 9067
SWIDTH 823 0
DWIDTH 16 0
BBX 16 16 0 -2
BITMAP
0000
0400
0400
0400
0400
0400
0420
0440
0480
0700
0480
0440
0420
0410
0000
0000
ENDCHAR
STARTCHAR 236c
ENCODING 9068
SWIDTH 823 0
DWIDTH 16 0
BBX 16 16 0 -2
BITMAP
0000
0080
0080
0080
0080
0080
0080
0080
0080
0080
0080
0080
0080
00c0
0000
0000
ENDCHAR
STARTCHAR 236d
ENCODING 9069
SWIDTH 823 0
DWIDTH 16 0
BBX 16 16 0 -2
BITMAP
0000
0000
0000
0000
0000
0000
1738
18c4
1084
1084
1084
1084
1084
1084
0000
0000
ENDCHAR
STARTCHAR 236e
ENCODING 9070
SWIDTH 823 0
DWIDTH 16 0
BBX 16 16 0 -2
BITMAP
0000
0000
0000
0000
0000
0000
05c0
0620
0410
0410
0410
0410
0410
0410
0000
0000
ENDCHAR
STARTCHAR 236f
ENCODING 9071
SWIDTH 823 0
DWIDTH 16 0
BBX 16 16 0 -2
BITMAP
0000
0000
0000
0000
0000
0000
03c0
0420
0810
0810
0810
0810
0420
03c0
0000
0000
ENDCHAR
STARTCHAR 2370
ENCODING 9072
SWIDTH 823 0
DWIDTH 16 0
BBX 16 16 0 -2
BITMAP
0000
0000
0000
0000
0000
0000
0bc0
0c20
0810
0810
0810
0810
0c20
0bc0
0800
0800
ENDCHAR
STARTCHAR 2371
ENCODING 9073
SWIDTH 823 0
DWIDTH 16 0
BBX 16 16 0 -2
BITMAP
0000
0000
0000
0000
0000
0000
03d0
0430
0810
0810
0810
0810
0430
03d0
0010
0010
ENDCHAR
STARTCHAR 2372
ENCODING 9074
SWIDTH 823 0
DWIDTH 16 0
BBX 16 16 0 -2
BITMAP
0000
0000
0000
0000
0000
0000
02e0
0300
0200
0200
0200
0200
0200
0200
0000
0000
ENDCHAR
STARTCHAR 2373
ENCODING 9075
SWIDTH 823 0
DWIDTH 16 0
BBX 16 16 0 -2
BITMAP
0000
0000
0000
0000
0000
0000
0380
0460
0400
0300
00c0
0020
0420
03c0
0000
0000
ENDCHAR
STARTCHAR 2374
ENCODING 9076
SWIDTH 823 0
DWIDTH 16 0
BBX 16 16 0 -2
BITMAP
0000
0000
0080
0080
0080
03e0
0080
0080
0080
0080
0080
0080
0080
0060
0000
0000
ENDCHAR
STARTCHAR 2375
ENCODING 9077
SWIDTH 823 0
DWIDTH 16 0
BBX 16 16 0 -2
BITMAP
0000
0000
0000
0000
0000
0000
0410
0410
0410
0410
0410
0410
0230
01d0
0000
0000
ENDCHAR
STARTCHAR 2376
ENCODING 9078
SWIDTH 823 0
DWIDTH 16 0
BBX 16 16 0 -2
BITMAP
0000
0000
0000
0000
0000
0000
0820
0820
0440
0440
0280
0280
0100
0100
0000
0000
ENDCHAR
STARTCHAR 2377
ENCODING 9079
SWIDTH 823 0
DWIDTH 16 0
BBX 16 16 0 -2
BITMAP
0000
0000
0000
0000
0000
0000
0888
0888
0888
0550
0550
0550
0220
0220
0000
0000
ENDCHAR
STARTCHAR 2378
ENCODING 9080
SWIDTH 823 0
DWIDTH 16 0
BBX 16 16 0 -2
BITMAP
0000
0000
0000
0000
0000
0000
0410
0220
0140
0080
0140
0220
0410
0808
0000
0000
ENDCHAR
STARTCHAR 2379
ENCODING 9081
SWIDTH 823 0
DWIDTH 16 0
BBX 16 16 0 -2
BITMAP
0000
0000
0000
0000
0000
0000
0410
0410
0220
0220
0140
0140
0080
0080
0100
0600
ENDCHAR
STARTCHAR 237a
ENCODING 9082
SWIDTH 823 0
DWIDTH 16 0
BBX 16 16 0 -2
BITMAP
0000
0000
0000
0000
0000
0000
07e0
0020
0040
0080
0100
0200
0400
07f0
0000
0000
ENDCHAR
STARTCHAR 237b
ENCODING 9083
SWIDTH 823 0
DWIDTH 16 0
BBX 16 16 0 -2
BITMAP
0000
0000
0000
0000
0000
07e0
0000
0000
0000
07e0
0000
0000
0000
0000
0000
0000
ENDCHAR
STARTCHAR 237c
ENCODING 9084
SWIDTH 823 0
DWIDTH 16 0
BBX 16 16 0 -2
BITMAP
0000
0000
0000
0000
0000
0000
0000
07e0
0000
0000
0000
0000
0000
0000
0000
0000
ENDCHAR
STARTCHAR 237d
ENCODING 9085
SWIDTH 823 0
DWIDTH 16 0
BBX 16 16 0 -2
BITMAP
0000
0420
0420
0420
0420
0420
0420
7ffe
0420
0420
0420
0420
0420
0420
0000
0000
ENDCHAR
STARTCHAR 237e
ENCODING 9086
SWIDTH 823 0
DWIDTH 16 0
BBX 16 16 0 -2
BITMAP
0000
0490
0490
0490
0490
0490
0490
3ffe
0490
0490
0490
0490
0490
0490
0000
0000
ENDCHAR
STARTCHAR 2421
ENCODING 9249
SWIDTH 823 0
DWIDTH 16 0
BBX 16 16 0 -2
BITMAP
0000
0000
0000
0000
0000
0100
0160
0f80
0200
03e0
0650
0a48
1188
1108
0e10
0060
ENDCHAR
STARTCHAR 2422
ENCODING 9250
SWIDTH 823 0
DWIDTH 16 0
BBX 16 16 0 -2
BITMAP
0000
0100
0100
0160
1f80
0200
0220
03f8
0624
0a42
1282
2102
2204
1c08
0030
0000
ENDCHAR
STARTCHAR 2423
ENCODING 9251
SWIDTH 823 0
DWIDTH 16 0
BBX 16 16 0 -2
BITMAP
0000
0000
0000
0000
0000
0000
0000
1000
1020
1010
1010
1008
0808
0a00
0400
0000
ENDCHAR
STARTCHAR 2424
ENCODING 9252
SWIDTH 823 0
DWIDTH 16 0
BBX 16 16 0 -2
BITMAP
0000
0000
0000
1000
1000
1010
1008
1008
1004
1004
1004
0900
0a00
0400
0000
0000
ENDCHAR
STARTCHAR 2425
ENCODING 9253
SWIDTH 823 0
DWIDTH 16 0
BBX 16 16 0 -2
BITMAP
0000
0000
0000
0000
0000
0180
0060
0000
00e0
0310
0010
0010
0020
0020
0040
0080
ENDCHAR
STARTCHAR 2426
ENCODING 9254
SWIDTH 823 0
DWIDTH 16 0
BBX 16 16 0 -2
BITMAP
0000
0300
00e0
0000
0000
01e0
0e10
0010
0010
0010
0020
0020
0040
0080
0100
0000
ENDCHAR
STARTCHAR 2427
ENCODING 9255
SWIDTH 823 0
DWIDTH 16 0
BBX 16 16 0 -2
BITMAP
0000
0000
0000
0000
0000
0000
0300
00c0
0000
01c0
0640
0080
0180
0240
0440
0830
ENDCHAR
STARTCHAR 2428
ENCODING 9256
SWIDTH 823 0
DWIDTH 16 0
BBX 16 16 0 -2
BITMAP
0000
0300
00e0
0000
00e0
0f20
0040
0080
0100
0380
0440
0840
1040
203c
0000
0000
ENDCHAR
STARTCHAR 2429
ENCODING 9257
SWIDTH 823 0
DWIDTH 16 0
BBX 16 16 0 -2
BITMAP
0000
0000
0000
0000
0000
0000
0200
0390
0e08
0204
02e0
0310
0608
0a08
0a10
0660
ENDCHAR
STARTCHAR 242a
ENCODING 9258
SWIDTH 823 0
DWIDTH 16 0
BBX 16 16 0 -2
BITMAP
0000
0400
0400
0784
3c02
0401
0400
04f0
0708
0c04
1404
2404
2408
1830
0000
0000
ENDCHAR
STARTCHAR 242b
ENCODING 9259
SWIDTH 823 0
DWIDTH 16 0
BBX 16 16 0 -2
BITMAP
0000
0200
0200
0208
03c4
3e22
0221
0421
0420
0820
0820
1040
2240
0180
0000
0000
ENDCHAR
STARTCHAR 242c
ENCODING 9260
SWIDTH 823 0
DWIDTH 16 0
BBX 16 16 0 -2
BITMAP
0002
0205
0202
0208
03c4
3e22
0221
0421
0420
0820
0820
1040
2240
0180
0000
0000
ENDCHAR
STARTCHAR 242d
ENCODING 9261
SWIDTH 823 0
DWIDTH 16 0
BBX 16 16 0 -2
BITMAP
0100
0100
0160
0f80
0080
00b8
0fc0
0040
0020
07d0
0830
1000
1000
0c00
03c0
0000
ENDCHAR
STARTCHAR 242e
ENCODING 9262
SWIDTH 823 0
DWIDTH 16 0
BBX 16 16 0 -2
BITMAP
0100
0104
016a
0f84
0080
00b8
0fc0
0040
0020
07d0
0830
1000
1000
0c00
03c0
0000
ENDCHAR
STARTCHAR 242f
ENCODING 9263
SWIDTH 823 0
DWIDTH 16 0
BBX 16 16 0 -2
BITMAP
0000
0040
0040
0080
0080
0100
0200
0400
0200
0100
0080
0080
0040
0040
0040
0000
ENDCHAR
STARTCHAR 2430
ENCODING 9264
SWIDTH 823 0
DWIDTH 16 0
BBX 16 16 0 -2
BITMAP
0000
0040
0040
0088
0094
0108
0200
0400
0200
0100
0080
0080
0040
0040
0040
0000
ENDCHAR
STARTCHAR 2431
ENCODING 9265
SWIDTH 823 0
DWIDTH 16 0
BBX 16 16 0 -2
BITMAP
0000
0010
1010
1010
201e
23f0
2010
2010
2010
2010
2010
2820
1020
1040
0080
0000
ENDCHAR
STARTCHAR 2432
ENCODING 9266
SWIDTH 823 0
DWIDTH 16 0
BBX 16 16 0 -2
BITMAP
0002
0015
1012
1010
201e
23f0
2010
2010
2010
2010
2010
2820
1020
1040
0080
0000
ENDCHAR
STARTCHAR 2433
ENCODING 9267
SWIDTH 823 0
DWIDTH 16 0
BBX 16 16 0 -2
BITMAP
0000
0000
0700
00f0
0040
0080
0000
0000
0000
0800
1000
1000
0800
07f8
0000
0000
ENDCHAR
STARTCHAR 2434
ENCODING 9268
SWIDTH 823 0
DWIDTH 16 0
BBX 16 16 0 -2
BITMAP
0000
0002
0705
00f2
0040
0080
0000
0000
0000
0800
1000
1000
0800
07f8
0000
0000
ENDCHAR
STARTCHAR 2435
ENCODING 9269
SWIDTH 823 0
DWIDTH 16 0
BBX 16 16 0 -2
BITMAP
0000
0100
0100
00b8
1fc0
0040
0020
0020
07d0
0830
1000
1000
1000
0c00
03c0
0000
ENDCHAR
STARTCHAR 2436
ENCODING 9270
SWIDTH 823 0
DWIDTH 16 0
BBX 16 16 0 -2
BITMAP
0008
0114
0108
00b0
1fc0
0040
0020
0020
07d0
0830
1000
1000
1000
0c00
03c0
0000
ENDCHAR
STARTCHAR 2437
ENCODING 9271
SWIDTH 823 0
DWIDTH 16 0
BBX 16 16 0 -2
BITMAP
0000
0400
0400
0400
0400
0400
0400
0400
0400
0400
0404
0408
0230
01c0
0000
0000
ENDCHAR
STARTCHAR 2438
ENCODING 9272
SWIDTH 823 0
DWIDTH 16 0
BBX 16 16 0 -2
BITMAP
0000
0400
0420
0450
0420
0400
0400
0400
0400
0400
0404
0408
0230
01c0
0000
0000
ENDCHAR
STARTCHAR 2439
ENCODING 9273
SWIDTH 823 0
DWIDTH 16 0
BBX 16 16 0 -2
BITMAP
0000
0040
0040
3ffc
0040
0040
03c0
0440
0440
04c0
0340
0040
0080
0100
0600
0000
ENDCHAR
STARTCHAR 243a
ENCODING 9274
SWIDTH 823 0
DWIDTH 16 0
BBX 16 16 0 -2
BITMAP
0002
0045
0042
3ffc
0040
0040
03c0
0440
0440
04c0
0340
0040
0080
0100
0600
0000
ENDCHAR
STARTCHAR 243b
ENCODING 9275
SWIDTH 823 0
DWIDTH 16 0
BBX 16 16 0 -2
BITMAP
0000
0020
0820
0820
0820
09fe
7e20
0820
0820
08c0
0800
0800
0400
03f0
0000
0000
ENDCHAR
STARTCHAR 243c
ENCODING 9276
SWIDTH 823 0
DWIDTH 16 0
BBX 16 16 0 -2
BITMAP
0000
0022
0825
0822
0820
09fe
7e20
0820
0820
08c0
0800
0800
0400
03f0
0000
0000
ENDCHAR
STARTCHAR 243d
ENCODING 9277
SWIDTH 823 0
DWIDTH 16 0
BBX 16 16 0 -2
BITMAP
0000
0000
07e0
0040
0080
0100
023e
07c0
3880
0100
0200
0200
0200
0100
00f0
0000
ENDCHAR
STARTCHAR 243e
ENCODING 9278
SWIDTH 823 0
DWIDTH 16 0
BBX 16 16 0 -2
BITMAP
0000
0000
07e4
004a
0084
0100
023e
07c0
3880
0100
0200
0200
0200
0100
00f0
0000
ENDCHAR
STARTCHAR 243f
ENCODING 9279
SWIDTH 823 0
DWIDTH 16 0
BBX 16 16 0 -2
BITMAP
0000
0400
0400
0780
3c00
0400
047c
0808
0800
0800
1100
1100
2080
207e
0000
0000
ENDCHAR
STARTCHAR 2440
ENCODING 9280
SWIDTH 823 0
DWIDTH 16 0
BBX 16 16 0 -2
BITMAP
0000
0404
040a
0784
3c00
0400
047c
0808
0800
0800
1100
1100
2080
207e
0000
0000
ENDCHAR
STARTCHAR 2441
ENCODING 9281
SWIDTH 823 0
DWIDTH 16 0
BBX 16 16 0 -2
BITMAP
0000
0100
0100
0130
1fc0
0200
0200
0400
04f0
0b08
0c04
0004
0008
0030
01c0
0000
ENDCHAR
STARTCHAR 2442
ENCODING 9282
SWIDTH 823 0
DWIDTH 16 0
BBX 16 16 0 -2
BITMAP
0000
0102
0105
0132
1fc0
0200
0200
0400
04f0
0b08
0c04
0004
0008
0030
01c0
0000
ENDCHAR
STARTCHAR 2443
ENCODING 9283
SWIDTH 823 0
DWIDTH 16 0
BBX 16 16 0 -2
BITMAP
0000
0000
0000
0000
0000
0000
0000
01e0
1e10
0008
0008
0008
0010
0060
0180
0000
ENDCHAR
STARTCHAR 2444
ENCODING 9284
SWIDTH 823 0
DWIDTH 16 0
BBX 16 16 0 -2
BITMAP
0000
0000
0000
0000
01f0
7e08
0004
0002
0002
0002
0004
0008
0030
00c0
0000
0000
ENDCHAR
STARTCHAR 2445
ENCODING 9285
SWIDTH 823 0
DWIDTH 16 0
BBX 16 16 0 -2
BITMAP
0000
0002
0005
0002
01f0
7e08
0004
0002
0002
0002
0004
0008
0030
00c0
0000
0000
ENDCHAR
STARTCHAR 2446
ENCODING 9286
SWIDTH 823 0
DWIDTH 16 0
BBX 16 16 0 -2
BITMAP
0000
0000
003c
3fc0
0080
0100
0100
0200
0200
0200
0200
0100
0080
0070
0000
0000
ENDCHAR
STARTCHAR 2447
ENCODING 9287
SWIDTH 823 0
DWIDTH 16 0
BBX 16 16 0 -2
BITMAP
0000
0000
003c
3fc0
0088
0114
0108
0200
0200
0200
0200
0100
0080
0070
0000
0000
ENDCHAR
STARTCHAR 2448
ENCODING 9288
SWIDTH 823 0
DWIDTH 16 0
BBX 16 16 0 -2
BITMAP
0000
0200
0200
0200
0200
0210
0160
0180
0200
0400
0800
0800
0400
03f0
0000
0000
ENDCHAR
STARTCHAR 2449
ENCODING 9289
SWIDTH 823 0
DWIDTH 16 0
BBX 16 16 0 -2
BITMAP
0000
0200
0204
020a
0204
0210
0160
0180
0200
0400
0800
0800
0400
03f0
0000
0000
ENDCHAR
STARTCHAR 244a
ENCODING 9290
SWIDTH 823 0
DWIDTH 16 0
BBX 16 16 0 -2
BITMAP
0000
0400
0400
0788
3c04
0402
0820
0820
1020
2020
0020
01e0
0238
0224
01c0
0000
ENDCHAR
STARTCHAR 244b
ENCODING 9291
SWIDTH 823 0
DWIDTH 16 0
BBX 16 16 0 -2
BITMAP
0000
0000
0800
08f8
1010
1000
1000
1000
1000
1000
1080
1480
087c
0800
0000
0000
ENDCHAR
STARTCHAR 244c
ENCODING 9292
SWIDTH 823 0
DWIDTH 16 0
BBX 16 16 0 -2
BITMAP
0000
0100
1100
1100
13f0
1d08
1104
2904
2a04
4604
4204
4474
388c
0072
0000
0000
ENDCHAR
STARTCHAR 244d
ENCODING 9293
SWIDTH 823 0
DWIDTH 16 0
BBX 16 16 0 -2
BITMAP
0000
0800
0800
0800
0870
7988
0a04
0c04
1804
2804
4804
0878
088c
0872
0800
0000
ENDCHAR
STARTCHAR 244e
ENCODING 9294
SWIDTH 823 0
DWIDTH 16 0
BBX 16 16 0 -2
BITMAP
0000
0000
0000
01e0
0698
0884
1084
1082
2102
2102
2204
1204
0c18
0060
0000
0000
ENDCHAR
STARTCHAR 244f
ENCODING 9295
SWIDTH 823 0
DWIDTH 16 0
BBX 16 16 0 -2
BITMAP
0000
1010
1010
1010
21fe
2010
2010
2010
2010
2010
2010
20f0
291c
1112
10e0
0000
ENDCHAR
STARTCHAR 2450
ENCODING 9296
SWIDTH 823 0
DWIDTH 16 0
BBX 16 16 0 -2
BITMAP
0002
1015
1012
1010
21fe
2010
2010
2010
2010
2010
2010
20f0
291c
1112
10e0
0000
ENDCHAR
STARTCHAR 2451
ENCODING 9297
SWIDTH 823 0
DWIDTH 16 0
BBX 16 16 0 -2
BITMAP
0006
2029
2029
2026
43f8
4020
4020
4020
4020
4020
4020
41e0
5238
2224
21c0
0000
ENDCHAR
STARTCHAR 2452
ENCODING 9298
SWIDTH 823 0
DWIDTH 16 0
BBX 16 16 0 -2
BITMAP
0000
0000
0700
3a10
0418
0414
0812
0810
1010
1010
1010
1020
1020
0840
0780
0000
ENDCHAR
STARTCHAR 2453
ENCODING 9299
SWIDTH 823 0
DWIDTH 16 0
BBX 16 16 0 -2
BITMAP
0002
0005
0702
3a10
0418
0414
0812
0810
1010
1010
1010
1020
1020
0840
0780
0000
ENDCHAR
STARTCHAR 2454
ENCODING 9300
SWIDTH 823 0
DWIDTH 16 0
BBX 16 16 0 -2
BITMAP
0006
0009
0709
3a16
0418
0414
0812
0810
1010
1010
1010
1020
1020
0840
0780
0000
ENDCHAR
STARTCHAR 2455
ENCODING 9301
SWIDTH 823 0
DWIDTH 16 0
BBX 16 16 0 -2
BITMAP
0000
0100
0080
0040
0040
0080
0100
0100
0080
0048
0824
1022
2441
4381
0000
0000
ENDCHAR
STARTCHAR 2456
ENCODING 9302
SWIDTH 823 0
DWIDTH 16 0
BBX 16 16 0 -2
BITMAP
0000
0100
0080
0040
0048
0094
0108
0100
0080
0048
0824
1022
2441
4381
0000
0000
ENDCHAR
STARTCHAR 2457
ENCODING 9303
SWIDTH 823 0
DWIDTH 16 0
BBX 16 16 0 -2
BITMAP
0000
0100
0080
004c
0052
0092
010c
0100
0080
0048
0824
1022
2441
4381
0000
0000
ENDCHAR
STARTCHAR 2458
ENCODING 9304
SWIDTH 823 0
DWIDTH 16 0
BBX 16 16 0 -2
BITMAP
0000
0000
0000
0000
0000
0600
0900
1080
6040
0020
0018
0006
0000
0000
0000
0000
ENDCHAR
STARTCHAR 2459
ENCODING 9305
SWIDTH 823 0
DWIDTH 16 0
BBX 16 16 0 -2
BITMAP
0000
0000
0000
0010
0028
0610
0900
1080
6040
0020
0018
0006
0000
0000
0000
0000
ENDCHAR
STARTCHAR 245a
ENCODING 9306
SWIDTH 823 0
DWIDTH 16 0
BBX 16 16 0 -2
BITMAP
0000
0000
0000
0030
0048
0648
0930
1080
6040
0020
0018
0006
0000
0000
0000
0000
ENDCHAR
STARTCHAR 245b
ENCODING 9307
SWIDTH 823 0
DWIDTH 16 0
BBX 16 16 0 -2
BITMAP
0000
1000
11fc
1010
2010
2010
21fc
2010
2010
2010
2010
20f0
291c
1112
10e0
0000
ENDCHAR
STARTCHAR 245c
ENCODING 9308
SWIDTH 823 0
DWIDTH 16 0
BBX 16 16 0 -2
BITMAP
0002
1005
11fa
1010
2010
2010
21fc
2010
2010
2010
2010
20f0
291c
1112
10e0
0000
ENDCHAR
STARTCHAR 245d
ENCODING 9309
SWIDTH 823 0
DWIDTH 16 0
BBX 16 16 0 -2
BITMAP
0006
1009
11f9
1016
2010
2010
21fc
2010
2010
2010
2010
20f0
291c
1112
10e0
0000
ENDCHAR
STARTCHAR 245e
ENCODING 9310
SWIDTH 823 0
DWIDTH 16 0
BBX 16 16 0 -2
BITMAP
0000
0080
0080
1ff8
0080
0080
0080
0ff0
0080
0080
0080
0fc0
10b0
1088
0f00
0000
ENDCHAR
STARTCHAR 245f
ENCODING 9311
SWIDTH 823 0
DWIDTH 16 0
BBX 16 16 0 -2
BITMAP
0000
0000
0f80
0080
0080
0088
0108
0108
07f8
1a0e
2211
2410
1820
0040
0080
0000
ENDCHAR
STARTCHAR 2460
ENCODING 9312
SWIDTH 823 0
DWIDTH 16 0
BBX 16 16 0 -2
BITMAP
0000
0200
0200
03c8
3e04
0202
0200
0e00
1200
1200
1400
0c04
0404
0404
03f8
0000
ENDCHAR
STARTCHAR 2461
ENCODING 9313
SWIDTH 823 0
DWIDTH 16 0
BBX 16 16 0 -2
BITMAP
0000
0040
0840
0840
0be0
0c58
0884
1884
2502
2502
4202
4204
2504
1818
0060
0000
ENDCHAR
STARTCHAR 2462
ENCODING 9314
SWIDTH 823 0
DWIDTH 16 0
BBX 16 16 0 -2
BITMAP
0000
0200
0200
0200
1f80
0200
0200
0210
1f88
0408
0408
0408
0408
0210
01e0
0000
ENDCHAR
STARTCHAR 2463
ENCODING 9315
SWIDTH 823 0
DWIDTH 16 0
BBX 16 16 0 -2
BITMAP
0000
0000
0000
0000
0000
0000
0100
08f0
0588
0608
1a08
0270
0100
0100
0080
0080
ENDCHAR
STARTCHAR 2464
ENCODING 9316
SWIDTH 823 0
DWIDTH 16 0
BBX 16 16 0 -2
BITMAP
0000
0100
0080
1040
1078
0984
0602
1c02
6204
0218
0100
0100
0080
0080
0080
0000
ENDCHAR
STARTCHAR 2465
ENCODING 9317
SWIDTH 823 0
DWIDTH 16 0
BBX 16 16 0 -2
BITMAP
0000
0000
0000
0000
0000
0080
0040
09e0
0a50
1448
1448
0850
09e0
0080
0080
0100
ENDCHAR
STARTCHAR 2466
ENCODING 9318
SWIDTH 823 0
DWIDTH 16 0
BBX 16 16 0 -2
BITMAP
0000
0080
0040
1040
10f8
2344
2442
2842
3042
2242
1144
10f8
0040
0080
0100
0000
ENDCHAR
STARTCHAR 2467
ENCODING 9319
SWIDTH 823 0
DWIDTH 16 0
BBX 16 16 0 -2
BITMAP
0000
0000
0000
0000
0000
0080
0080
00f0
0080
0080
0080
0780
08e0
0890
0700
0000
ENDCHAR
STARTCHAR 2468
ENCODING 9320
SWIDTH 823 0
DWIDTH 16 0
BBX 16 16 0 -2
BITMAP
0000
0080
0080
0080
00f8
0080
0080
0080
0080
0080
0080
0fc0
10b0
1088
0f00
0000
ENDCHAR
STARTCHAR 2469
ENCODING 9321
SWIDTH 823 0
DWIDTH 16 0
BBX 16 16 0 -2
BITMAP
0000
0180
0060
0000
0400
0400
0400
0400
09f0
0e08
0804
0004
0008
0030
03c0
0000
ENDCHAR
STARTCHAR 246a
ENCODING 9322
SWIDTH 823 0
DWIDTH 16 0
BBX 16 16 0 -2
BITMAP
0000
0010
0810
0810
0810
0810
0810
0a10
0c10
0410
0010
0020
0020
0040
0180
0000
ENDCHAR
STARTCHAR 246b
ENCODING 9323
SWIDTH 823 0
DWIDTH 16 0
BBX 16 16 0 -2
BITMAP
0000
0000
07f0
0020
0040
0080
0100
02f0
0708
0804
1004
0184
0248
0230
01e0
0000
ENDCHAR
STARTCHAR 246c
ENCODING 9324
SWIDTH 823 0
DWIDTH 16 0
BBX 16 16 0 -2
BITMAP
0000
0800
0800
0800
08e0
7d10
0a10
0c10
1810
1810
2810
4810
0812
080c
0800
0000
ENDCHAR
STARTCHAR 246d
ENCODING 9325
SWIDTH 823 0
DWIDTH 16 0
BBX 16 16 0 -2
BITMAP
0000
0000
07f0
0020
0040
0080
0100
02f0
0708
0804
1004
0004
0008
0030
01c0
0000
ENDCHAR
STARTCHAR 246e
ENCODING 9326
SWIDTH 823 0
DWIDTH 16 0
BBX 16 16 0 -2
BITMAP
0000
0000
0000
0000
0000
0000
0200
0200
1e70
0288
0304
0204
0604
0a04
1208
0210
ENDCHAR
STARTCHAR 246f
ENCODING 9327
SWIDTH 823 0
DWIDTH 16 0
BBX 16 16 0 -2
BITMAP
0000
0400
0400
0400
3e00
04f8
0504
0602
0402
0c02
1402
2404
0408
0430
0400
0000
ENDCHAR
STARTCHAR 2470
ENCODING 9328
SWIDTH 823 0
DWIDTH 16 0
BBX 16 16 0 -2
BITMAP
0000
0380
0c80
0080
0100
0100
03e0
0e18
1204
2204
2404
24c8
2528
18f0
0000
0000
ENDCHAR
STARTCHAR 2471
ENCODING 9329
SWIDTH 823 0
DWIDTH 16 0
BBX 16 16 0 -2
BITMAP
0000
07e0
0040
0080
01e0
0610
0808
0388
0450
03e0
0c04
1202
2121
40c1
0000
0000
ENDCHAR
STARTCHAR 2472
ENCODING 9330
SWIDTH 823 0
DWIDTH 16 0
BBX 16 16 0 -2
BITMAP
0100
0100
0160
1f80
0200
0200
0780
084c
1070
01c0
0240
0400
0400
03f0
0000
0000
ENDCHAR
STARTCHAR 2473
ENCODING 9331
SWIDTH 823 0
DWIDTH 16 0
BBX 16 16 0 -2
BITMAP
0000
0100
0100
0100
0200
0200
0200
0400
0580
0640
0840
0842
1044
1038
0000
0000
ENDCHAR
STARTCHAR 2474
ENCODING 9332
SWIDTH 823 0
DWIDTH 16 0
BBX 16 16 0 -2
BITMAP
0000
0304
00ea
0004
0000
03e0
0c10
0010
0010
0010
0020
0020
0040
0080
0100
0000
ENDCHAR
STARTCHAR 2475
ENCODING 9333
SWIDTH 823 0
DWIDTH 16 0
BBX 16 16 0 -2
BITMAP
0000
0000
0000
0000
0000
0200
0200
0200
0390
1e48
0244
0444
0440
0840
1080
0300
ENDCHAR
STARTCHAR 2476
ENCODING 9334
SWIDTH 823 0
DWIDTH 16 0
BBX 16 16 0 -2
BITMAP
0000
0000
0000
0000
0000
0010
0410
0410
08fc
0810
0810
0810
0810
0a10
0420
00c0
ENDCHAR
STARTCHAR 2477
ENCODING 9335
SWIDTH 823 0
DWIDTH 16 0
BBX 16 16 0 -2
BITMAP
0006
0209
0209
0206
03c8
3e24
0222
0421
0420
0820
0820
1040
2240
0180
0000
0000
ENDCHAR
STARTCHAR 2478
ENCODING 9336
SWIDTH 823 0
DWIDTH 16 0
BBX 16 16 0 -2
BITMAP
010c
0112
0172
0f8c
0080
00b8
0fc0
0040
0020
07d0
0830
1000
1000
0c00
03c0
0000
ENDCHAR
STARTCHAR 2479
ENCODING 9337
SWIDTH 823 0
DWIDTH 16 0
BBX 16 16 0 -2
BITMAP
0000
0040
004c
0092
0092
010c
0200
0400
0200
0100
0080
0080
0040
0040
0040
0000
ENDCHAR
STARTCHAR 247a
ENCODING 9338
SWIDTH 823 0
DWIDTH 16 0
BBX 16 16 0 -2
BITMAP
0000
0012
2015
2015
2012
23fc
2010
2010
2010
2010
2010
2820
1020
1040
0080
0000
ENDCHAR
STARTCHAR 247b
ENCODING 9339
SWIDTH 823 0
DWIDTH 16 0
BBX 16 16 0 -2
BITMAP
0000
0006
0609
01e9
0046
0080
0000
0000
0000
0800
1000
1000
0800
07f8
0000
0000
ENDCHAR
STARTCHAR 2521
ENCODING 9505
SWIDTH 823 0
DWIDTH 16 0
BBX 16 16 0 -2
BITMAP
0000
0000
0000
0000
0000
0000
0000
0000
0fe0
0020
0140
0100
0100
0100
0200
0400
ENDCHAR
STARTCHAR 2522
ENCODING 9506
SWIDTH 823 0
DWIDTH 16 0
BBX 16 16 0 -2
BITMAP
0000
0000
0000
1ffc
0004
0088
0090
0080
0080
0080
0100
0100
0200
0400
0000
0000
ENDCHAR
STARTCHAR 2523
ENCODING 9507
SWIDTH 823 0
DWIDTH 16 0
BBX 16 16 0 -2
BITMAP
0000
0000
0000
0000
0000
0000
0020
0020
0040
0180
0e80
0080
0080
0080
0080
0080
ENDCHAR
STARTCHAR 2524
ENCODING 9508
SWIDTH 823 0
DWIDTH 16 0
BBX 16 16 0 -2
BITMAP
0000
0000
0010
0010
0020
0040
0080
0180
0680
1880
0080
0080
0080
0080
0080
0000
ENDCHAR
STARTCHAR 2525
ENCODING 9509
SWIDTH 823 0
DWIDTH 16 0
BBX 16 16 0 -2
BITMAP
0000
0000
0000
0000
0080
0080
0080
0ff8
0808
0808
0008
0010
0010
0060
0180
0000
ENDCHAR
STARTCHAR 2526
ENCODING 9510
SWIDTH 823 0
DWIDTH 16 0
BBX 16 16 0 -2
BITMAP
0000
0080
0080
0080
1ffc
1004
1004
1004
0004
0008
0008
0010
0060
0180
0000
0000
ENDCHAR
STARTCHAR 2527
ENCODING 9511
SWIDTH 823 0
DWIDTH 16 0
BBX 16 16 0 -2
BITMAP
0000
0000
0000
0000
0000
0000
0000
0000
0000
07f0
0080
0080
0080
0080
0ff8
0000
ENDCHAR
STARTCHAR 2528
ENCODING 9512
SWIDTH 823 0
DWIDTH 16 0
BBX 16 16 0 -2
BITMAP
0000
0000
0000
0000
0ff8
0080
0080
0080
0080
0080
0080
0080
3ffe
0000
0000
0000
ENDCHAR
STARTCHAR 2529
ENCODING 9513
SWIDTH 823 0
DWIDTH 16 0
BBX 16 16 0 -2
BITMAP
0000
0000
0000
0000
0000
0000
0020
0020
07f8
0020
0060
00a0
0120
0620
0020
0060
ENDCHAR
STARTCHAR 252a
ENCODING 9514
SWIDTH 823 0
DWIDTH 16 0
BBX 16 16 0 -2
BITMAP
0000
0020
0020
0020
3ffe
0020
0060
00a0
0120
0220
0c20
3020
0020
00e0
0000
0000
ENDCHAR
STARTCHAR 252b
ENCODING 9515
SWIDTH 823 0
DWIDTH 16 0
BBX 16 16 0 -2
BITMAP
0100
0100
0100
0100
3ffc
0104
0104
0204
0204
0404
0404
0808
1008
2070
0000
0000
ENDCHAR
STARTCHAR 252c
ENCODING 9516
SWIDTH 823 0
DWIDTH 16 0
BBX 16 16 0 -2
BITMAP
0102
0105
0102
0100
3ffc
0104
0104
0204
0204
0404
0404
0808
1008
2070
0000
0000
ENDCHAR
STARTCHAR 252d
ENCODING 9517
SWIDTH 823 0
DWIDTH 16 0
BBX 16 16 0 -2
BITMAP
0000
0100
0100
0100
00f8
1f80
0080
0080
00fe
3f80
0040
0040
0040
0040
0040
0000
ENDCHAR
STARTCHAR 252e
ENCODING 9518
SWIDTH 823 0
DWIDTH 16 0
BBX 16 16 0 -2
BITMAP
0000
0104
010a
0104
00f8
1f80
0080
0080
00fe
3f80
0040
0040
0040
0040
0040
0000
ENDCHAR
STARTCHAR 252f
ENCODING 9519
SWIDTH 823 0
DWIDTH 16 0
BBX 16 16 0 -2
BITMAP
0000
0100
0100
01f8
0208
0208
0410
0810
0020
0020
0040
0080
0300
0c00
0000
0000
ENDCHAR
STARTCHAR 2530
ENCODING 9520
SWIDTH 823 0
DWIDTH 16 0
BBX 16 16 0 -2
BITMAP
0002
0105
0102
01f8
0208
0208
0410
0810
0020
0020
0040
0080
0300
0c00
0000
0000
ENDCHAR
STARTCHAR 2531
ENCODING 9521
SWIDTH 823 0
DWIDTH 16 0
BBX 16 16 0 -2
BITMAP
0000
0200
0200
0200
0400
07fe
0810
1010
2010
0020
0020
0040
0080
0300
0000
0000
ENDCHAR
STARTCHAR 2532
ENCODING 9522
SWIDTH 823 0
DWIDTH 16 0
BBX 16 16 0 -2
BITMAP
0000
0202
0205
0202
0400
07fe
0810
1010
2010
0020
0020
0040
0080
0300
0000
0000
ENDCHAR
STARTCHAR 2533
ENCODING 9523
SWIDTH 823 0
DWIDTH 16 0
BBX 16 16 0 -2
BITMAP
0000
0000
0000
0000
1ff8
0008
0008
0008
0008
0008
0008
0008
1ff8
0008
0000
0000
ENDCHAR
STARTCHAR 2534
ENCODING 9524
SWIDTH 823 0
DWIDTH 16 0
BBX 16 16 0 -2
BITMAP
0000
0002
0005
0002
1ff8
0008
0008
0008
0008
0008
0008
0008
1ff8
0008
0000
0000
ENDCHAR
STARTCHAR 2535
ENCODING 9525
SWIDTH 823 0
DWIDTH 16 0
BBX 16 16 0 -2
BITMAP
0000
0010
0410
0410
0410
3ffe
0410
0410
0410
0410
0010
0020
0020
0040
0180
0000
ENDCHAR
STARTCHAR 2536
ENCODING 9526
SWIDTH 823 0
DWIDTH 16 0
BBX 16 16 0 -2
BITMAP
0002
0015
0412
0410
0410
3ffe
0410
0410
0410
0410
0010
0020
0020
0040
0180
0000
ENDCHAR
STARTCHAR 2537
ENCODING 9527
SWIDTH 823 0
DWIDTH 16 0
BBX 16 16 0 -2
BITMAP
0000
0000
0800
0600
0000
0000
1000
0c04
0008
0010
0020
0040
0180
0e00
0000
0000
ENDCHAR
STARTCHAR 2538
ENCODING 9528
SWIDTH 823 0
DWIDTH 16 0
BBX 16 16 0 -2
BITMAP
0000
0008
0c14
0208
0000
0000
1800
0404
0008
0010
0020
0040
0180
0e00
0000
0000
ENDCHAR
STARTCHAR 2539
ENCODING 9529
SWIDTH 823 0
DWIDTH 16 0
BBX 16 16 0 -2
BITMAP
0000
0000
0000
0ff0
0010
0010
0020
0020
0040
00a0
0110
0208
0404
1804
0000
0000
ENDCHAR
STARTCHAR 253a
ENCODING 9530
SWIDTH 823 0
DWIDTH 16 0
BBX 16 16 0 -2
BITMAP
0000
0002
0005
0ff2
0010
0010
0020
0020
0040
00a0
0110
0208
0404
1804
0000
0000
ENDCHAR
STARTCHAR 253b
ENCODING 9531
SWIDTH 823 0
DWIDTH 16 0
BBX 16 16 0 -2
BITMAP
0000
0400
0400
0400
0478
078c
3c10
0420
0440
0400
0400
0400
03f0
0000
0000
0000
ENDCHAR
STARTCHAR 253c
ENCODING 9532
SWIDTH 823 0
DWIDTH 16 0
BBX 16 16 0 -2
BITMAP
0000
0402
0405
0402
0478
078c
3c10
0420
0440
0400
0400
0400
03f0
0000
0000
0000
ENDCHAR
STARTCHAR 253d
ENCODING 9533
SWIDTH 823 0
DWIDTH 16 0
BBX 16 16 0 -2
BITMAP
0000
0000
1008
1008
0808
0808
0410
0010
0020
0020
0040
0080
0100
0200
0000
0000
ENDCHAR
STARTCHAR 253e
ENCODING 9534
SWIDTH 823 0
DWIDTH 16 0
BBX 16 16 0 -2
BITMAP
0002
0005
1002
1008
0808
0808
0410
0010
0020
0020
0040
0080
0100
0200
0000
0000
ENDCHAR
STARTCHAR 253f
ENCODING 9535
SWIDTH 823 0
DWIDTH 16 0
BBX 16 16 0 -2
BITMAP
0000
0100
0100
01f8
0208
0208
0410
0b10
00e0
0020
0050
0080
0300
0c00
0000
0000
ENDCHAR
STARTCHAR 2540
ENCODING 9536
SWIDTH 823 0
DWIDTH 16 0
BBX 16 16 0 -2
BITMAP
0002
0105
0102
01f8
0208
0208
0410
0b10
00e0
0020
0050
0080
0300
0c00
0000
0000
ENDCHAR
STARTCHAR 2541
ENCODING 9537
SWIDTH 823 0
DWIDTH 16 0
BBX 16 16 0 -2
BITMAP
0000
0010
00e0
1f00
0080
0080
0080
7ffe
0080
0080
0080
0100
0100
0200
0400
0000
ENDCHAR
STARTCHAR 2542
ENCODING 9538
SWIDTH 823 0
DWIDTH 16 0
BBX 16 16 0 -2
BITMAP
0000
0010
00e4
1f0a
0084
0080
0080
7ffe
0080
0080
0080
0100
0100
0200
0400
0000
ENDCHAR
STARTCHAR 2543
ENCODING 9539
SWIDTH 823 0
DWIDTH 16 0
BBX 16 16 0 -2
BITMAP
0000
0000
0000
0000
0000
0000
0000
0000
0100
0888
0488
0410
0010
0020
0040
0080
ENDCHAR
STARTCHAR 2544
ENCODING 9540
SWIDTH 823 0
DWIDTH 16 0
BBX 16 16 0 -2
BITMAP
0000
0000
0200
0200
2104
1104
1008
0008
0010
0010
0020
0040
0080
0100
0200
0000
ENDCHAR
STARTCHAR 2545
ENCODING 9541
SWIDTH 823 0
DWIDTH 16 0
BBX 16 16 0 -2
BITMAP
0002
0005
0202
0200
2104
1104
1008
0008
0010
0010
0020
0040
0080
0100
0200
0000
ENDCHAR
STARTCHAR 2546
ENCODING 9542
SWIDTH 823 0
DWIDTH 16 0
BBX 16 16 0 -2
BITMAP
0000
0000
0ff8
0000
0000
0000
3ffe
0040
0040
0040
0080
0080
0100
0600
0000
0000
ENDCHAR
STARTCHAR 2547
ENCODING 9543
SWIDTH 823 0
DWIDTH 16 0
BBX 16 16 0 -2
BITMAP
0002
0005
0ff2
0000
0000
0000
3ffe
0040
0040
0040
0080
0080
0100
0600
0000
0000
ENDCHAR
STARTCHAR 2548
ENCODING 9544
SWIDTH 823 0
DWIDTH 16 0
BBX 16 16 0 -2
BITMAP
0000
0200
0200
0200
0200
0200
03c0
0230
0208
0200
0200
0200
0200
0200
0200
0000
ENDCHAR
STARTCHAR 2549
ENCODING 9545
SWIDTH 823 0
DWIDTH 16 0
BBX 16 16 0 -2
BITMAP
0000
0200
0208
0214
0208
0200
03c0
0230
0208
0200
0200
0200
0200
0200
0200
0000
ENDCHAR
STARTCHAR 254a
ENCODING 9546
SWIDTH 823 0
DWIDTH 16 0
BBX 16 16 0 -2
BITMAP
0000
0080
0080
0080
0080
3ffc
0080
0080
0080
0080
0100
0100
0200
0400
0800
0000
ENDCHAR
STARTCHAR 254b
ENCODING 9547
SWIDTH 823 0
DWIDTH 16 0
BBX 16 16 0 -2
BITMAP
0000
0000
0000
0000
0ff8
0000
0000
0000
0000
0000
0000
3ffe
0000
0000
0000
0000
ENDCHAR
STARTCHAR 254c
ENCODING 9548
SWIDTH 823 0
DWIDTH 16 0
BBX 16 16 0 -2
BITMAP
0000
0000
0000
0ff0
0010
0010
0020
0220
0140
0080
0140
0220
0410
1808
0000
0000
ENDCHAR
STARTCHAR 254d
ENCODING 9549
SWIDTH 823 0
DWIDTH 16 0
BBX 16 16 0 -2
BITMAP
0000
0080
0080
0080
0ff0
0010
0060
0080
0398
0c84
3082
0080
0080
0080
0080
0000
ENDCHAR
STARTCHAR 254e
ENCODING 9550
SWIDTH 823 0
DWIDTH 16 0
BBX 16 16 0 -2
BITMAP
0000
0000
0010
0010
0010
0010
0020
0020
0040
0040
0080
0100
0600
1800
0000
0000
ENDCHAR
STARTCHAR 254f
ENCODING 9551
SWIDTH 823 0
DWIDTH 16 0
BBX 16 16 0 -2
BITMAP
0000
0000
0000
0000
0400
0440
0420
0810
0808
1004
1004
2002
4002
0000
0000
0000
ENDCHAR
STARTCHAR 2550
ENCODING 9552
SWIDTH 823 0
DWIDTH 16 0
BBX 16 16 0 -2
BITMAP
0000
0000
0004
000a
0404
0440
0420
0810
0808
1004
1004
2002
4002
0000
0000
0000
ENDCHAR
STARTCHAR 2551
ENCODING 9553
SWIDTH 823 0
DWIDTH 16 0
BBX 16 16 0 -2
BITMAP
0000
0000
000c
0012
0412
044c
0420
0810
0808
1004
1004
2002
4002
0000
0000
0000
ENDCHAR
STARTCHAR 2552
ENCODING 9554
SWIDTH 823 0
DWIDTH 16 0
BBX 16 16 0 -2
BITMAP
0000
0000
0800
0800
0808
0830
08c0
0f00
0800
0800
0800
0800
0800
07f8
0000
0000
ENDCHAR
STARTCHAR 2553
ENCODING 9555
SWIDTH 823 0
DWIDTH 16 0
BBX 16 16 0 -2
BITMAP
0000
0008
0814
0808
0800
0810
08e0
0f00
0800
0800
0800
0800
0800
07f0
0000
0000
ENDCHAR
STARTCHAR 2554
ENCODING 9556
SWIDTH 823 0
DWIDTH 16 0
BBX 16 16 0 -2
BITMAP
0000
0018
0824
0824
0818
0810
08e0
0f00
0800
0800
0800
0800
0800
07f0
0000
0000
ENDCHAR
STARTCHAR 2555
ENCODING 9557
SWIDTH 823 0
DWIDTH 16 0
BBX 16 16 0 -2
BITMAP
0000
0000
0000
1ffc
0004
0004
0004
0008
0008
0010
0020
0040
0180
0600
0000
0000
ENDCHAR
STARTCHAR 2556
ENCODING 9558
SWIDTH 823 0
DWIDTH 16 0
BBX 16 16 0 -2
BITMAP
0002
0005
0002
1ffc
0004
0004
0004
0008
0008
0010
0020
0040
0180
0600
0000
0000
ENDCHAR
STARTCHAR 2557
ENCODING 9559
SWIDTH 823 0
DWIDTH 16 0
BBX 16 16 0 -2
BITMAP
0006
0009
0009
1ffe
0004
0004
0004
0008
0008
0010
0020
0040
0180
0600
0000
0000
ENDCHAR
STARTCHAR 2558
ENCODING 9560
SWIDTH 823 0
DWIDTH 16 0
BBX 16 16 0 -2
BITMAP
0000
0000
0000
0000
0000
0600
0900
1080
2040
4020
0018
0006
0000
0000
0000
0000
ENDCHAR
STARTCHAR 2559
ENCODING 9561
SWIDTH 823 0
DWIDTH 16 0
BBX 16 16 0 -2
BITMAP
0000
0000
0000
0000
0010
0628
0910
1080
2040
4020
0018
0006
0000
0000
0000
0000
ENDCHAR
STARTCHAR 255a
ENCODING 9562
SWIDTH 823 0
DWIDTH 16 0
BBX 16 16 0 -2
BITMAP
0000
0000
0000
0030
0048
0648
0930
1080
2040
4020
0018
0006
0000
0000
0000
0000
ENDCHAR
STARTCHAR 255b
ENCODING 9563
SWIDTH 823 0
DWIDTH 16 0
BBX 16 16 0 -2
BITMAP
0000
0080
0080
0080
1ffc
0080
0080
0080
0888
0884
1082
2082
0080
0380
0000
0000
ENDCHAR
STARTCHAR 255c
ENCODING 9564
SWIDTH 823 0
DWIDTH 16 0
BBX 16 16 0 -2
BITMAP
0000
0082
0085
0082
1ffc
0080
0080
0080
0888
0884
1082
2082
0080
0380
0000
0000
ENDCHAR
STARTCHAR 255d
ENCODING 9565
SWIDTH 823 0
DWIDTH 16 0
BBX 16 16 0 -2
BITMAP
0006
0089
0089
0086
1ff8
0080
0080
0080
0888
0884
1082
2082
0080
0380
0000
0000
ENDCHAR
STARTCHAR 255e
ENCODING 9566
SWIDTH 823 0
DWIDTH 16 0
BBX 16 16 0 -2
BITMAP
0000
0000
0000
3ffc
0004
0008
0008
0010
0c20
0340
0080
0040
0020
0000
0000
0000
ENDCHAR
STARTCHAR 255f
ENCODING 9567
SWIDTH 823 0
DWIDTH 16 0
BBX 16 16 0 -2
BITMAP
0000
0000
0380
0060
0010
0000
0300
00c0
0020
0000
0000
0e00
0180
0060
0010
0000
ENDCHAR
STARTCHAR 2560
ENCODING 9568
SWIDTH 823 0
DWIDTH 16 0
BBX 16 16 0 -2
BITMAP
0000
0000
0000
0000
0000
0000
0000
0000
0000
0000
0000
0000
0000
0000
0000
0000
ENDCHAR
STARTCHAR 2560
ENCODING 9568
SWIDTH 823 0
DWIDTH 16 0
BBX 16 16 0 -2
BITMAP
0000
0000
0200
0200
0200
0200
0200
0200
0420
0410
0408
0838
09c4
3e04
0000
0000
ENDCHAR
STARTCHAR 2561
ENCODING 9569
SWIDTH 823 0
DWIDTH 16 0
BBX 16 16 0 -2
BITMAP
0000
0000
0008
0008
0008
0010
0310
00a0
0060
0050
0088
0100
0600
1800
0000
0000
ENDCHAR
STARTCHAR 2562
ENCODING 9570
SWIDTH 823 0
DWIDTH 16 0
BBX 16 16 0 -2
BITMAP
0000
0000
0000
1ff0
0200
0200
0200
3ffc
0200
0200
0200
0200
0200
01f0
0000
0000
ENDCHAR
STARTCHAR 2563
ENCODING 9571
SWIDTH 823 0
DWIDTH 16 0
BBX 16 16 0 -2
BITMAP
0000
0000
0000
0000
0000
0400
0400
0238
03c8
1e10
0120
0100
0100
0080
0080
0080
ENDCHAR
STARTCHAR 2564
ENCODING 9572
SWIDTH 823 0
DWIDTH 16 0
BBX 16 16 0 -2
BITMAP
0000
0000
0800
0800
041c
04e2
0704
3a08
0210
0100
0100
0100
0080
0080
0080
0000
ENDCHAR
STARTCHAR 2565
ENCODING 9573
SWIDTH 823 0
DWIDTH 16 0
BBX 16 16 0 -2
BITMAP
0000
0000
0000
0000
0000
0000
0000
0000
07c0
0040
0040
0040
0080
0080
1ff8
0000
ENDCHAR
STARTCHAR 2566
ENCODING 9574
SWIDTH 823 0
DWIDTH 16 0
BBX 16 16 0 -2
BITMAP
0000
0000
0000
0000
0ff0
0010
0010
0010
0010
0020
0020
0020
3ffe
0000
0000
0000
ENDCHAR
STARTCHAR 2567
ENCODING 9575
SWIDTH 823 0
DWIDTH 16 0
BBX 16 16 0 -2
BITMAP
0000
0000
0000
0000
0000
0000
0000
07e0
0020
0020
07e0
0020
0020
0020
07e0
0020
ENDCHAR
STARTCHAR 2568
ENCODING 9576
SWIDTH 823 0
DWIDTH 16 0
BBX 16 16 0 -2
BITMAP
0000
0000
1ff0
0010
0010
0010
0010
0ff0
0010
0010
0010
0010
1ff0
0010
0000
0000
ENDCHAR
STARTCHAR 2569
ENCODING 9577
SWIDTH 823 0
DWIDTH 16 0
BBX 16 16 0 -2
BITMAP
0000
0000
07f0
0000
0000
0000
1ffc
0004
0008
0008
0010
0020
00c0
0300
0000
0000
ENDCHAR
STARTCHAR 256a
ENCODING 9578
SWIDTH 823 0
DWIDTH 16 0
BBX 16 16 0 -2
BITMAP
0000
0010
0810
0810
0810
0810
0810
0810
0810
0010
0010
0020
0020
0040
0180
0000
ENDCHAR
STARTCHAR 256b
ENCODING 9579
SWIDTH 823 0
DWIDTH 16 0
BBX 16 16 0 -2
BITMAP
0000
0000
0040
0040
0440
0440
0440
0440
0440
0840
0841
1042
204c
4070
0000
0000
ENDCHAR
STARTCHAR 256c
ENCODING 9580
SWIDTH 823 0
DWIDTH 16 0
BBX 16 16 0 -2
BITMAP
0000
0000
0400
0400
0400
0400
0400
0400
0400
0408
0410
0420
04c0
0700
0000
0000
ENDCHAR
STARTCHAR 256d
ENCODING 9581
SWIDTH 823 0
DWIDTH 16 0
BBX 16 16 0 -2
BITMAP
0000
0000
0000
0000
1ff8
1008
1008
1008
1008
1008
1008
1008
1ff8
1008
0000
0000
ENDCHAR
STARTCHAR 256e
ENCODING 9582
SWIDTH 823 0
DWIDTH 16 0
BBX 16 16 0 -2
BITMAP
0000
0000
0000
0000
0000
0000
0000
0ff0
0810
0810
0810
0010
0020
0020
0040
0180
ENDCHAR
STARTCHAR 256f
ENCODING 9583
SWIDTH 823 0
DWIDTH 16 0
BBX 16 16 0 -2
BITMAP
0000
0000
0000
1ffc
1004
1004
1004
1004
0004
0004
0008
0008
0010
0060
0180
0000
ENDCHAR
STARTCHAR 2570
ENCODING 9584
SWIDTH 823 0
DWIDTH 16 0
BBX 16 16 0 -2
BITMAP
0000
0020
0020
0020
0ffc
0420
0420
0420
0420
3ffe
0020
0020
0020
0020
0020
0000
ENDCHAR
STARTCHAR 2571
ENCODING 9585
SWIDTH 823 0
DWIDTH 16 0
BBX 16 16 0 -2
BITMAP
0000
0000
0000
0000
0ff8
0008
0010
00a0
0080
0080
0080
0080
3ffe
0000
0000
0000
ENDCHAR
STARTCHAR 2572
ENCODING 9586
SWIDTH 823 0
DWIDTH 16 0
BBX 16 16 0 -2
BITMAP
0000
0000
0000
0ff8
0008
0008
1ff8
0008
0010
0010
0020
0040
0180
0600
0000
0000
ENDCHAR
STARTCHAR 2573
ENCODING 9587
SWIDTH 823 0
DWIDTH 16 0
BBX 16 16 0 -2
BITMAP
0000
0000
0000
1800
0400
0204
0004
0008
0008
0010
0020
0040
0180
0e00
0000
0000
ENDCHAR
STARTCHAR 2574
ENCODING 9588
SWIDTH 823 0
DWIDTH 16 0
BBX 16 16 0 -2
BITMAP
0002
0085
0082
0080
1ffc
1004
1004
1004
0004
0008
0008
0010
0060
0180
0000
0000
ENDCHAR
STARTCHAR 2575
ENCODING 9589
SWIDTH 823 0
DWIDTH 16 0
BBX 16 16 0 -2
BITMAP
0000
0000
0000
0000
0000
0080
0080
0080
0ff8
0088
0108
0108
0208
0410
0810
0060
ENDCHAR
STARTCHAR 2576
ENCODING 9590
SWIDTH 823 0
DWIDTH 16 0
BBX 16 16 0 -2
BITMAP
0000
0000
0000
0000
0000
0200
0200
0200
07fc
0420
0820
0020
0040
0040
0080
0300
ENDCHAR
STARTCHAR 2577
ENCODING 9591
SWIDTH 823 0
DWIDTH 16 0
BBX 16 16 0 -2
BITMAP
0106
0109
0109
0106
3ffc
0104
0104
0204
0204
0404
0404
0808
1008
2070
0000
0000
ENDCHAR
STARTCHAR 2578
ENCODING 9592
SWIDTH 823 0
DWIDTH 16 0
BBX 16 16 0 -2
BITMAP
0000
010c
0112
0112
00fc
1f80
0080
0080
00fe
3f80
0040
0040
0040
0040
0040
0000
ENDCHAR
STARTCHAR 2579
ENCODING 9593
SWIDTH 823 0
DWIDTH 16 0
BBX 16 16 0 -2
BITMAP
0006
0109
0109
01fe
0208
0208
0410
0810
0020
0020
0040
0080
0300
0c00
0000
0000
ENDCHAR
STARTCHAR 257a
ENCODING 9594
SWIDTH 823 0
DWIDTH 16 0
BBX 16 16 0 -2
BITMAP
0006
0209
0209
0206
0400
07fe
0810
1010
2010
0020
0020
0040
0080
0300
0000
0000
ENDCHAR
STARTCHAR 257b
ENCODING 9595
SWIDTH 823 0
DWIDTH 16 0
BBX 16 16 0 -2
BITMAP
000c
0012
0012
000c
1ff0
0010
0010
0010
0010
0010
0010
0010
1ff0
0010
0000
0000
ENDCHAR
STARTCHAR 257c
ENCODING 9596
SWIDTH 823 0
DWIDTH 16 0
BBX 16 16 0 -2
BITMAP
0006
0409
0409
0406
0470
0788
3c10
0420
0440
0400
0400
0400
03f0
0000
0000
0000
ENDCHAR
STARTCHAR 257d
ENCODING 9597
SWIDTH 823 0
DWIDTH 16 0
BBX 16 16 0 -2
BITMAP
0006
0009
0209
0206
2104
1104
1008
0008
0010
0010
0020
0040
0080
0100
0200
0000
ENDCHAR
STARTCHAR 257e
ENCODING 9598
SWIDTH 823 0
DWIDTH 16 0
BBX 16 16 0 -2
BITMAP
0000
0218
0224
0224
0218
0200
03c0
0230
0208
0200
0200
0200
0200
0200
0200
0000
ENDCHAR
STARTCHAR 2621
ENCODING 9761
SWIDTH 823 0
DWIDTH 16 0
BBX 16 16 0 -2
BITMAP
0000
0080
0080
0140
0140
0220
0220
0410
0410
0ff8
0808
1004
1004
2002
0000
0000
ENDCHAR
STARTCHAR 2622
ENCODING 9762
SWIDTH 823 0
DWIDTH 16 0
BBX 16 16 0 -2
BITMAP
0000
0fe0
0810
0808
0808
0808
0810
0fe0
0818
0804
0804
0804
0808
0ff0
0000
0000
ENDCHAR
STARTCHAR 2623
ENCODING 9763
SWIDTH 823 0
DWIDTH 16 0
BBX 16 16 0 -2
BITMAP
0000
0ff8
0800
0800
0800
0800
0800
0800
0800
0800
0800
0800
0800
0800
0000
0000
ENDCHAR
STARTCHAR 2624
ENCODING 9764
SWIDTH 823 0
DWIDTH 16 0
BBX 16 16 0 -2
BITMAP
0000
0080
0140
0140
0220
0220
0410
0410
0808
0808
1004
1004
2002
3ffe
0000
0000
ENDCHAR
STARTCHAR 2625
ENCODING 9765
SWIDTH 823 0
DWIDTH 16 0
BBX 16 16 0 -2
BITMAP
0000
0ff8
0800
0800
0800
0800
0800
0fe0
0800
0800
0800
0800
0800
0ff8
0000
0000
ENDCHAR
STARTCHAR 2626
ENCODING 9766
SWIDTH 823 0
DWIDTH 16 0
BBX 16 16 0 -2
BITMAP
0000
0ff0
0020
0040
0040
0080
0080
0100
0100
0200
0200
0400
0400
0ff8
0000
0000
ENDCHAR
STARTCHAR 2627
ENCODING 9767
SWIDTH 823 0
DWIDTH 16 0
BBX 16 16 0 -2
BITMAP
0000
1008
1008
1008
1008
1008
1008
1ff8
1008
1008
1008
1008
1008
1008
0000
0000
ENDCHAR
STARTCHAR 2628
ENCODING 9768
SWIDTH 823 0
DWIDTH 16 0
BBX 16 16 0 -2
BITMAP
0000
03c0
0c30
1008
1008
2004
2004
27e4
2004
2004
1008
1008
0c30
03c0
0000
0000
ENDCHAR
STARTCHAR 2629
ENCODING 9769
SWIDTH 823 0
DWIDTH 16 0
BBX 16 16 0 -2
BITMAP
0000
0100
0100
0100
0100
0100
0100
0100
0100
0100
0100
0100
0100
0100
0000
0000
ENDCHAR
STARTCHAR 262a
ENCODING 9770
SWIDTH 823 0
DWIDTH 16 0
BBX 16 16 0 -2
BITMAP
0000
0810
0820
0840
0880
0900
0a00
0e00
0900
0880
0840
0820
0810
0808
0000
0000
ENDCHAR
STARTCHAR 262b
ENCODING 9771
SWIDTH 823 0
DWIDTH 16 0
BBX 16 16 0 -2
BITMAP
0000
0080
0080
0140
0140
0220
0220
0410
0410
0808
0808
1004
1004
2002
0000
0000
ENDCHAR
STARTCHAR 262c
ENCODING 9772
SWIDTH 823 0
DWIDTH 16 0
BBX 16 16 0 -2
BITMAP
0000
180c
180c
180c
1414
1414
1414
1224
1224
1224
1144
1144
1084
1084
0000
0000
ENDCHAR
STARTCHAR 262d
ENCODING 9773
SWIDTH 823 0
DWIDTH 16 0
BBX 16 16 0 -2
BITMAP
0000
1008
1808
1408
1208
1208
1108
1088
1088
1048
1028
1028
1018
1008
0000
0000
ENDCHAR
STARTCHAR 262e
ENCODING 9774
SWIDTH 823 0
DWIDTH 16 0
BBX 16 16 0 -2
BITMAP
0000
3ffc
0000
0000
0000
0000
0000
1ff8
0000
0000
0000
0000
0000
3ffc
0000
0000
ENDCHAR
STARTCHAR 262f
ENCODING 9775
SWIDTH 823 0
DWIDTH 16 0
BBX 16 16 0 -2
BITMAP
0000
03c0
0c30
1008
1008
2004
2004
2004
2004
2004
1008
1008
0c30
03c0
0000
0000
ENDCHAR
STARTCHAR 2630
ENCODING 9776
SWIDTH 823 0
DWIDTH 16 0
BBX 16 16 0 -2
BITMAP
0000
3ffc
0810
0810
0810
0810
0810
0810
0810
0810
0810
0810
0810
0810
0000
0000
ENDCHAR
STARTCHAR 2631
ENCODING 9777
SWIDTH 823 0
DWIDTH 16 0
BBX 16 16 0 -2
BITMAP
0000
0fe0
0810
0808
0808
0808
0810
0fe0
0800
0800
0800
0800
0800
0800
0000
0000
ENDCHAR
STARTCHAR 2632
ENCODING 9778
SWIDTH 823 0
DWIDTH 16 0
BBX 16 16 0 -2
BITMAP
0000
3ff8
1000
0800
0400
0200
0100
0080
0100
0200
0400
0800
1000
3ff8
0000
0000
ENDCHAR
STARTCHAR 2633
ENCODING 9779
SWIDTH 823 0
DWIDTH 16 0
BBX 16 16 0 -2
BITMAP
0000
3ffe
0080
0080
0080
0080
0080
0080
0080
0080
0080
0080
0080
0080
0000
0000
ENDCHAR
STARTCHAR 2634
ENCODING 9780
SWIDTH 823 0
DWIDTH 16 0
BBX 16 16 0 -2
BITMAP
0000
0e38
1144
2082
0080
0080
0080
0080
0080
0080
0080
0080
0080
0080
0000
0000
ENDCHAR
STARTCHAR 2635
ENCODING 9781
SWIDTH 823 0
DWIDTH 16 0
BBX 16 16 0 -2
BITMAP
0000
0080
0080
03e0
0c98
1084
2082
2082
2082
1084
0c98
03e0
0080
0080
0000
0000
ENDCHAR
STARTCHAR 2636
ENCODING 9782
SWIDTH 823 0
DWIDTH 16 0
BBX 16 16 0 -2
BITMAP
0000
1004
0808
0410
0220
0220
0140
0080
0140
0220
0220
0410
0808
1004
0000
0000
ENDCHAR
STARTCHAR 2637
ENCODING 9783
SWIDTH 823 0
DWIDTH 16 0
BBX 16 16 0 -2
BITMAP
0000
0080
3086
4889
0888
0888
0888
0888
0490
0490
03e0
0080
0080
0080
0000
0000
ENDCHAR
STARTCHAR 2638
ENCODING 9784
SWIDTH 823 0
DWIDTH 16 0
BBX 16 16 0 -2
BITMAP
0000
03c0
0c30
1008
1008
2004
2004
2004
1008
1008
0c30
0240
0240
3e7c
0000
0000
ENDCHAR
STARTCHAR 2639
ENCODING 9785
SWIDTH 823 0
DWIDTH 16 0
BBX 16 16 0 -2
BITMAP
0000
0080
0140
0220
0410
0808
1004
1004
2002
2002
21c2
1ebc
0080
0140
03e0
0000
ENDCHAR
STARTCHAR 263a
ENCODING 9786
SWIDTH 823 0
DWIDTH 16 0
BBX 16 16 0 -2
BITMAP
0000
0080
01c0
03e0
07f0
0ff8
1ffc
1ffc
3ffe
3ffe
3ffe
1ebc
0080
01c0
03e0
0000
ENDCHAR
STARTCHAR 263b
ENCODING 9787
SWIDTH 823 0
DWIDTH 16 0
BBX 16 16 0 -2
BITMAP
0080
0080
0140
0140
0220
0410
0808
1004
0808
0410
0220
0140
0140
0080
0080
0000
ENDCHAR
STARTCHAR 263c
ENCODING 9788
SWIDTH 823 0
DWIDTH 16 0
BBX 16 16 0 -2
BITMAP
0080
0080
01c0
01c0
03e0
07f0
0ff8
1ffc
0ff8
07f0
03e0
01c0
01c0
0080
0080
0000
ENDCHAR
STARTCHAR 263d
ENCODING 9789
SWIDTH 823 0
DWIDTH 16 0
BBX 16 16 0 -2
BITMAP
0000
0000
0e38
1144
2082
2082
2002
2002
1004
1004
0808
0410
0220
0140
0080
0000
ENDCHAR
STARTCHAR 263e
ENCODING 9790
SWIDTH 823 0
DWIDTH 16 0
BBX 16 16 0 -2
BITMAP
0000
0000
0e38
1f7c
3ffe
3ffe
3ffe
3ffe
1ffc
1ffc
0ff8
07f0
03e0
01c0
0080
0000
ENDCHAR
STARTCHAR 263f
ENCODING 9791
SWIDTH 823 0
DWIDTH 16 0
BBX 16 16 0 -2
BITMAP
0000
01c0
0220
0410
0410
0220
0e38
1144
2002
2002
21c2
12a4
0c98
0140
03e0
0000
ENDCHAR
STARTCHAR 2640
ENCODING 9792
SWIDTH 823 0
DWIDTH 16 0
BBX 16 16 0 -2
BITMAP
0000
01c0
03e0
07f0
07f0
03e0
0dd8
1ebc
3ffe
3ffe
3ffe
1ebc
0c98
01c0
03e0
0000
ENDCHAR
STARTCHAR 2641
ENCODING 9793
SWIDTH 823 0
DWIDTH 16 0
BBX 16 16 0 -2
BITMAP
0000
0000
0000
0000
0000
0000
0388
0448
0850
0860
1040
10c0
1148
0e30
0000
0000
ENDCHAR
STARTCHAR 2642
ENCODING 9794
SWIDTH 823 0
DWIDTH 16 0
BBX 16 16 0 -2
BITMAP
0000
0078
0084
0104
0104
0204
0208
0270
0410
0408
0408
0408
0910
08e0
0800
0800
ENDCHAR
STARTCHAR 2643
ENCODING 9795
SWIDTH 823 0
DWIDTH 16 0
BBX 16 16 0 -2
BITMAP
0000
0000
0000
0000
0000
0000
0e18
1120
0140
0180
0180
0100
0200
0200
0400
0400
ENDCHAR
STARTCHAR 2644
ENCODING 9796
SWIDTH 823 0
DWIDTH 16 0
BBX 16 16 0 -2
BITMAP
0000
0380
0460
0210
0108
0080
0340
0420
0820
1020
1020
1040
0880
0700
0000
0000
ENDCHAR
STARTCHAR 2645
ENCODING 9797
SWIDTH 823 0
DWIDTH 16 0
BBX 16 16 0 -2
BITMAP
0000
0000
0000
0000
0000
0000
03e0
0410
0400
03c0
0400
0800
0820
07c0
0000
0000
ENDCHAR
STARTCHAR 2646
ENCODING 9798
SWIDTH 823 0
DWIDTH 16 0
BBX 16 16 0 -2
BITMAP
0200
0408
0410
03a0
0040
0080
0100
0200
0400
0400
0400
03c0
0020
0020
01c0
0000
ENDCHAR
STARTCHAR 2647
ENCODING 9799
SWIDTH 823 0
DWIDTH 16 0
BBX 16 16 0 -2
BITMAP
0000
0000
0000
0000
0000
0000
0ce0
1310
0208
0208
0408
0410
0810
0810
0020
0020
ENDCHAR
STARTCHAR 2648
ENCODING 9800
SWIDTH 823 0
DWIDTH 16 0
BBX 16 16 0 -2
BITMAP
0000
00e0
0310
0408
0808
0808
1ff8
1008
1008
1010
1010
1020
08c0
0700
0000
0000
ENDCHAR
STARTCHAR 2649
ENCODING 9801
SWIDTH 823 0
DWIDTH 16 0
BBX 16 16 0 -2
BITMAP
0000
0000
0000
0000
0000
0000
0200
0200
0400
0400
0800
0810
0860
0780
0000
0000
ENDCHAR
STARTCHAR 264a
ENCODING 9802
SWIDTH 823 0
DWIDTH 16 0
BBX 16 16 0 -2
BITMAP
0000
0000
0000
0000
0000
0000
0430
0448
0580
0e00
0900
1100
1110
20e0
0000
0000
ENDCHAR
STARTCHAR 264b
ENCODING 9803
SWIDTH 823 0
DWIDTH 16 0
BBX 16 16 0 -2
BITMAP
0000
0180
0040
0040
0040
0040
0040
00c0
0140
0240
0240
0420
0420
1818
0000
0000
ENDCHAR
STARTCHAR 264c
ENCODING 9804
SWIDTH 823 0
DWIDTH 16 0
BBX 16 16 0 -2
BITMAP
0000
0000
0000
0000
0000
0000
0420
0420
0420
0840
0840
0840
08c8
1730
1000
2000
ENDCHAR
STARTCHAR 264d
ENCODING 9805
SWIDTH 823 0
DWIDTH 16 0
BBX 16 16 0 -2
BITMAP
0000
0000
0000
0000
0000
0000
1808
0408
0410
0410
0820
0840
0980
1e00
0000
0000
ENDCHAR
STARTCHAR 264e
ENCODING 9806
SWIDTH 823 0
DWIDTH 16 0
BBX 16 16 0 -2
BITMAP
0000
00f0
0100
0080
03f0
0400
0400
0200
0ff0
1000
1000
0e00
01c0
0020
0020
0fc0
ENDCHAR
STARTCHAR 264f
ENCODING 9807
SWIDTH 823 0
DWIDTH 16 0
BBX 16 16 0 -2
BITMAP
0000
0000
0000
0000
0000
0000
01c0
0620
0810
0810
0810
0810
0460
0380
0000
0000
ENDCHAR
STARTCHAR 2650
ENCODING 9808
SWIDTH 823 0
DWIDTH 16 0
BBX 16 16 0 -2
BITMAP
0000
0000
0000
0000
0000
0008
0ff0
1240
0240
0240
0480
0480
0490
1860
0000
0000
ENDCHAR
STARTCHAR 2651
ENCODING 9809
SWIDTH 823 0
DWIDTH 16 0
BBX 16 16 0 -2
BITMAP
0000
0000
0000
0000
0000
0000
00e0
0110
0208
0208
0408
0408
0510
08e0
0800
0800
ENDCHAR
STARTCHAR 2652
ENCODING 9810
SWIDTH 823 0
DWIDTH 16 0
BBX 16 16 0 -2
BITMAP
0000
0000
0000
0000
0000
0008
01f8
0620
0810
0810
0810
0810
0460
0380
0000
0000
ENDCHAR
STARTCHAR 2653
ENCODING 9811
SWIDTH 823 0
DWIDTH 16 0
BBX 16 16 0 -2
BITMAP
0000
0000
0000
0000
0000
0008
0ff0
1100
0100
0200
0200
0420
0440
0380
0000
0000
ENDCHAR
STARTCHAR 2654
ENCODING 9812
SWIDTH 823 0
DWIDTH 16 0
BBX 16 16 0 -2
BITMAP
0000
0000
0000
0000
0000
0000
0430
0410
0410
0410
0820
0820
08c0
0700
0000
0000
ENDCHAR
STARTCHAR 2655
ENCODING 9813
SWIDTH 823 0
DWIDTH 16 0
BBX 16 16 0 -2
BITMAP
0000
0020
0020
0020
0040
0040
03e0
0c90
1088
1088
1108
0930
07c0
0200
0200
0400
ENDCHAR
STARTCHAR 2656
ENCODING 9814
SWIDTH 823 0
DWIDTH 16 0
BBX 16 16 0 -2
BITMAP
0000
0000
0000
0000
0000
0000
0608
0910
0120
0140
0180
0100
0300
0500
0890
1060
ENDCHAR
STARTCHAR 2657
ENCODING 9815
SWIDTH 823 0
DWIDTH 16 0
BBX 16 16 0 -2
BITMAP
0000
0020
0020
0020
0040
0040
0c48
1488
0488
0890
0910
0920
07c0
0200
0200
0400
ENDCHAR
STARTCHAR 2658
ENCODING 9816
SWIDTH 823 0
DWIDTH 16 0
BBX 16 16 0 -2
BITMAP
0000
0000
0000
0000
0000
0000
0408
0884
1084
1084
2104
2104
2308
1cf0
0000
0000
ENDCHAR
STARTCHAR 2659
ENCODING 9817
SWIDTH 823 0
DWIDTH 16 0
BBX 16 16 0 -2
BITMAP
0000
0000
0000
0000
0000
01e0
0210
0408
0408
0408
0210
0100
0100
0080
0c80
0300
ENDCHAR
STARTCHAR 265a
ENCODING 9818
SWIDTH 823 0
DWIDTH 16 0
BBX 16 16 0 -2
BITMAP
03e0
0c18
13e4
2412
288a
5185
5085
5085
5085
5085
288a
2412
13e4
0c18
03e0
0000
ENDCHAR
STARTCHAR 265b
ENCODING 9819
SWIDTH 823 0
DWIDTH 16 0
BBX 16 16 0 -2
BITMAP
03e0
0c18
13e4
2412
29ca
5225
5025
5045
5085
5105
2bea
2412
13e4
0c18
03e0
0000
ENDCHAR
STARTCHAR 265c
ENCODING 9820
SWIDTH 823 0
DWIDTH 16 0
BBX 16 16 0 -2
BITMAP
03e0
0c18
13e4
2412
29ca
5225
5025
51c5
5025
5225
29ca
2412
13e4
0c18
03e0
0000
ENDCHAR
STARTCHAR 265d
ENCODING 9821
SWIDTH 823 0
DWIDTH 16 0
BBX 16 16 0 -2
BITMAP
03e0
0c18
13e4
2412
284a
50c5
5145
5145
53e5
5045
284a
2412
13e4
0c18
03e0
0000
ENDCHAR
STARTCHAR 265e
ENCODING 9822
SWIDTH 823 0
DWIDTH 16 0
BBX 16 16 0 -2
BITMAP
03e0
0c18
13e4
2412
29ca
5105
5205
53c5
5025
5225
29ca
2412
13e4
0c18
03e0
0000
ENDCHAR
STARTCHAR 265f
ENCODING 9823
SWIDTH 823 0
DWIDTH 16 0
BBX 16 16 0 -2
BITMAP
03e0
0c18
13e4
2412
29ca
5225
5205
53c5
5225
5225
29ca
2412
13e4
0c18
03e0
0000
ENDCHAR
STARTCHAR 2660
ENCODING 9824
SWIDTH 823 0
DWIDTH 16 0
BBX 16 16 0 -2
BITMAP
03e0
0c18
13e4
2412
2bea
5025
5025
5045
5045
5085
288a
2412
13e4
0c18
03e0
0000
ENDCHAR
STARTCHAR 2661
ENCODING 9825
SWIDTH 823 0
DWIDTH 16 0
BBX 16 16 0 -2
BITMAP
03e0
0c18
13e4
2412
29ca
5225
5225
51c5
5225
5225
29ca
2412
13e4
0c18
03e0
0000
ENDCHAR
STARTCHAR 2662
ENCODING 9826
SWIDTH 823 0
DWIDTH 16 0
BBX 16 16 0 -2
BITMAP
03e0
0c18
13e4
2412
29ca
5225
5225
51e5
5045
5045
288a
2412
13e4
0c18
03e0
0000
ENDCHAR
STARTCHAR 2663
ENCODING 9827
SWIDTH 823 0
DWIDTH 16 0
BBX 16 16 0 -2
BITMAP
03e0
0c18
13e4
2412
2a6a
5695
5295
5295
5295
5295
2a6a
2412
13e4
0c18
03e0
0000
ENDCHAR
STARTCHAR 2664
ENCODING 9828
SWIDTH 823 0
DWIDTH 16 0
BBX 16 16 0 -2
BITMAP
0000
01c0
0630
180c
1004
1004
1004
1004
2002
2002
2002
2002
2002
2002
3ffe
0000
ENDCHAR
STARTCHAR 2665
ENCODING 9829
SWIDTH 823 0
DWIDTH 16 0
BBX 16 16 0 -2
BITMAP
0000
01c0
07f0
1ffc
1ffc
1ffc
1ffc
1ffc
3ffe
3ffe
3ffe
3ffe
3ffe
3ffe
3ffe
0000
ENDCHAR
STARTCHAR 2666
ENCODING 9830
SWIDTH 823 0
DWIDTH 16 0
BBX 16 16 0 -2
BITMAP
0000
3ffc
3ffc
0000
3ffc
3ffc
2184
4992
55aa
4992
2184
2428
13c8
0c30
03c0
0000
ENDCHAR
STARTCHAR 2667
ENCODING 9831
SWIDTH 823 0
DWIDTH 16 0
BBX 16 16 0 -2
BITMAP
0000
1ffc
3ffe
7b6f
7bef
73e7
0ff8
1e3c
1c1c
3c1e
3c1e
3e3e
3ffe
1ffc
0000
0000
ENDCHAR
STARTCHAR 2668
ENCODING 9832
SWIDTH 823 0
DWIDTH 16 0
BBX 16 16 0 -2
BITMAP
0080
2082
1084
0808
01c0
03e0
07f0
77f7
07f0
03e0
01c0
0808
1084
2082
0080
0000
ENDCHAR
STARTCHAR 2669
ENCODING 9833
SWIDTH 823 0
DWIDTH 16 0
BBX 16 16 0 -2
BITMAP
0000
0000
0780
0fc0
0fec
3ffe
7ffe
7ffc
7ffe
7ffe
3cfe
007c
0000
0000
0000
0000
ENDCHAR
STARTCHAR 266a
ENCODING 9834
SWIDTH 823 0
DWIDTH 16 0
BBX 16 16 0 -2
BITMAP
0080
0080
07f0
1ffc
3ffe
3ffe
7fff
6ebb
4491
0080
0080
0080
0080
0480
0300
0000
ENDCHAR
STARTCHAR 266b
ENCODING 9835
SWIDTH 823 0
DWIDTH 16 0
BBX 16 16 0 -2
BITMAP
10fc
07f8
4879
100c
1664
5664
1005
4a4a
3186
4001
4181
4001
2182
180c
07f0
0000
ENDCHAR
STARTCHAR 266c
ENCODING 9836
SWIDTH 823 0
DWIDTH 16 0
BBX 16 16 0 -2
BITMAP
0000
0080
0510
0920
0920
0920
1490
2494
4492
48a2
4102
2004
1818
07e0
0000
0000
ENDCHAR
STARTCHAR 266d
ENCODING 9837
SWIDTH 823 0
DWIDTH 16 0
BBX 16 16 0 -2
BITMAP
0000
0000
0000
0000
07ff
0402
0802
0804
1004
1008
2008
2010
7ff0
0000
0000
0000
ENDCHAR
STARTCHAR 266e
ENCODING 9838
SWIDTH 823 0
DWIDTH 16 0
BBX 16 16 0 -2
BITMAP
0000
0000
0000
0000
0000
0100
0100
01f0
0210
0410
0010
0020
0020
0040
0180
0600
ENDCHAR
STARTCHAR 266f
ENCODING 9839
SWIDTH 823 0
DWIDTH 16 0
BBX 16 16 0 -2
BITMAP
0000
0000
0000
0000
0000
0000
0c00
0200
0000
1808
0408
0010
0020
0040
0180
0e00
ENDCHAR
STARTCHAR 2670
ENCODING 9840
SWIDTH 823 0
DWIDTH 16 0
BBX 16 16 0 -2
BITMAP
0000
0000
0000
0000
0000
0000
0fe0
0020
0020
0040
0040
00c0
0120
0210
0408
1808
ENDCHAR
STARTCHAR 2671
ENCODING 9841
SWIDTH 823 0
DWIDTH 16 0
BBX 16 16 0 -2
BITMAP
0000
0000
0000
0000
0000
0100
0100
0100
0100
0160
0110
0100
0100
0100
0100
0100
ENDCHAR
STARTCHAR 2672
ENCODING 9842
SWIDTH 823 0
DWIDTH 16 0
BBX 16 16 0 -2
BITMAP
0000
0000
0000
0000
0000
0000
07f0
0010
0010
0210
0120
00a0
0060
0090
0308
0c00
ENDCHAR
STARTCHAR 2673
ENCODING 9843
SWIDTH 823 0
DWIDTH 16 0
BBX 16 16 0 -2
BITMAP
0000
0000
0000
0000
0000
0000
0000
0200
0240
0220
0410
0408
0808
0804
1004
0000
ENDCHAR
STARTCHAR 2674
ENCODING 9844
SWIDTH 823 0
DWIDTH 16 0
BBX 16 16 0 -2
BITMAP
0000
0000
0000
0000
0000
0000
0400
0400
0410
0460
0780
0400
0400
0400
0400
03f0
ENDCHAR
STARTCHAR 2675
ENCODING 9845
SWIDTH 823 0
DWIDTH 16 0
BBX 16 16 0 -2
BITMAP
0000
0000
0000
0000
0000
0000
0000
0ff8
0008
0008
0008
0010
0010
0020
00c0
0300
ENDCHAR
STARTCHAR 2676
ENCODING 9846
SWIDTH 823 0
DWIDTH 16 0
BBX 16 16 0 -2
BITMAP
0000
0000
0000
0000
0000
0000
0000
0000
0300
0480
0840
1020
0010
0008
0000
0000
ENDCHAR
STARTCHAR 2677
ENCODING 9847
SWIDTH 823 0
DWIDTH 16 0
BBX 16 16 0 -2
BITMAP
0000
0000
0000
0000
0000
0080
0080
0080
0ff8
0080
0080
0490
0488
0884
1084
0180
ENDCHAR
STARTCHAR 2678
ENCODING 9848
SWIDTH 823 0
DWIDTH 16 0
BBX 16 16 0 -2
BITMAP
0000
0000
0000
0000
0000
0018
0024
0024
1fd8
0020
0020
0040
0040
0080
0300
0c00
ENDCHAR
STARTCHAR 2679
ENCODING 9849
SWIDTH 823 0
DWIDTH 16 0
BBX 16 16 0 -2
BITMAP
0000
0000
0000
0000
0000
0000
0000
0100
0100
0100
0100
0240
0220
0210
04e8
1f08
ENDCHAR
STARTCHAR 267a
ENCODING 9850
SWIDTH 823 0
DWIDTH 16 0
BBX 16 16 0 -2
BITMAP
0000
0000
0000
0000
0000
0000
07f0
0000
0000
0ff8
0008
0008
0010
0020
0040
0180
ENDCHAR
STARTCHAR 267b
ENCODING 9851
SWIDTH 823 0
DWIDTH 16 0
BBX 16 16 0 -2
BITMAP
0000
0000
0000
0000
0000
0020
0420
0420
0420
0420
0420
0420
0040
0040
0080
0100
ENDCHAR
STARTCHAR 267c
ENCODING 9852
SWIDTH 823 0
DWIDTH 16 0
BBX 16 16 0 -2
BITMAP
0000
0000
0000
0000
0000
0000
0040
0240
0240
0240
0240
0444
0448
0850
1060
0000
ENDCHAR
STARTCHAR 267d
ENCODING 9853
SWIDTH 823 0
DWIDTH 16 0
BBX 16 16 0 -2
BITMAP
0000
0000
0000
0000
0000
0000
0400
0400
0400
0400
0400
0408
0410
0420
04c0
0700
ENDCHAR
STARTCHAR 267e
ENCODING 9854
SWIDTH 823 0
DWIDTH 16 0
BBX 16 16 0 -2
BITMAP
0000
0000
0000
0000
0000
0000
0000
0ff8
0808
0808
0808
0808
0808
0808
0ff8
0808
ENDCHAR
STARTCHAR 2721
ENCODING 10017
SWIDTH 823 0
DWIDTH 16 0
BBX 16 16 0 -2
BITMAP
0000
0000
0080
0140
0140
0220
0220
0410
0410
0ff8
0808
1004
1004
2002
0000
0000
ENDCHAR
STARTCHAR 2722
ENCODING 10018
SWIDTH 823 0
DWIDTH 16 0
BBX 16 16 0 -2
BITMAP
0000
0ff8
0800
0800
0800
0800
0800
0ff0
0808
0804
0804
0804
0808
0ff0
0000
0000
ENDCHAR
STARTCHAR 2723
ENCODING 10019
SWIDTH 823 0
DWIDTH 16 0
BBX 16 16 0 -2
BITMAP
0000
0fe0
0810
0808
0808
0808
0810
0fe0
0818
0804
0804
0804
0808
0ff0
0000
0000
ENDCHAR
STARTCHAR 2724
ENCODING 10020
SWIDTH 823 0
DWIDTH 16 0
BBX 16 16 0 -2
BITMAP
0000
0ff8
0800
0800
0800
0800
0800
0800
0800
0800
0800
0800
0800
0800
0000
0000
ENDCHAR
STARTCHAR 2725
ENCODING 10021
SWIDTH 823 0
DWIDTH 16 0
BBX 16 16 0 -2
BITMAP
0000
03f0
0210
0210
0210
0210
0210
0210
0210
0210
0410
0410
0810
3ffc
2004
2004
ENDCHAR
STARTCHAR 2726
ENCODING 10022
SWIDTH 823 0
DWIDTH 16 0
BBX 16 16 0 -2
BITMAP
0000
0ff8
0800
0800
0800
0800
0fc0
0800
0800
0800
0800
0800
0800
0ff8
0000
0000
ENDCHAR
STARTCHAR 2727
ENCODING 10023
SWIDTH 823 0
DWIDTH 16 0
BBX 16 16 0 -2
BITMAP
0c30
0c30
0000
0ff8
0800
0800
0800
0800
0fc0
0800
0800
0800
0800
0ff8
0000
0000
ENDCHAR
STARTCHAR 2728
ENCODING 10024
SWIDTH 823 0
DWIDTH 16 0
BBX 16 16 0 -2
BITMAP
0000
3086
4889
0888
0888
0888
0490
07f0
0888
1084
1084
2082
2082
2082
0000
0000
ENDCHAR
STARTCHAR 2729
ENCODING 10025
SWIDTH 823 0
DWIDTH 16 0
BBX 16 16 0 -2
BITMAP
0000
07c0
0830
1008
0008
0008
0010
03e0
0010
0008
0008
1008
0830
07c0
0000
0000
ENDCHAR
STARTCHAR 272a
ENCODING 10026
SWIDTH 823 0
DWIDTH 16 0
BBX 16 16 0 -2
BITMAP
0000
1008
1008
1018
1028
1048
1088
1108
1208
1408
1808
1808
1008
1008
0000
0000
ENDCHAR
STARTCHAR 272b
ENCODING 10027
SWIDTH 823 0
DWIDTH 16 0
BBX 16 16 0 -2
BITMAP
0810
0420
03c0
1008
1018
1028
1048
1088
1108
1208
1408
1808
1008
1008
0000
0000
ENDCHAR
STARTCHAR 272c
ENCODING 10028
SWIDTH 823 0
DWIDTH 16 0
BBX 16 16 0 -2
BITMAP
0000
0818
0824
0840
0840
0880
0900
0e00
0900
0880
0840
0820
0818
0806
0000
0000
ENDCHAR
STARTCHAR 272d
ENCODING 10029
SWIDTH 823 0
DWIDTH 16 0
BBX 16 16 0 -2
BITMAP
0000
03fc
0204
0204
0204
0204
0204
0204
0204
0404
0404
0804
0804
1004
0000
0000
ENDCHAR
STARTCHAR 272e
ENCODING 10030
SWIDTH 823 0
DWIDTH 16 0
BBX 16 16 0 -2
BITMAP
0000
180c
180c
180c
1414
1414
1414
1224
1224
1224
1144
1144
1084
1084
0000
0000
ENDCHAR
STARTCHAR 272f
ENCODING 10031
SWIDTH 823 0
DWIDTH 16 0
BBX 16 16 0 -2
BITMAP
0000
1008
1008
1008
1008
1008
1ff8
1008
1008
1008
1008
1008
1008
1008
0000
0000
ENDCHAR
STARTCHAR 2730
ENCODING 10032
SWIDTH 823 0
DWIDTH 16 0
BBX 16 16 0 -2
BITMAP
0000
03c0
0c30
1008
1008
2004
2004
2004
2004
2004
1008
1008
0c30
03c0
0000
0000
ENDCHAR
STARTCHAR 2731
ENCODING 10033
SWIDTH 823 0
DWIDTH 16 0
BBX 16 16 0 -2
BITMAP
0000
1ff8
1008
1008
1008
1008
1008
1008
1008
1008
1008
1008
1008
1008
0000
0000
ENDCHAR
STARTCHAR 2732
ENCODING 10034
SWIDTH 823 0
DWIDTH 16 0
BBX 16 16 0 -2
BITMAP
0000
0fe0
0810
0808
0808
0808
0810
0fe0
0800
0800
0800
0800
0800
0800
0000
0000
ENDCHAR
STARTCHAR 2733
ENCODING 10035
SWIDTH 823 0
DWIDTH 16 0
BBX 16 16 0 -2
BITMAP
0000
01f0
0608
0804
0800
1000
1000
1000
1000
1000
0804
0804
060c
01f0
0000
0000
ENDCHAR
STARTCHAR 2734
ENCODING 10036
SWIDTH 823 0
DWIDTH 16 0
BBX 16 16 0 -2
BITMAP
0000
3ffe
0080
0080
0080
0080
0080
0080
0080
0080
0080
0080
0080
0080
0000
0000
ENDCHAR
STARTCHAR 2735
ENCODING 10037
SWIDTH 823 0
DWIDTH 16 0
BBX 16 16 0 -2
BITMAP
0000
1004
0808
0808
0410
0410
0220
0220
0140
0140
0080
0080
1300
1c00
0000
0000
ENDCHAR
STARTCHAR 2736
ENCODING 10038
SWIDTH 823 0
DWIDTH 16 0
BBX 16 16 0 -2
BITMAP
0000
0080
0080
03e0
0c98
1084
2082
2082
2082
1084
0c98
03e0
0080
0080
0000
0000
ENDCHAR
STARTCHAR 2737
ENCODING 10039
SWIDTH 823 0
DWIDTH 16 0
BBX 16 16 0 -2
BITMAP
0000
1004
0808
0410
0220
0220
0140
0080
0140
0220
0220
0410
0808
1004
0000
0000
ENDCHAR
STARTCHAR 2738
ENCODING 10040
SWIDTH 823 0
DWIDTH 16 0
BBX 16 16 0 -2
BITMAP
0000
2010
2010
2010
2010
2010
2010
2010
2010
2010
2010
2010
2010
3ffc
0004
0004
ENDCHAR
STARTCHAR 2739
ENCODING 10041
SWIDTH 823 0
DWIDTH 16 0
BBX 16 16 0 -2
BITMAP
0000
0808
0808
0808
0808
0808
0808
0418
03e8
0008
0008
0008
0008
0008
0000
0000
ENDCHAR
STARTCHAR 273a
ENCODING 10042
SWIDTH 823 0
DWIDTH 16 0
BBX 16 16 0 -2
BITMAP
0000
2082
2082
2082
2082
2082
2082
2082
2082
2082
2082
2082
2082
3ffe
0000
0000
ENDCHAR
STARTCHAR 273b
ENCODING 10043
SWIDTH 823 0
DWIDTH 16 0
BBX 16 16 0 -2
BITMAP
0000
2082
2082
2082
2082
2082
2082
2082
2082
2082
2082
2082
2082
3fff
0001
0001
ENDCHAR
STARTCHAR 273c
ENCODING 10044
SWIDTH 823 0
DWIDTH 16 0
BBX 16 16 0 -2
BITMAP
0000
7e00
0200
0200
0200
0200
03f8
0204
0202
0202
0202
0202
0204
03f8
0000
0000
ENDCHAR
STARTCHAR 273d
ENCODING 10045
SWIDTH 823 0
DWIDTH 16 0
BBX 16 16 0 -2
BITMAP
0000
1004
1004
1004
1004
1004
1f84
1044
1024
1024
1024
1024
1044
1f84
0000
0000
ENDCHAR
STARTCHAR 273e
ENCODING 10046
SWIDTH 823 0
DWIDTH 16 0
BBX 16 16 0 -2
BITMAP
0000
0800
0800
0800
0800
0800
0fe0
0810
0808
0808
0808
0808
0810
0fe0
0000
0000
ENDCHAR
STARTCHAR 273f
ENCODING 10047
SWIDTH 823 0
DWIDTH 16 0
BBX 16 16 0 -2
BITMAP
0000
07c0
0830
1008
1008
0004
0004
03fc
0004
0004
1008
1008
0830
07c0
0000
0000
ENDCHAR
STARTCHAR 2740
ENCODING 10048
SWIDTH 823 0
DWIDTH 16 0
BBX 16 16 0 -2
BITMAP
0000
2070
2088
2104
2104
2202
2202
3e02
2202
2202
2104
2104
2088
2070
0000
0000
ENDCHAR
STARTCHAR 2741
ENCODING 10049
SWIDTH 823 0
DWIDTH 16 0
BBX 16 16 0 -2
BITMAP
0000
03fc
0404
0804
0804
0804
0404
03fc
0084
0104
0104
0204
0404
1804
0000
0000
ENDCHAR
STARTCHAR 2742
ENCODING 10050
SWIDTH 823 0
DWIDTH 16 0
BBX 16 16 0 -2
BITMAP
0000
00ff
0080
0080
0080
0080
0080
0080
0080
0080
0080
0080
0080
0080
0080
0000
ENDCHAR
STARTCHAR 2743
ENCODING 10051
SWIDTH 823 0
DWIDTH 16 0
BBX 16 16 0 -2
BITMAP
0000
0080
0080
0080
0080
0080
0080
0080
0080
0080
0080
0080
0080
0080
00ff
0000
ENDCHAR
STARTCHAR 2744
ENCODING 10052
SWIDTH 823 0
DWIDTH 16 0
BBX 16 16 0 -2
BITMAP
0000
0080
0080
0080
03e0
0490
0888
0888
0888
0888
0490
03e0
0080
0080
0080
0000
ENDCHAR
STARTCHAR 2745
ENCODING 10053
SWIDTH 823 0
DWIDTH 16 0
BBX 16 16 0 -2
BITMAP
0000
3ffe
0080
0080
03e0
0490
0888
0888
0888
0888
0490
03e0
0080
0080
0080
0000
ENDCHAR
STARTCHAR 2746
ENCODING 10054
SWIDTH 823 0
DWIDTH 16 0
BBX 16 16 0 -2
BITMAP
0000
0080
0080
0080
03e0
0490
0888
0888
0888
0888
0490
03e0
0080
0080
3ffe
0000
ENDCHAR
STARTCHAR 2747
ENCODING 10055
SWIDTH 823 0
DWIDTH 16 0
BBX 16 16 0 -2
BITMAP
0000
0080
0080
0080
01c0
02a0
02a0
0490
0490
0888
0888
1ffc
0080
0080
0080
0000
ENDCHAR
STARTCHAR 2748
ENCODING 10056
SWIDTH 823 0
DWIDTH 16 0
BBX 16 16 0 -2
BITMAP
0000
3ffe
0080
0080
01c0
02a0
02a0
0490
0490
0888
0888
1ffc
0080
0080
0080
0000
ENDCHAR
STARTCHAR 2749
ENCODING 10057
SWIDTH 823 0
DWIDTH 16 0
BBX 16 16 0 -2
BITMAP
0000
0080
0080
0080
01c0
02a0
02a0
0490
0490
0888
0888
1ffc
0080
0080
3ffe
0000
ENDCHAR
STARTCHAR 274a
ENCODING 10058
SWIDTH 823 0
DWIDTH 16 0
BBX 16 16 0 -2
BITMAP
0000
0080
0080
0080
0080
0080
0684
09c8
10b0
0080
0080
0080
0080
0080
0080
0000
ENDCHAR
STARTCHAR 274b
ENCODING 10059
SWIDTH 823 0
DWIDTH 16 0
BBX 16 16 0 -2
BITMAP
0000
3ffe
0080
0080
0080
0080
0684
09c8
10b0
0080
0080
0080
0080
0080
0080
0000
ENDCHAR
STARTCHAR 274c
ENCODING 10060
SWIDTH 823 0
DWIDTH 16 0
BBX 16 16 0 -2
BITMAP
0000
0080
0080
0080
0080
0080
0684
09c8
10b0
0080
0080
0080
0080
0080
3ffe
0000
ENDCHAR
STARTCHAR 274d
ENCODING 10061
SWIDTH 823 0
DWIDTH 16 0
BBX 16 16 0 -2
BITMAP
0000
3ffe
0080
0080
0080
0080
0080
0080
0080
0080
0080
0080
0080
0080
0080
0000
ENDCHAR
STARTCHAR 274e
ENCODING 10062
SWIDTH 823 0
DWIDTH 16 0
BBX 16 16 0 -2
BITMAP
0000
0080
0080
0080
0080
0080
0080
0080
0080
0080
0080
0080
0080
0080
3ffe
0000
ENDCHAR
STARTCHAR 274f
ENCODING 10063
SWIDTH 823 0
DWIDTH 16 0
BBX 16 16 0 -2
BITMAP
0000
7f80
0080
0080
0080
0080
0080
0080
0080
0080
0080
0080
0080
0080
0080
0000
ENDCHAR
STARTCHAR 2750
ENCODING 10064
SWIDTH 823 0
DWIDTH 16 0
BBX 16 16 0 -2
BITMAP
0000
0080
0080
0080
0080
0080
0080
0080
0080
0080
0080
0080
0080
0080
7f80
0000
ENDCHAR
STARTCHAR 2751
ENCODING 10065
SWIDTH 823 0
DWIDTH 16 0
BBX 16 16 0 -2
BITMAP
0000
0000
0000
0000
0000
01e0
0210
0010
01f0
0210
0410
0410
0430
03d0
0000
0000
ENDCHAR
STARTCHAR 2752
ENCODING 10066
SWIDTH 823 0
DWIDTH 16 0
BBX 16 16 0 -2
BITMAP
0000
0000
00e0
0300
0400
0400
0bc0
0c20
0810
0810
0810
0810
0420
03c0
0000
0000
ENDCHAR
STARTCHAR 2753
ENCODING 10067
SWIDTH 823 0
DWIDTH 16 0
BBX 16 16 0 -2
BITMAP
0000
0000
0000
0000
0000
0000
07e0
0410
0410
07e0
0410
0410
0410
07e0
0000
0000
ENDCHAR
STARTCHAR 2754
ENCODING 10068
SWIDTH 823 0
DWIDTH 16 0
BBX 16 16 0 -2
BITMAP
0000
0000
0000
0000
0000
0000
07f0
0400
0400
0400
0400
0400
0400
0400
0000
0000
ENDCHAR
STARTCHAR 2755
ENCODING 10069
SWIDTH 823 0
DWIDTH 16 0
BBX 16 16 0 -2
BITMAP
0000
0000
0000
0000
0000
0000
03e0
0220
0220
0220
0220
0420
0420
1ff8
1008
1008
ENDCHAR
STARTCHAR 2756
ENCODING 10070
SWIDTH 823 0
DWIDTH 16 0
BBX 16 16 0 -2
BITMAP
0000
0000
0000
0000
0000
0000
0380
0440
0820
0fe0
0800
0800
0420
03c0
0000
0000
ENDCHAR
STARTCHAR 2757
ENCODING 10071
SWIDTH 823 0
DWIDTH 16 0
BBX 16 16 0 -2
BITMAP
0000
0000
0000
06c0
06c0
0000
0380
0440
0820
0fe0
0800
0800
0420
03c0
0000
0000
ENDCHAR
STARTCHAR 2758
ENCODING 10072
SWIDTH 823 0
DWIDTH 16 0
BBX 16 16 0 -2
BITMAP
0000
0000
0000
0000
0000
0000
1084
0888
0490
03e0
0490
0490
0888
1084
0000
0000
ENDCHAR
STARTCHAR 2759
ENCODING 10073
SWIDTH 823 0
DWIDTH 16 0
BBX 16 16 0 -2
BITMAP
0000
0000
0000
0000
0000
0000
01e0
0210
0010
00e0
0010
0010
0410
03e0
0000
0000
ENDCHAR
STARTCHAR 275a
ENCODING 10074
SWIDTH 823 0
DWIDTH 16 0
BBX 16 16 0 -2
BITMAP
0000
0000
0000
0000
0000
0000
0410
0430
0430
0450
0490
0510
0610
0610
0000
0000
ENDCHAR
STARTCHAR 275b
ENCODING 10075
SWIDTH 823 0
DWIDTH 16 0
BBX 16 16 0 -2
BITMAP
0000
0000
0000
0220
01c0
0000
0410
0430
0430
0450
0490
0510
0610
0610
0000
0000
ENDCHAR
STARTCHAR 275c
ENCODING 10076
SWIDTH 823 0
DWIDTH 16 0
BBX 16 16 0 -2
BITMAP
0000
0000
0000
0000
0000
0000
0470
0480
0500
0700
0480
0440
0420
0410
0000
0000
ENDCHAR
STARTCHAR 275d
ENCODING 10077
SWIDTH 823 0
DWIDTH 16 0
BBX 16 16 0 -2
BITMAP
0000
0000
0000
0000
0000
0000
01f8
0108
0108
0108
0108
0108
0208
0c08
0000
0000
ENDCHAR
STARTCHAR 275e
ENCODING 10078
SWIDTH 823 0
DWIDTH 16 0
BBX 16 16 0 -2
BITMAP
0000
0000
0000
0000
0000
0000
0c18
0a28
0a28
0948
0948
0888
0888
0808
0000
0000
ENDCHAR
STARTCHAR 275f
ENCODING 10079
SWIDTH 823 0
DWIDTH 16 0
BBX 16 16 0 -2
BITMAP
0000
0000
0000
0000
0000
0000
0410
0410
0410
07f0
0410
0410
0410
0410
0000
0000
ENDCHAR
STARTCHAR 2760
ENCODING 10080
SWIDTH 823 0
DWIDTH 16 0
BBX 16 16 0 -2
BITMAP
0000
0000
0000
0000
0000
0000
0000
0000
0000
0000
0000
0000
0000
0000
0000
0000
ENDCHAR
STARTCHAR 2760
ENCODING 10080
SWIDTH 823 0
DWIDTH 16 0
BBX 16 16 0 -2
BITMAP
0000
0000
0000
0000
0000
0000
01e0
0210
0408
0408
0408
0408
0210
01e0
0000
0000
ENDCHAR
STARTCHAR 2761
ENCODING 10081
SWIDTH 823 0
DWIDTH 16 0
BBX 16 16 0 -2
BITMAP
0000
0000
0000
0000
0000
0000
07f0
0410
0410
0410
0410
0410
0410
0410
0000
0000
ENDCHAR
STARTCHAR 2762
ENCODING 10082
SWIDTH 823 0
DWIDTH 16 0
BBX 16 16 0 -2
BITMAP
0000
0000
0000
0000
0000
0000
05c0
0620
0410
0410
0410
0620
05c0
0400
0400
0400
ENDCHAR
STARTCHAR 2763
ENCODING 10083
SWIDTH 823 0
DWIDTH 16 0
BBX 16 16 0 -2
BITMAP
0000
0000
0000
0000
0000
0000
03c0
0420
0800
0800
0800
0800
0420
03c0
0000
0000
ENDCHAR
STARTCHAR 2764
ENCODING 10084
SWIDTH 823 0
DWIDTH 16 0
BBX 16 16 0 -2
BITMAP
0000
0000
0000
0000
0000
0000
0fe0
0100
0100
0100
0100
0100
0100
0100
0000
0000
ENDCHAR
STARTCHAR 2765
ENCODING 10085
SWIDTH 823 0
DWIDTH 16 0
BBX 16 16 0 -2
BITMAP
0000
0000
0000
0000
0000
0000
0410
0410
0220
0220
0140
0140
0080
0080
0100
0600
ENDCHAR
STARTCHAR 2766
ENCODING 10086
SWIDTH 823 0
DWIDTH 16 0
BBX 16 16 0 -2
BITMAP
0000
0000
0000
0100
0100
0100
0d60
1390
2108
2108
2108
2108
1390
0d60
0100
0100
ENDCHAR
STARTCHAR 2767
ENCODING 10087
SWIDTH 823 0
DWIDTH 16 0
BBX 16 16 0 -2
BITMAP
0000
0000
0000
0000
0000
0000
0810
0420
0240
0180
0180
0240
0420
0810
0000
0000
ENDCHAR
STARTCHAR 2768
ENCODING 10088
SWIDTH 823 0
DWIDTH 16 0
BBX 16 16 0 -2
BITMAP
0000
0000
0000
0000
0000
0000
0820
0820
0820
0820
0820
0820
0820
0ff8
0008
0008
ENDCHAR
STARTCHAR 2769
ENCODING 10089
SWIDTH 823 0
DWIDTH 16 0
BBX 16 16 0 -2
BITMAP
0000
0000
0000
0000
0000
0000
0410
0410
0410
0410
03f0
0010
0010
0010
0000
0000
ENDCHAR
STARTCHAR 276a
ENCODING 10090
SWIDTH 823 0
DWIDTH 16 0
BBX 16 16 0 -2
BITMAP
0000
0000
0000
0000
0000
0000
1084
1084
1084
1084
1084
1084
1084
1ffc
0000
0000
ENDCHAR
STARTCHAR 276b
ENCODING 10091
SWIDTH 823 0
DWIDTH 16 0
BBX 16 16 0 -2
BITMAP
0000
0000
0000
0000
0000
0000
2108
2108
2108
2108
2108
2108
2108
3ffe
0002
0002
ENDCHAR
STARTCHAR 276c
ENCODING 10092
SWIDTH 823 0
DWIDTH 16 0
BBX 16 16 0 -2
BITMAP
0000
0000
0000
0000
0000
0000
0f00
0100
0100
01f0
0108
0108
0108
01f0
0000
0000
ENDCHAR
STARTCHAR 276d
ENCODING 10093
SWIDTH 823 0
DWIDTH 16 0
BBX 16 16 0 -2
BITMAP
0000
0000
0000
0000
0000
0000
0808
0808
0808
0f88
0848
0848
0848
0f88
0000
0000
ENDCHAR
STARTCHAR 276e
ENCODING 10094
SWIDTH 823 0
DWIDTH 16 0
BBX 16 16 0 -2
BITMAP
0000
0000
0000
0000
0000
0000
0400
0400
0400
07c0
0420
0420
0420
07c0
0000
0000
ENDCHAR
STARTCHAR 276f
ENCODING 10095
SWIDTH 823 0
DWIDTH 16 0
BBX 16 16 0 -2
BITMAP
0000
0000
0000
0000
0000
0000
07c0
0820
0010
01f0
0010
0010
0820
07c0
0000
0000
ENDCHAR
STARTCHAR 2770
ENCODING 10096
SWIDTH 823 0
DWIDTH 16 0
BBX 16 16 0 -2
BITMAP
0000
0000
0000
0000
0000
0000
10e0
1110
1208
1e08
1208
1208
1110
10e0
0000
0000
ENDCHAR
STARTCHAR 2771
ENCODING 10097
SWIDTH 823 0
DWIDTH 16 0
BBX 16 16 0 -2
BITMAP
0000
0000
0000
0000
0000
0000
03e0
0420
0420
0420
03e0
0120
0220
0c20
0000
0000
ENDCHAR
STARTCHAR 2772
ENCODING 10098
SWIDTH 823 0
DWIDTH 16 0
BBX 16 16 0 -2
BITMAP
0002
0005
0002
1ffc
1004
1004
1004
1004
0004
0004
0008
0008
0010
0060
0180
0000
ENDCHAR
STARTCHAR 2773
ENCODING 10099
SWIDTH 823 0
DWIDTH 16 0
BBX 16 16 0 -2
BITMAP
0000
0022
0025
0022
0ffc
0420
0420
0420
0420
3ffe
0020
0020
0020
0020
0020
0000
ENDCHAR
STARTCHAR 2774
ENCODING 10100
SWIDTH 823 0
DWIDTH 16 0
BBX 16 16 0 -2
BITMAP
0000
0002
0005
0002
0ff8
0008
0010
00a0
0080
0080
0080
0080
3ffe
0000
0000
0000
ENDCHAR
STARTCHAR 2775
ENCODING 10101
SWIDTH 823 0
DWIDTH 16 0
BBX 16 16 0 -2
BITMAP
0002
0005
0002
0ff8
0008
0008
1ff8
0008
0010
0010
0020
0040
0180
0600
0000
0000
ENDCHAR
STARTCHAR 2776
ENCODING 10102
SWIDTH 823 0
DWIDTH 16 0
BBX 16 16 0 -2
BITMAP
001c
00e0
0700
3800
0700
00e0
001c
3ffc
3800
0700
00e0
001c
00e0
0700
3800
0000
ENDCHAR
STARTCHAR 2777
ENCODING 10103
SWIDTH 823 0
DWIDTH 16 0
BBX 16 16 0 -2
BITMAP
3800
0700
00e0
001c
00e0
0700
3800
3ffc
001c
00e0
0700
3800
0700
00e0
001c
0000
ENDCHAR
STARTCHAR 2778
ENCODING 10104
SWIDTH 823 0
DWIDTH 16 0
BBX 16 16 0 -2
BITMAP
0080
0180
0080
0080
0080
0080
0000
1ffc
0000
01c0
0220
00c0
0020
0220
01c0
0000
ENDCHAR
STARTCHAR 2779
ENCODING 10105
SWIDTH 823 0
DWIDTH 16 0
BBX 16 16 0 -2
BITMAP
01c0
0220
0040
0080
0100
03e0
0000
1ffc
0000
01c0
0220
00c0
0020
0220
01c0
0000
ENDCHAR
STARTCHAR 277a
ENCODING 10106
SWIDTH 823 0
DWIDTH 16 0
BBX 16 16 0 -2
BITMAP
0080
0180
0080
0080
0080
0080
0000
3ffc
0000
03c0
0200
03c0
0020
0220
01c0
0000
ENDCHAR
STARTCHAR 277b
ENCODING 10107
SWIDTH 823 0
DWIDTH 16 0
BBX 16 16 0 -2
BITMAP
0000
0000
0000
0004
0008
0010
0020
0040
6080
3100
1b00
0e00
0600
0400
0000
0000
ENDCHAR
STARTCHAR 277c
ENCODING 10108
SWIDTH 823 0
DWIDTH 16 0
BBX 16 16 0 -2
BITMAP
0000
1c1c
2222
2222
2222
1ffc
0220
0220
0220
1ffc
2222
2222
2222
1c1c
0000
0000
ENDCHAR
STARTCHAR 277d
ENCODING 10109
SWIDTH 823 0
DWIDTH 16 0
BBX 16 16 0 -2
BITMAP
0000
0000
0000
0000
0000
0000
0000
0000
0000
0000
0000
4002
4002
4002
7ffe
0000
ENDCHAR
STARTCHAR 277e
ENCODING 10110
SWIDTH 823 0
DWIDTH 16 0
BBX 16 16 0 -2
BITMAP
0000
0000
003e
0022
0022
0222
0622
0a22
13e2
2002
4002
2004
13f8
0a00
0600
0200
ENDCHAR
STARTCHAR 2821
ENCODING 10273
SWIDTH 823 0
DWIDTH 16 0
BBX 16 16 0 -2
BITMAP
0000
0000
0000
0000
0000
0000
0000
ffff
0000
0000
0000
0000
0000
0000
0000
0000
ENDCHAR
STARTCHAR 2822
ENCODING 10274
SWIDTH 823 0
DWIDTH 16 0
BBX 16 16 0 -2
BITMAP
0100
0100
0100
0100
0100
0100
0100
0100
0100
0100
0100
0100
0100
0100
0100
0100
ENDCHAR
STARTCHAR 2823
ENCODING 10275
SWIDTH 823 0
DWIDTH 16 0
BBX 16 16 0 -2
BITMAP
0000
0000
0000
0000
0000
0000
0000
01ff
0100
0100
0100
0100
0100
0100
0100
0100
ENDCHAR
STARTCHAR 2824
ENCODING 10276
SWIDTH 823 0
DWIDTH 16 0
BBX 16 16 0 -2
BITMAP
0000
0000
0000
0000
0000
0000
0000
ff00
0100
0100
0100
0100
0100
0100
0100
0100
ENDCHAR
STARTCHAR 2825
ENCODING 10277
SWIDTH 823 0
DWIDTH 16 0
BBX 16 16 0 -2
BITMAP
0100
0100
0100
0100
0100
0100
0100
ff00
0000
0000
0000
0000
0000
0000
0000
0000
ENDCHAR
STARTCHAR 2826
ENCODING 10278
SWIDTH 823 0
DWIDTH 16 0
BBX 16 16 0 -2
BITMAP
0100
0100
0100
0100
0100
0100
0100
01ff
0000
0000
0000
0000
0000
0000
0000
0000
ENDCHAR
STARTCHAR 2827
ENCODING 10279
SWIDTH 823 0
DWIDTH 16 0
BBX 16 16 0 -2
BITMAP
0100
0100
0100
0100
0100
0100
0100
01ff
0100
0100
0100
0100
0100
0100
0100
0100
ENDCHAR
STARTCHAR 2828
ENCODING 10280
SWIDTH 823 0
DWIDTH 16 0
BBX 16 16 0 -2
BITMAP
0000
0000
0000
0000
0000
0000
0000
ffff
0100
0100
0100
0100
0100
0100
0100
0100
ENDCHAR
STARTCHAR 2829
ENCODING 10281
SWIDTH 823 0
DWIDTH 16 0
BBX 16 16 0 -2
BITMAP
0100
0100
0100
0100
0100
0100
0100
ff00
0100
0100
0100
0100
0100
0100
0100
0100
ENDCHAR
STARTCHAR 282a
ENCODING 10282
SWIDTH 823 0
DWIDTH 16 0
BBX 16 16 0 -2
BITMAP
0100
0100
0100
0100
0100
0100
0100
ffff
0000
0000
0000
0000
0000
0000
0000
0000
ENDCHAR
STARTCHAR 282b
ENCODING 10283
SWIDTH 823 0
DWIDTH 16 0
BBX 16 16 0 -2
BITMAP
0100
0100
0100
0100
0100
0100
0100
ffff
0100
0100
0100
0100
0100
0100
0100
0100
ENDCHAR
STARTCHAR 282c
ENCODING 10284
SWIDTH 823 0
DWIDTH 16 0
BBX 16 16 0 -2
BITMAP
0000
0000
0000
0000
0000
0000
0000
ffff
ffff
0000
0000
0000
0000
0000
0000
0000
ENDCHAR
STARTCHAR 282d
ENCODING 10285
SWIDTH 823 0
DWIDTH 16 0
BBX 16 16 0 -2
BITMAP
0180
0180
0180
0180
0180
0180
0180
0180
0180
0180
0180
0180
0180
0180
0180
0180
ENDCHAR
STARTCHAR 282e
ENCODING 10286
SWIDTH 823 0
DWIDTH 16 0
BBX 16 16 0 -2
BITMAP
0000
0000
0000
0000
0000
0000
0000
01ff
01ff
0180
0180
0180
0180
0180
0180
0180
ENDCHAR
STARTCHAR 282f
ENCODING 10287
SWIDTH 823 0
DWIDTH 16 0
BBX 16 16 0 -2
BITMAP
0000
0000
0000
0000
0000
0000
0000
ff80
ff80
0180
0180
0180
0180
0180
0180
0180
ENDCHAR
STARTCHAR 2830
ENCODING 10288
SWIDTH 823 0
DWIDTH 16 0
BBX 16 16 0 -2
BITMAP
0180
0180
0180
0180
0180
0180
0180
ff80
ff80
0000
0000
0000
0000
0000
0000
0000
ENDCHAR
STARTCHAR 2831
ENCODING 10289
SWIDTH 823 0
DWIDTH 16 0
BBX 16 16 0 -2
BITMAP
0180
0180
0180
0180
0180
0180
0180
01ff
01ff
0000
0000
0000
0000
0000
0000
0000
ENDCHAR
STARTCHAR 2832
ENCODING 10290
SWIDTH 823 0
DWIDTH 16 0
BBX 16 16 0 -2
BITMAP
0180
0180
0180
0180
0180
0180
0180
01ff
01ff
0180
0180
0180
0180
0180
0180
0180
ENDCHAR
STARTCHAR 2833
ENCODING 10291
SWIDTH 823 0
DWIDTH 16 0
BBX 16 16 0 -2
BITMAP
0000
0000
0000
0000
0000
0000
0000
ffff
ffff
0180
0180
0180
0180
0180
0180
0180
ENDCHAR
STARTCHAR 2834
ENCODING 10292
SWIDTH 823 0
DWIDTH 16 0
BBX 16 16 0 -2
BITMAP
0180
0180
0180
0180
0180
0180
0180
ff80
ff80
0180
0180
0180
0180
0180
0180
0180
ENDCHAR
STARTCHAR 2835
ENCODING 10293
SWIDTH 823 0
DWIDTH 16 0
BBX 16 16 0 -2
BITMAP
0180
0180
0180
0180
0180
0180
0180
ffff
ffff
0000
0000
0000
0000
0000
0000
0000
ENDCHAR
STARTCHAR 2836
ENCODING 10294
SWIDTH 823 0
DWIDTH 16 0
BBX 16 16 0 -2
BITMAP
0180
0180
0180
0180
0180
0180
0180
ffff
ffff
0180
0180
0180
0180
0180
0180
0180
ENDCHAR
STARTCHAR 2837
ENCODING 10295
SWIDTH 823 0
DWIDTH 16 0
BBX 16 16 0 -2
BITMAP
0180
0180
0180
0180
0180
0180
0180
01ff
0180
0180
0180
0180
0180
0180
0180
0180
ENDCHAR
STARTCHAR 2838
ENCODING 10296
SWIDTH 823 0
DWIDTH 16 0
BBX 16 16 0 -2
BITMAP
0000
0000
0000
0000
0000
0000
0000
ffff
ffff
0100
0100
0100
0100
0100
0100
0100
ENDCHAR
STARTCHAR 2839
ENCODING 10297
SWIDTH 823 0
DWIDTH 16 0
BBX 16 16 0 -2
BITMAP
0180
0180
0180
0180
0180
0180
0180
ff80
0180
0180
0180
0180
0180
0180
0180
0180
ENDCHAR
STARTCHAR 283a
ENCODING 10298
SWIDTH 823 0
DWIDTH 16 0
BBX 16 16 0 -2
BITMAP
0100
0100
0100
0100
0100
0100
0100
ffff
ffff
0000
0000
0000
0000
0000
0000
0000
ENDCHAR
STARTCHAR 283b
ENCODING 10299
SWIDTH 823 0
DWIDTH 16 0
BBX 16 16 0 -2
BITMAP
0100
0100
0100
0100
0100
0100
0100
ffff
ffff
0100
0100
0100
0100
0100
0100
0100
ENDCHAR
STARTCHAR 283c
ENCODING 10300
SWIDTH 823 0
DWIDTH 16 0
BBX 16 16 0 -2
BITMAP
0100
0100
0100
0100
0100
0100
0100
01ff
01ff
0100
0100
0100
0100
0100
0100
0100
ENDCHAR
STARTCHAR 283d
ENCODING 10301
SWIDTH 823 0
DWIDTH 16 0
BBX 16 16 0 -2
BITMAP
0000
0000
0000
0000
0000
0000
0000
ffff
0180
0180
0180
0180
0180
0180
0180
0180
ENDCHAR
STARTCHAR 283e
ENCODING 10302
SWIDTH 823 0
DWIDTH 16 0
BBX 16 16 0 -2
BITMAP
0100
0100
0100
0100
0100
0100
0100
ff00
ff00
0100
0100
0100
0100
0100
0100
0100
ENDCHAR
STARTCHAR 283f
ENCODING 10303
SWIDTH 823 0
DWIDTH 16 0
BBX 16 16 0 -2
BITMAP
0180
0180
0180
0180
0180
0180
0180
ffff
0000
0000
0000
0000
0000
0000
0000
0000
ENDCHAR
STARTCHAR 2840
ENCODING 10304
SWIDTH 823 0
DWIDTH 16 0
BBX 16 16 0 -2
BITMAP
0180
0180
0180
0180
0180
0180
0180
ffff
0180
0180
0180
0180
0180
0180
0180
0180
ENDCHAR
STARTCHAR 2841
ENCODING 10305
SWIDTH 823 0
DWIDTH 16 0
BBX 16 16 0 -2
BITMAP
03e0
0c18
1004
2312
24b2
4091
4091
4111
4211
4411
2412
2792
1004
0c18
03e0
0000
ENDCHAR
STARTCHAR 2842
ENCODING 10306
SWIDTH 823 0
DWIDTH 16 0
BBX 16 16 0 -2
BITMAP
03e0
0c18
1004
2632
294a
4109
4109
4211
4421
4841
2842
2f7a
1004
0c18
03e0
0000
ENDCHAR
STARTCHAR 2843
ENCODING 10307
SWIDTH 823 0
DWIDTH 16 0
BBX 16 16 0 -2
BITMAP
03e0
0c18
1004
2632
294a
4109
4109
4231
4409
4849
284a
2f32
1004
0c18
03e0
0000
ENDCHAR
STARTCHAR 2844
ENCODING 10308
SWIDTH 823 0
DWIDTH 16 0
BBX 16 16 0 -2
BITMAP
03e0
0c18
1004
260a
291a
4129
4129
4249
447d
4809
280a
2f0a
1004
0c18
03e0
0000
ENDCHAR
STARTCHAR 2845
ENCODING 10309
SWIDTH 823 0
DWIDTH 16 0
BBX 16 16 0 -2
BITMAP
03e0
0c18
1004
267a
2942
4141
4141
4231
4409
4809
284a
2f32
1004
0c18
03e0
0000
ENDCHAR
STARTCHAR 2846
ENCODING 10310
SWIDTH 823 0
DWIDTH 16 0
BBX 16 16 0 -2
BITMAP
03e0
0c18
1004
2632
294a
4141
4141
4271
4449
4849
284a
2f32
1004
0c18
03e0
0000
ENDCHAR
STARTCHAR 2847
ENCODING 10311
SWIDTH 823 0
DWIDTH 16 0
BBX 16 16 0 -2
BITMAP
03e0
0c18
1004
267a
290a
4109
4109
4209
4411
4811
2812
2f12
1004
0c18
03e0
0000
ENDCHAR
STARTCHAR 2848
ENCODING 10312
SWIDTH 823 0
DWIDTH 16 0
BBX 16 16 0 -2
BITMAP
03e0
0c18
1004
2632
294a
4149
4149
4231
4449
4849
284a
2f32
1004
0c18
03e0
0000
ENDCHAR
STARTCHAR 2849
ENCODING 10313
SWIDTH 823 0
DWIDTH 16 0
BBX 16 16 0 -2
BITMAP
03e0
0c18
1004
2632
294a
4149
4149
4239
4411
4811
2812
2f12
1004
0c18
03e0
0000
ENDCHAR
STARTCHAR 284a
ENCODING 10314
SWIDTH 823 0
DWIDTH 16 0
BBX 16 16 0 -2
BITMAP
03e0
0c18
1004
2632
294a
4149
4149
4649
4149
4949
294a
2632
1004
0c18
03e0
0000
ENDCHAR
STARTCHAR 284b
ENCODING 10315
SWIDTH 823 0
DWIDTH 16 0
BBX 16 16 0 -2
BITMAP
03e0
0c18
1004
2612
2932
4111
4111
4611
4111
4911
2912
2612
1004
0c18
03e0
0000
ENDCHAR
STARTCHAR 284c
ENCODING 10316
SWIDTH 823 0
DWIDTH 16 0
BBX 16 16 0 -2
BITMAP
03e0
0c18
1004
2632
294a
4109
4109
4611
4121
4941
2942
267a
1004
0c18
03e0
0000
ENDCHAR
STARTCHAR 284d
ENCODING 10317
SWIDTH 823 0
DWIDTH 16 0
BBX 16 16 0 -2
BITMAP
03e0
0c18
1004
2632
294a
4109
4109
4631
4109
4949
294a
2632
1004
0c18
03e0
0000
ENDCHAR
STARTCHAR 284e
ENCODING 10318
SWIDTH 823 0
DWIDTH 16 0
BBX 16 16 0 -2
BITMAP
03e0
0c18
1004
260a
291a
4129
4129
4649
417d
4909
290a
260a
1004
0c18
03e0
0000
ENDCHAR
STARTCHAR 284f
ENCODING 10319
SWIDTH 823 0
DWIDTH 16 0
BBX 16 16 0 -2
BITMAP
03e0
0c18
1004
267a
2942
4141
4171
4609
4109
4909
294a
2632
1004
0c18
03e0
0000
ENDCHAR
STARTCHAR 2850
ENCODING 10320
SWIDTH 823 0
DWIDTH 16 0
BBX 16 16 0 -2
BITMAP
03e0
0c18
1004
2632
2942
4141
4141
4671
4149
4949
294a
2632
1004
0c18
03e0
0000
ENDCHAR
STARTCHAR 2851
ENCODING 10321
SWIDTH 823 0
DWIDTH 16 0
BBX 16 16 0 -2
BITMAP
03e0
0c18
1004
267a
290a
4109
4109
4609
4111
4911
2912
2612
1004
0c18
03e0
0000
ENDCHAR
STARTCHAR 2852
ENCODING 10322
SWIDTH 823 0
DWIDTH 16 0
BBX 16 16 0 -2
BITMAP
03e0
0c18
1004
2632
294a
4149
4149
4631
4149
4949
294a
2632
1004
0c18
03e0
0000
ENDCHAR
STARTCHAR 2853
ENCODING 10323
SWIDTH 823 0
DWIDTH 16 0
BBX 16 16 0 -2
BITMAP
03e0
0c18
1004
2632
294a
4149
4149
4639
4111
4911
2912
2612
1004
0c18
03e0
0000
ENDCHAR
STARTCHAR 2854
ENCODING 10324
SWIDTH 823 0
DWIDTH 16 0
BBX 16 16 0 -2
BITMAP
03e0
0c18
1004
2132
234a
4549
4549
4949
4fc9
4149
214a
2132
1004
0c18
03e0
0000
ENDCHAR
STARTCHAR 2855
ENCODING 10325
SWIDTH 823 0
DWIDTH 16 0
BBX 16 16 0 -2
BITMAP
03e0
0c18
1004
2112
2332
4511
4511
4911
4f91
4111
2112
2112
1004
0c18
03e0
0000
ENDCHAR
STARTCHAR 2856
ENCODING 10326
SWIDTH 823 0
DWIDTH 16 0
BBX 16 16 0 -2
BITMAP
03e0
0c18
1004
2132
234a
4509
4509
4911
4fa1
4121
2142
217a
1004
0c18
03e0
0000
ENDCHAR
STARTCHAR 2857
ENCODING 10327
SWIDTH 823 0
DWIDTH 16 0
BBX 16 16 0 -2
BITMAP
03e0
0c18
1004
2132
234a
4509
4509
4931
4f89
4149
214a
2132
1004
0c18
03e0
0000
ENDCHAR
STARTCHAR 2858
ENCODING 10328
SWIDTH 823 0
DWIDTH 16 0
BBX 16 16 0 -2
BITMAP
03e0
0c18
1004
220a
261a
4a29
4a29
5249
5f7d
4209
220a
220a
1004
0c18
03e0
0000
ENDCHAR
STARTCHAR 2859
ENCODING 10329
SWIDTH 823 0
DWIDTH 16 0
BBX 16 16 0 -2
BITMAP
03e0
0c18
1004
217a
2342
4541
4571
4909
4f89
4149
214a
2132
1004
0c18
03e0
0000
ENDCHAR
STARTCHAR 285a
ENCODING 10330
SWIDTH 823 0
DWIDTH 16 0
BBX 16 16 0 -2
BITMAP
03e0
0c18
1004
2132
234a
4541
4541
4971
4fc9
4149
214a
2132
1004
0c18
03e0
0000
ENDCHAR
STARTCHAR 285b
ENCODING 10331
SWIDTH 823 0
DWIDTH 16 0
BBX 16 16 0 -2
BITMAP
03e0
0c18
1004
217a
230a
4509
4509
4911
4f91
4111
2112
2112
1004
0c18
03e0
0000
ENDCHAR
STARTCHAR 285c
ENCODING 10332
SWIDTH 823 0
DWIDTH 16 0
BBX 16 16 0 -2
BITMAP
03e0
0c18
1004
2132
234a
4549
4549
4931
4fc9
4149
214a
2132
1004
0c18
03e0
0000
ENDCHAR
STARTCHAR 285d
ENCODING 10333
SWIDTH 823 0
DWIDTH 16 0
BBX 16 16 0 -2
BITMAP
03e0
0c18
1004
2132
234a
4549
4549
4931
4f91
4111
2112
2112
1004
0c18
03e0
0000
ENDCHAR
STARTCHAR 285e
ENCODING 10334
SWIDTH 823 0
DWIDTH 16 0
BBX 16 16 0 -2
BITMAP
03e0
0c18
1004
2f32
284a
4849
4e49
4149
4149
4949
294a
2632
1004
0c18
03e0
0000
ENDCHAR
STARTCHAR 2867
ENCODING 10343
SWIDTH 823 0
DWIDTH 16 0
BBX 16 16 0 -2
BITMAP
03e0
0f98
1f84
3f82
3f82
7f81
7f81
7f81
7f81
7f81
3f82
3f82
1f84
0f98
03e0
0000
ENDCHAR
STARTCHAR 2868
ENCODING 10344
SWIDTH 823 0
DWIDTH 16 0
BBX 16 16 0 -2
BITMAP
03e0
0cf8
10fc
20fe
20fe
40ff
40ff
40ff
40ff
40ff
20fe
20fe
10fc
0cf8
03e0
0000
ENDCHAR
STARTCHAR 2869
ENCODING 10345
SWIDTH 823 0
DWIDTH 16 0
BBX 16 16 0 -2
BITMAP
03e0
0c18
1004
2002
2002
4001
4001
7fff
7fff
7fff
3ffe
3ffe
1ffc
0ff8
03e0
0000
ENDCHAR
STARTCHAR 286a
ENCODING 10346
SWIDTH 823 0
DWIDTH 16 0
BBX 16 16 0 -2
BITMAP
03e0
0ff8
1ffc
3ffe
3ffe
7fff
7fff
7fff
4001
4001
2002
2002
1004
0c18
03e0
0000
ENDCHAR
STARTCHAR 286b
ENCODING 10347
SWIDTH 823 0
DWIDTH 16 0
BBX 16 16 0 -2
BITMAP
0000
0420
0420
0420
0420
0420
0420
0420
0420
0420
0000
0000
0c30
0c30
0000
0000
ENDCHAR
STARTCHAR 286c
ENCODING 10348
SWIDTH 823 0
DWIDTH 16 0
BBX 16 16 0 -2
BITMAP
0000
1e3c
2142
2142
2142
0102
060c
0810
0810
0810
0000
0000
1818
1818
0000
0000
ENDCHAR
STARTCHAR 286d
ENCODING 10349
SWIDTH 823 0
DWIDTH 16 0
BBX 16 16 0 -2
BITMAP
0000
0f10
1090
1090
1090
0090
0310
0410
0410
0410
0000
0000
0c18
0c18
0000
0000
ENDCHAR
STARTCHAR 286e
ENCODING 10350
SWIDTH 823 0
DWIDTH 16 0
BBX 16 16 0 -2
BITMAP
0000
0878
0884
0884
0884
0804
0818
0820
0820
0820
0000
0000
1830
1830
0000
0000
ENDCHAR
STARTCHAR 286f
ENCODING 10351
SWIDTH 823 0
DWIDTH 16 0
BBX 16 16 0 -2
BITMAP
0220
0140
0080
0080
0140
0140
0220
0220
0410
07f0
0808
0808
1004
1004
0000
0000
ENDCHAR
STARTCHAR 2870
ENCODING 10352
SWIDTH 823 0
DWIDTH 16 0
BBX 16 16 0 -2
BITMAP
0000
0220
0140
0080
0000
03e0
0410
0010
01f0
0210
0410
0410
0430
03c8
0000
0000
ENDCHAR
STARTCHAR 2871
ENCODING 10353
SWIDTH 823 0
DWIDTH 16 0
BBX 16 16 0 -2
BITMAP
0000
0000
0220
0140
0080
0000
0080
0080
0080
0080
0080
0080
0080
0080
0000
0000
ENDCHAR
STARTCHAR 2872
ENCODING 10354
SWIDTH 823 0
DWIDTH 16 0
BBX 16 16 0 -2
BITMAP
00c0
188c
190c
1414
1414
1414
1224
1224
1224
1144
1144
1084
1084
1004
0000
0000
ENDCHAR
STARTCHAR 2873
ENCODING 10355
SWIDTH 823 0
DWIDTH 16 0
BBX 16 16 0 -2
BITMAP
0000
0000
00c0
0080
0100
0000
1738
18c4
1084
1084
1084
1084
1084
1084
0000
0000
ENDCHAR
STARTCHAR 2874
ENCODING 10356
SWIDTH 823 0
DWIDTH 16 0
BBX 16 16 0 -2
BITMAP
0180
1888
1c48
1408
1208
1208
1108
1088
1048
1048
1028
1018
1018
1008
0000
0000
ENDCHAR
STARTCHAR 2875
ENCODING 10357
SWIDTH 823 0
DWIDTH 16 0
BBX 16 16 0 -2
BITMAP
0000
0000
0180
0080
0040
0000
05c0
0620
0410
0410
0410
0410
0410
0410
0000
0000
ENDCHAR
STARTCHAR 2876
ENCODING 10358
SWIDTH 823 0
DWIDTH 16 0
BBX 16 16 0 -2
BITMAP
0220
0140
0080
01c0
0630
0808
0808
1004
1004
1004
0808
0808
0630
01c0
0000
0000
ENDCHAR
STARTCHAR 2877
ENCODING 10359
SWIDTH 823 0
DWIDTH 16 0
BBX 16 16 0 -2
BITMAP
0000
0000
0440
0280
0100
0000
03c0
0420
0810
0810
0810
0810
0420
03c0
0000
0000
ENDCHAR
STARTCHAR 2878
ENCODING 10360
SWIDTH 823 0
DWIDTH 16 0
BBX 16 16 0 -2
BITMAP
0000
0000
0220
0140
0080
0000
0410
0410
0410
0410
0410
0410
0230
01d0
0000
0000
ENDCHAR
STARTCHAR 2879
ENCODING 10361
SWIDTH 823 0
DWIDTH 16 0
BBX 16 16 0 -2
BITMAP
0000
03e0
0000
0360
0360
0000
0410
0410
0410
0410
0410
0410
0230
01d0
0000
0000
ENDCHAR
STARTCHAR 287a
ENCODING 10362
SWIDTH 823 0
DWIDTH 16 0
BBX 16 16 0 -2
BITMAP
0060
0040
0080
0360
0360
0000
0410
0410
0410
0410
0410
0410
0230
01d0
0000
0000
ENDCHAR
STARTCHAR 287b
ENCODING 10363
SWIDTH 823 0
DWIDTH 16 0
BBX 16 16 0 -2
BITMAP
0220
0140
0080
0360
0360
0000
0410
0410
0410
0410
0410
0410
0230
01d0
0000
0000
ENDCHAR
STARTCHAR 287c
ENCODING 10364
SWIDTH 823 0
DWIDTH 16 0
BBX 16 16 0 -2
BITMAP
0300
0100
0080
0360
0360
0000
0410
0410
0410
0410
0410
0410
0230
01d0
0000
0000
ENDCHAR
STARTCHAR 2921
ENCODING 10529
SWIDTH 823 0
DWIDTH 16 0
BBX 16 16 0 -2
BITMAP
0000
01e0
0618
0804
0800
1000
7ff0
1000
7fe0
1000
0800
0804
0618
01e0
0000
0000
ENDCHAR
STARTCHAR 2922
ENCODING 10530
SWIDTH 823 0
DWIDTH 16 0
BBX 16 16 0 -2
BITMAP
0000
0000
0000
0000
0000
0000
0000
0000
0000
0000
0000
0000
0000
0000
0000
aaaa
ENDCHAR
STARTCHAR 2923
ENCODING 10531
SWIDTH 823 0
DWIDTH 16 0
BBX 16 16 0 -2
BITMAP
0000
01c0
01c0
0000
0000
0080
0080
0080
0080
0080
0080
0080
0080
0080
0000
0000
ENDCHAR
STARTCHAR 2924
ENCODING 10532
SWIDTH 823 0
DWIDTH 16 0
BBX 16 16 0 -2
BITMAP
0000
0000
2004
1008
0bd0
0420
0810
0810
0810
0810
0420
0bd0
1008
2004
0000
0000
ENDCHAR
STARTCHAR 2925
ENCODING 10533
SWIDTH 823 0
DWIDTH 16 0
BBX 16 16 0 -2
BITMAP
0000
0080
0080
0080
0080
0080
0080
0000
0000
0080
0080
0080
0080
0080
0080
0000
ENDCHAR
STARTCHAR 2926
ENCODING 10534
SWIDTH 823 0
DWIDTH 16 0
BBX 16 16 0 -2
BITMAP
03e0
0c18
1004
21c2
2222
4401
4401
4401
4401
4401
2212
21e2
1004
0c18
03e0
0000
ENDCHAR
STARTCHAR 2927
ENCODING 10535
SWIDTH 823 0
DWIDTH 16 0
BBX 16 16 0 -2
BITMAP
01c0
0220
0020
03e0
0420
0460
03a0
0000
0000
0000
0000
0000
0000
0000
0000
0000
ENDCHAR
STARTCHAR 2928
ENCODING 10536
SWIDTH 823 0
DWIDTH 16 0
BBX 16 16 0 -2
BITMAP
0000
0000
0000
0000
0000
0000
0022
0044
0088
0110
0088
0044
0022
0000
0000
0000
ENDCHAR
STARTCHAR 2929
ENCODING 10537
SWIDTH 823 0
DWIDTH 16 0
BBX 16 16 0 -2
BITMAP
0000
0000
0000
0000
0000
0000
0000
7f00
0000
0000
0000
0000
0000
0000
0000
0000
ENDCHAR
STARTCHAR 292a
ENCODING 10538
SWIDTH 823 0
DWIDTH 16 0
BBX 16 16 0 -2
BITMAP
03e0
0c18
1004
23e2
2212
4211
4211
43e1
4241
4221
2212
2212
1004
0c18
03e0
0000
ENDCHAR
STARTCHAR 292b
ENCODING 10539
SWIDTH 823 0
DWIDTH 16 0
BBX 16 16 0 -2
BITMAP
0000
0000
0ff0
0000
0000
0000
0000
0000
0000
0000
0000
0000
0000
0000
0000
0000
ENDCHAR
STARTCHAR 292c
ENCODING 10540
SWIDTH 823 0
DWIDTH 16 0
BBX 16 16 0 -2
BITMAP
0380
0440
0040
0080
0100
0200
07c0
0000
0000
0000
0000
0000
0000
0000
0000
0000
ENDCHAR
STARTCHAR 292d
ENCODING 10541
SWIDTH 823 0
DWIDTH 16 0
BBX 16 16 0 -2
BITMAP
01c0
0220
0020
01c0
0020
0220
01c0
0000
0000
0000
0000
0000
0000
0000
0000
0000
ENDCHAR
STARTCHAR 292e
ENCODING 10542
SWIDTH 823 0
DWIDTH 16 0
BBX 16 16 0 -2
BITMAP
0000
0000
0000
0000
0000
0180
03c0
03c0
0180
0000
0000
0000
0000
0000
0000
0000
ENDCHAR
STARTCHAR 292f
ENCODING 10543
SWIDTH 823 0
DWIDTH 16 0
BBX 16 16 0 -2
BITMAP
0000
0000
0000
0000
0000
0000
0000
0000
0000
0000
0000
0080
00c0
0020
0120
00c0
ENDCHAR
STARTCHAR 2930
ENCODING 10544
SWIDTH 823 0
DWIDTH 16 0
BBX 16 16 0 -2
BITMAP
0080
0180
0080
0080
0080
0080
0080
0000
0000
0000
0000
0000
0000
0000
0000
0000
ENDCHAR
STARTCHAR 2931
ENCODING 10545
SWIDTH 823 0
DWIDTH 16 0
BBX 16 16 0 -2
BITMAP
0380
0440
0820
0820
0820
0440
0380
0000
0000
0000
0000
0000
0000
0000
0000
0000
ENDCHAR
STARTCHAR 2932
ENCODING 10546
SWIDTH 823 0
DWIDTH 16 0
BBX 16 16 0 -2
BITMAP
0000
0000
0000
0000
0000
0000
0110
0088
0044
0022
0044
0088
0110
0000
0000
0000
ENDCHAR
STARTCHAR 2933
ENCODING 10547
SWIDTH 823 0
DWIDTH 16 0
BBX 16 16 0 -2
BITMAP
0080
0180
0080
0080
0080
0080
0000
1ffc
0040
00c0
0140
0240
07f0
0040
0040
0000
ENDCHAR
STARTCHAR 2934
ENCODING 10548
SWIDTH 823 0
DWIDTH 16 0
BBX 16 16 0 -2
BITMAP
0080
0180
0080
0080
0080
0080
0000
1ffc
0000
01c0
0220
0040
0080
0100
03e0
0000
ENDCHAR
STARTCHAR 2935
ENCODING 10549
SWIDTH 823 0
DWIDTH 16 0
BBX 16 16 0 -2
BITMAP
01c0
0220
00c0
0020
0220
01c0
0000
1ffc
0040
00c0
0140
0240
07f0
0040
0040
0000
ENDCHAR
STARTCHAR 2936
ENCODING 10550
SWIDTH 823 0
DWIDTH 16 0
BBX 16 16 0 -2
BITMAP
0000
01c0
01c0
0000
0000
0080
0080
0080
0300
0400
0810
0810
0420
03c0
0000
0000
ENDCHAR
STARTCHAR 2937
ENCODING 10551
SWIDTH 823 0
DWIDTH 16 0
BBX 16 16 0 -2
BITMAP
0180
0080
0040
0080
0140
0140
0220
0220
07f0
0410
0808
0808
1004
1004
0000
0000
ENDCHAR
STARTCHAR 2938
ENCODING 10552
SWIDTH 823 0
DWIDTH 16 0
BBX 16 16 0 -2
BITMAP
00c0
0080
0100
0080
0140
0140
0220
0220
07f0
0410
0808
0808
1004
1004
0000
0000
ENDCHAR
STARTCHAR 2939
ENCODING 10553
SWIDTH 823 0
DWIDTH 16 0
BBX 16 16 0 -2
BITMAP
0080
0140
0220
0080
0140
0140
0220
0220
07f0
0410
0808
0808
1004
1004
0000
0000
ENDCHAR
STARTCHAR 293a
ENCODING 10554
SWIDTH 823 0
DWIDTH 16 0
BBX 16 16 0 -2
BITMAP
0390
0460
0000
0080
0140
0140
0220
0220
07f0
0410
0808
0808
1004
1004
0000
0000
ENDCHAR
STARTCHAR 293b
ENCODING 10555
SWIDTH 823 0
DWIDTH 16 0
BBX 16 16 0 -2
BITMAP
0360
0360
0000
0080
0140
0140
0220
0220
07f0
0410
0808
0808
1004
1004
0000
0000
ENDCHAR
STARTCHAR 293c
ENCODING 10556
SWIDTH 823 0
DWIDTH 16 0
BBX 16 16 0 -2
BITMAP
01c0
0220
01c0
0080
0140
0140
0220
0220
07f0
0410
0808
0808
1004
1004
0000
0000
ENDCHAR
STARTCHAR 293d
ENCODING 10557
SWIDTH 823 0
DWIDTH 16 0
BBX 16 16 0 -2
BITMAP
0000
01f8
0180
0280
0280
0480
0480
08f0
0880
0f80
1080
1080
2080
20fc
0000
0000
ENDCHAR
STARTCHAR 293e
ENCODING 10558
SWIDTH 823 0
DWIDTH 16 0
BBX 16 16 0 -2
BITMAP
0000
01e0
0618
0804
0800
1000
1000
1000
1000
1000
0804
0804
0618
01e0
0040
03c0
ENDCHAR
STARTCHAR 293f
ENCODING 10559
SWIDTH 823 0
DWIDTH 16 0
BBX 16 16 0 -2
BITMAP
0300
0100
0080
0ff0
0800
0800
0800
0800
0fc0
0800
0800
0800
0800
0ff8
0000
0000
ENDCHAR
STARTCHAR 2940
ENCODING 10560
SWIDTH 823 0
DWIDTH 16 0
BBX 16 16 0 -2
BITMAP
00c0
0080
0100
0ff0
0800
0800
0800
0800
0fc0
0800
0800
0800
0800
0ff8
0000
0000
ENDCHAR
STARTCHAR 2941
ENCODING 10561
SWIDTH 823 0
DWIDTH 16 0
BBX 16 16 0 -2
BITMAP
0100
0280
0000
0ff0
0800
0800
0800
0800
0fc0
0800
0800
0800
0800
0ff8
0000
0000
ENDCHAR
STARTCHAR 2942
ENCODING 10562
SWIDTH 823 0
DWIDTH 16 0
BBX 16 16 0 -2
BITMAP
0660
0660
0000
0ff0
0800
0800
0800
0800
0fc0
0800
0800
0800
0800
0ff8
0000
0000
ENDCHAR
STARTCHAR 2943
ENCODING 10563
SWIDTH 823 0
DWIDTH 16 0
BBX 16 16 0 -2
BITMAP
0300
0100
0080
0100
0100
0100
0100
0100
0100
0100
0100
0100
0100
0100
0000
0000
ENDCHAR
STARTCHAR 2944
ENCODING 10564
SWIDTH 823 0
DWIDTH 16 0
BBX 16 16 0 -2
BITMAP
0180
0100
0200
0100
0100
0100
0100
0100
0100
0100
0100
0100
0100
0100
0000
0000
ENDCHAR
STARTCHAR 2945
ENCODING 10565
SWIDTH 823 0
DWIDTH 16 0
BBX 16 16 0 -2
BITMAP
0100
0280
0440
0100
0100
0100
0100
0100
0100
0100
0100
0100
0100
0100
0000
0000
ENDCHAR
STARTCHAR 2946
ENCODING 10566
SWIDTH 823 0
DWIDTH 16 0
BBX 16 16 0 -2
BITMAP
06c0
06c0
0000
0100
0100
0100
0100
0100
0100
0100
0100
0100
0100
0100
0000
0000
ENDCHAR
STARTCHAR 2947
ENCODING 10567
SWIDTH 823 0
DWIDTH 16 0
BBX 16 16 0 -2
BITMAP
0000
0fc0
0830
0808
0808
0804
0804
3e04
0804
0804
0808
0808
0830
0fc0
0000
0000
ENDCHAR
STARTCHAR 2948
ENCODING 10568
SWIDTH 823 0
DWIDTH 16 0
BBX 16 16 0 -2
BITMAP
0320
04c0
1008
1808
1808
1408
1208
1108
1088
1048
1028
1018
1018
1008
0000
0000
ENDCHAR
STARTCHAR 2949
ENCODING 10569
SWIDTH 823 0
DWIDTH 16 0
BBX 16 16 0 -2
BITMAP
0180
0080
0040
01c0
0630
0808
0808
1004
1004
1004
0808
0808
0630
01c0
0000
0000
ENDCHAR
STARTCHAR 294a
ENCODING 10570
SWIDTH 823 0
DWIDTH 16 0
BBX 16 16 0 -2
BITMAP
00c0
0080
0100
01c0
0630
0808
0808
1004
1004
1004
0808
0808
0630
01c0
0000
0000
ENDCHAR
STARTCHAR 294b
ENCODING 10571
SWIDTH 823 0
DWIDTH 16 0
BBX 16 16 0 -2
BITMAP
0080
0140
0220
01c0
0630
0808
0808
1004
1004
1004
0808
0808
0630
01c0
0000
0000
ENDCHAR
STARTCHAR 294c
ENCODING 10572
SWIDTH 823 0
DWIDTH 16 0
BBX 16 16 0 -2
BITMAP
0190
0260
0000
01c0
0630
0808
0808
1004
1004
1004
0808
0808
0630
01c0
0000
0000
ENDCHAR
STARTCHAR 294d
ENCODING 10573
SWIDTH 823 0
DWIDTH 16 0
BBX 16 16 0 -2
BITMAP
0360
0360
0000
01c0
0630
0808
0808
1004
1004
1004
0808
0808
0630
01c0
0000
0000
ENDCHAR
STARTCHAR 294e
ENCODING 10574
SWIDTH 823 0
DWIDTH 16 0
BBX 16 16 0 -2
BITMAP
0000
03c2
0c34
1008
1014
2024
2044
2084
2104
2204
1408
0808
1430
23c0
0000
0000
ENDCHAR
STARTCHAR 294f
ENCODING 10575
SWIDTH 823 0
DWIDTH 16 0
BBX 16 16 0 -2
BITMAP
0180
0080
0040
0808
0808
0808
0808
0808
0808
0808
0808
0808
0410
03e0
0000
0000
ENDCHAR
STARTCHAR 2950
ENCODING 10576
SWIDTH 823 0
DWIDTH 16 0
BBX 16 16 0 -2
BITMAP
00c0
0080
0100
0808
0808
0808
0808
0808
0808
0808
0808
0808
0410
03e0
0000
0000
ENDCHAR
STARTCHAR 2951
ENCODING 10577
SWIDTH 823 0
DWIDTH 16 0
BBX 16 16 0 -2
BITMAP
0080
0140
0220
0808
0808
0808
0808
0808
0808
0808
0808
0808
0410
03e0
0000
0000
ENDCHAR
STARTCHAR 2952
ENCODING 10578
SWIDTH 823 0
DWIDTH 16 0
BBX 16 16 0 -2
BITMAP
0360
0360
0000
0808
0808
0808
0808
0808
0808
0808
0808
0808
0410
03e0
0000
0000
ENDCHAR
STARTCHAR 2953
ENCODING 10579
SWIDTH 823 0
DWIDTH 16 0
BBX 16 16 0 -2
BITMAP
00c0
0080
0100
0808
0410
0220
0220
0140
0140
0080
0080
0080
0080
0080
0000
0000
ENDCHAR
STARTCHAR 2954
ENCODING 10580
SWIDTH 823 0
DWIDTH 16 0
BBX 16 16 0 -2
BITMAP
0000
0400
0400
0400
07f0
0408
0404
0404
0404
0408
07f0
0400
0400
0400
0000
0000
ENDCHAR
STARTCHAR 2955
ENCODING 10581
SWIDTH 823 0
DWIDTH 16 0
BBX 16 16 0 -2
BITMAP
0000
01c0
0220
0410
0410
0420
05c0
0420
0410
0410
0410
0410
0920
08c0
0000
0000
ENDCHAR
STARTCHAR 2956
ENCODING 10582
SWIDTH 823 0
DWIDTH 16 0
BBX 16 16 0 -2
BITMAP
0000
0180
0080
0040
0000
03e0
0410
0010
01f0
0210
0410
0410
0430
03c8
0000
0000
ENDCHAR
STARTCHAR 2957
ENCODING 10583
SWIDTH 823 0
DWIDTH 16 0
BBX 16 16 0 -2
BITMAP
0000
00c0
0080
0100
0000
03e0
0410
0010
01f0
0210
0410
0410
0430
03c8
0000
0000
ENDCHAR
STARTCHAR 2958
ENCODING 10584
SWIDTH 823 0
DWIDTH 16 0
BBX 16 16 0 -2
BITMAP
0000
0080
0140
0220
0000
03e0
0410
0010
01f0
0210
0410
0410
0430
03c8
0000
0000
ENDCHAR
STARTCHAR 2959
ENCODING 10585
SWIDTH 823 0
DWIDTH 16 0
BBX 16 16 0 -2
BITMAP
0000
0000
0388
0470
0000
03e0
0410
0010
01f0
0210
0410
0410
0430
03c8
0000
0000
ENDCHAR
STARTCHAR 295a
ENCODING 10586
SWIDTH 823 0
DWIDTH 16 0
BBX 16 16 0 -2
BITMAP
0000
0000
0630
0630
0000
03e0
0410
0010
01f0
0210
0410
0410
0430
03c8
0000
0000
ENDCHAR
STARTCHAR 295b
ENCODING 10587
SWIDTH 823 0
DWIDTH 16 0
BBX 16 16 0 -2
BITMAP
0000
01c0
0220
01c0
0000
03e0
0410
0010
01f0
0210
0410
0410
0430
03c8
0000
0000
ENDCHAR
STARTCHAR 295c
ENCODING 10588
SWIDTH 823 0
DWIDTH 16 0
BBX 16 16 0 -2
BITMAP
0000
0000
0000
0000
0000
0000
0f38
10c4
0082
0ffe
1080
2080
21c2
1ebc
0000
0000
ENDCHAR
STARTCHAR 295d
ENCODING 10589
SWIDTH 823 0
DWIDTH 16 0
BBX 16 16 0 -2
BITMAP
0000
0000
0000
0000
0000
0000
01e0
0210
0400
0400
0400
0400
0210
01e0
0040
01c0
ENDCHAR
STARTCHAR 295e
ENCODING 10590
SWIDTH 823 0
DWIDTH 16 0
BBX 16 16 0 -2
BITMAP
0000
0000
0180
0080
0040
0000
01c0
0220
0410
07f0
0400
0400
0210
01e0
0000
0000
ENDCHAR
STARTCHAR 295f
ENCODING 10591
SWIDTH 823 0
DWIDTH 16 0
BBX 16 16 0 -2
BITMAP
0000
0000
00c0
0080
0100
0000
01c0
0220
0410
07f0
0400
0400
0210
01e0
0000
0000
ENDCHAR
STARTCHAR 2960
ENCODING 10592
SWIDTH 823 0
DWIDTH 16 0
BBX 16 16 0 -2
BITMAP
0000
0000
0000
0000
0000
0000
0000
0000
0000
0000
0000
0000
0000
0000
0000
0000
ENDCHAR
STARTCHAR 2960
ENCODING 10592
SWIDTH 823 0
DWIDTH 16 0
BBX 16 16 0 -2
BITMAP
0000
0000
0100
0280
0440
0000
0380
0440
0820
0fe0
0800
0800
0420
03c0
0000
0000
ENDCHAR
STARTCHAR 2961
ENCODING 10593
SWIDTH 823 0
DWIDTH 16 0
BBX 16 16 0 -2
BITMAP
0000
0000
0000
0360
0360
0000
01c0
0220
0410
07f0
0400
0400
0210
01e0
0000
0000
ENDCHAR
STARTCHAR 2962
ENCODING 10594
SWIDTH 823 0
DWIDTH 16 0
BBX 16 16 0 -2
BITMAP
0000
0000
0300
0100
0080
0000
0080
0080
0080
0080
0080
0080
0080
0080
0000
0000
ENDCHAR
STARTCHAR 2963
ENCODING 10595
SWIDTH 823 0
DWIDTH 16 0
BBX 16 16 0 -2
BITMAP
0000
0000
00c0
0080
0100
0000
0080
0080
0080
0080
0080
0080
0080
0080
0000
0000
ENDCHAR
STARTCHAR 2964
ENCODING 10596
SWIDTH 823 0
DWIDTH 16 0
BBX 16 16 0 -2
BITMAP
0000
0000
0080
0140
0220
0000
0080
0080
0080
0080
0080
0080
0080
0080
0000
0000
ENDCHAR
STARTCHAR 2965
ENCODING 10597
SWIDTH 823 0
DWIDTH 16 0
BBX 16 16 0 -2
BITMAP
0000
0000
0000
0360
0360
0000
0080
0080
0080
0080
0080
0080
0080
0080
0000
0000
ENDCHAR
STARTCHAR 2966
ENCODING 10598
SWIDTH 823 0
DWIDTH 16 0
BBX 16 16 0 -2
BITMAP
0000
0e1c
01e0
0000
01c0
0640
0020
07a0
0860
1020
1020
1020
0840
0780
0000
0000
ENDCHAR
STARTCHAR 2967
ENCODING 10599
SWIDTH 823 0
DWIDTH 16 0
BBX 16 16 0 -2
BITMAP
0000
0000
0000
0320
04c0
0000
05c0
0620
0410
0410
0410
0410
0410
0410
0000
0000
ENDCHAR
STARTCHAR 2968
ENCODING 10600
SWIDTH 823 0
DWIDTH 16 0
BBX 16 16 0 -2
BITMAP
0000
0000
0300
0100
0080
0000
03c0
0420
0810
0810
0810
0810
0420
03c0
0000
0000
ENDCHAR
STARTCHAR 2969
ENCODING 10601
SWIDTH 823 0
DWIDTH 16 0
BBX 16 16 0 -2
BITMAP
0000
0000
00c0
0080
0100
0000
03c0
0420
0810
0810
0810
0810
0420
03c0
0000
0000
ENDCHAR
STARTCHAR 296a
ENCODING 10602
SWIDTH 823 0
DWIDTH 16 0
BBX 16 16 0 -2
BITMAP
0000
0000
0100
0280
0440
0000
03c0
0420
0810
0810
0810
0810
0420
03c0
0000
0000
ENDCHAR
STARTCHAR 296b
ENCODING 10603
SWIDTH 823 0
DWIDTH 16 0
BBX 16 16 0 -2
BITMAP
0000
0000
0000
0320
04c0
0000
03c0
0420
0810
0810
0810
0810
0420
03c0
0000
0000
ENDCHAR
STARTCHAR 296c
ENCODING 10604
SWIDTH 823 0
DWIDTH 16 0
BBX 16 16 0 -2
BITMAP
0000
0000
0000
0660
0660
0000
03c0
0420
0810
0810
0810
0810
0420
03c0
0000
0000
ENDCHAR
STARTCHAR 296d
ENCODING 10605
SWIDTH 823 0
DWIDTH 16 0
BBX 16 16 0 -2
BITMAP
0000
0000
0000
0000
0000
0000
03d0
0420
0850
0890
0910
0a10
0420
0bc0
0000
0000
ENDCHAR
STARTCHAR 296e
ENCODING 10606
SWIDTH 823 0
DWIDTH 16 0
BBX 16 16 0 -2
BITMAP
0000
0000
0300
0100
0080
0000
0410
0410
0410
0410
0410
0410
0230
01d0
0000
0000
ENDCHAR
STARTCHAR 296f
ENCODING 10607
SWIDTH 823 0
DWIDTH 16 0
BBX 16 16 0 -2
BITMAP
0000
0000
00c0
0080
0100
0000
0410
0410
0410
0410
0410
0410
0230
01d0
0000
0000
ENDCHAR
STARTCHAR 2970
ENCODING 10608
SWIDTH 823 0
DWIDTH 16 0
BBX 16 16 0 -2
BITMAP
0000
0000
0080
0140
0220
0000
0410
0410
0410
0410
0410
0410
0230
01d0
0000
0000
ENDCHAR
STARTCHAR 2971
ENCODING 10609
SWIDTH 823 0
DWIDTH 16 0
BBX 16 16 0 -2
BITMAP
0000
0000
0000
0360
0360
0000
0410
0410
0410
0410
0410
0410
0230
01d0
0000
0000
ENDCHAR
STARTCHAR 2972
ENCODING 10610
SWIDTH 823 0
DWIDTH 16 0
BBX 16 16 0 -2
BITMAP
0000
0000
0060
0040
0080
0000
0410
0410
0220
0220
0140
0140
0080
0080
0100
0600
ENDCHAR
STARTCHAR 2973
ENCODING 10611
SWIDTH 823 0
DWIDTH 16 0
BBX 16 16 0 -2
BITMAP
0000
0400
0400
0400
0400
0400
05e0
0610
0408
0408
0408
0610
05e0
0400
0400
0400
ENDCHAR
STARTCHAR 2974
ENCODING 10612
SWIDTH 823 0
DWIDTH 16 0
BBX 16 16 0 -2
BITMAP
0000
0000
0000
0360
0360
0000
0410
0410
0220
0220
0140
0140
0080
0080
0100
0600
ENDCHAR
STARTCHAR 2975
ENCODING 10613
SWIDTH 823 0
DWIDTH 16 0
BBX 16 16 0 -2
BITMAP
0000
03e0
0000
0080
0140
0140
0220
0220
07f0
0410
0808
0808
1004
1004
0000
0000
ENDCHAR
STARTCHAR 2976
ENCODING 10614
SWIDTH 823 0
DWIDTH 16 0
BBX 16 16 0 -2
BITMAP
0000
07c0
0000
0000
0100
0100
0100
0100
0100
0100
0100
0100
0100
0100
0000
0000
ENDCHAR
STARTCHAR 2977
ENCODING 10615
SWIDTH 823 0
DWIDTH 16 0
BBX 16 16 0 -2
BITMAP
0000
03e0
0000
0808
0808
0808
0808
0808
0808
0808
0808
0808
0410
03e0
0000
0000
ENDCHAR
STARTCHAR 2978
ENCODING 10616
SWIDTH 823 0
DWIDTH 16 0
BBX 16 16 0 -2
BITMAP
0000
07c0
0000
0000
0ff0
0800
0800
0800
0fc0
0800
0800
0800
0800
0ff8
0000
0000
ENDCHAR
STARTCHAR 2979
ENCODING 10617
SWIDTH 823 0
DWIDTH 16 0
BBX 16 16 0 -2
BITMAP
0000
03e0
0000
01c0
0630
0808
0808
1004
1004
1004
0808
0808
0630
01c0
0000
0000
ENDCHAR
STARTCHAR 297a
ENCODING 10618
SWIDTH 823 0
DWIDTH 16 0
BBX 16 16 0 -2
BITMAP
0000
0000
0000
03e0
0000
01e0
0210
0010
01f0
0210
0410
0410
0430
03d0
0000
0000
ENDCHAR
STARTCHAR 297b
ENCODING 10619
SWIDTH 823 0
DWIDTH 16 0
BBX 16 16 0 -2
BITMAP
0000
0000
0000
03e0
0000
0000
0080
0080
0080
0080
0080
0080
0080
0080
0000
0000
ENDCHAR
STARTCHAR 297c
ENCODING 10620
SWIDTH 823 0
DWIDTH 16 0
BBX 16 16 0 -2
BITMAP
0000
0000
0000
03e0
0000
0000
0410
0410
0410
0410
0410
0410
0230
01d0
0000
0000
ENDCHAR
STARTCHAR 297d
ENCODING 10621
SWIDTH 823 0
DWIDTH 16 0
BBX 16 16 0 -2
BITMAP
0000
0000
0000
03e0
0000
0000
01c0
0220
0410
07f0
0400
0400
0210
01e0
0000
0000
ENDCHAR
STARTCHAR 297e
ENCODING 10622
SWIDTH 823 0
DWIDTH 16 0
BBX 16 16 0 -2
BITMAP
0000
0000
0000
07e0
0000
0000
03c0
0420
0810
0810
0810
0810
0420
03c0
0000
0000
ENDCHAR
STARTCHAR 2a21
ENCODING 10785
SWIDTH 823 0
DWIDTH 16 0
BBX 16 16 0 -2
BITMAP
0000
0000
0080
0140
0140
0220
0220
0410
0410
0ff8
0808
1004
1004
2006
0004
0007
ENDCHAR
STARTCHAR 2a22
ENCODING 10786
SWIDTH 823 0
DWIDTH 16 0
BBX 16 16 0 -2
BITMAP
0410
0410
0220
01c0
0000
0000
0000
0000
0000
0000
0000
0000
0000
0000
0000
0000
ENDCHAR
STARTCHAR 2a23
ENCODING 10787
SWIDTH 823 0
DWIDTH 16 0
BBX 16 16 0 -2
BITMAP
0000
0400
0400
0400
0480
0500
0600
0400
0c00
1400
0400
0400
0400
07fc
0000
0000
ENDCHAR
STARTCHAR 2a24
ENCODING 10788
SWIDTH 823 0
DWIDTH 16 0
BBX 16 16 0 -2
BITMAP
0110
04a0
0440
0400
0400
0400
0400
0400
0400
0400
0400
0400
0400
07fc
0000
0000
ENDCHAR
STARTCHAR 2a25
ENCODING 10789
SWIDTH 823 0
DWIDTH 16 0
BBX 16 16 0 -2
BITMAP
00c0
0080
0100
07c0
0830
1008
1000
0c00
03c0
0030
0008
1008
0c10
03e0
0000
0000
ENDCHAR
STARTCHAR 2a26
ENCODING 10790
SWIDTH 823 0
DWIDTH 16 0
BBX 16 16 0 -2
BITMAP
0440
0280
0100
07c0
0830
1008
1000
0c00
03c0
0030
0008
1008
0c10
03e0
0000
0000
ENDCHAR
STARTCHAR 2a27
ENCODING 10791
SWIDTH 823 0
DWIDTH 16 0
BBX 16 16 0 -2
BITMAP
0000
07c0
0830
1008
1000
0800
0700
00e0
0010
0008
0008
1008
0c10
03e0
0080
0380
ENDCHAR
STARTCHAR 2a28
ENCODING 10792
SWIDTH 823 0
DWIDTH 16 0
BBX 16 16 0 -2
BITMAP
0220
0140
0080
1ffc
0080
0080
0080
0080
0080
0080
0080
0080
0080
0080
0000
0000
ENDCHAR
STARTCHAR 2a29
ENCODING 10793
SWIDTH 823 0
DWIDTH 16 0
BBX 16 16 0 -2
BITMAP
0060
0040
0080
0ff8
0010
0020
0040
0080
0100
0200
0400
0800
1000
1ffc
0000
0000
ENDCHAR
STARTCHAR 2a2a
ENCODING 10794
SWIDTH 823 0
DWIDTH 16 0
BBX 16 16 0 -2
BITMAP
0220
0140
0080
0ff8
0010
0020
0040
0080
0100
0200
0400
0800
1000
1ffc
0000
0000
ENDCHAR
STARTCHAR 2a2b
ENCODING 10795
SWIDTH 823 0
DWIDTH 16 0
BBX 16 16 0 -2
BITMAP
00c0
00c0
0000
0ff8
0010
0020
0040
0080
0100
0200
0400
0800
1000
1ffc
0000
0000
ENDCHAR
STARTCHAR 2a2c
ENCODING 10796
SWIDTH 823 0
DWIDTH 16 0
BBX 16 16 0 -2
BITMAP
0000
0000
0000
0000
0000
03c0
0420
0020
03e0
0420
0820
0820
0860
0790
0010
001c
ENDCHAR
STARTCHAR 2a2d
ENCODING 10797
SWIDTH 823 0
DWIDTH 16 0
BBX 16 16 0 -2
BITMAP
0000
0000
0000
0000
0000
0000
0000
0000
0000
0000
0020
0040
0040
0030
0030
0000
ENDCHAR
STARTCHAR 2a2e
ENCODING 10798
SWIDTH 823 0
DWIDTH 16 0
BBX 16 16 0 -2
BITMAP
0000
0000
0080
0080
0080
00a0
00c0
0080
0180
0280
0080
0080
0080
0080
0000
0000
ENDCHAR
STARTCHAR 2a2f
ENCODING 10799
SWIDTH 823 0
DWIDTH 16 0
BBX 16 16 0 -2
BITMAP
0220
0140
0080
0000
0080
0080
0080
0080
0080
0080
0080
0080
0080
0080
0000
0000
ENDCHAR
STARTCHAR 2a30
ENCODING 10800
SWIDTH 823 0
DWIDTH 16 0
BBX 16 16 0 -2
BITMAP
0000
0000
00c0
0080
0100
0000
0380
0460
0400
0300
00c0
0020
0420
03c0
0000
0000
ENDCHAR
STARTCHAR 2a31
ENCODING 10801
SWIDTH 823 0
DWIDTH 16 0
BBX 16 16 0 -2
BITMAP
0410
0220
0140
0080
0000
0000
0000
0000
0000
0000
0000
0000
0000
0000
0000
0000
ENDCHAR
STARTCHAR 2a32
ENCODING 10802
SWIDTH 823 0
DWIDTH 16 0
BBX 16 16 0 -2
BITMAP
0000
0000
0220
0140
0080
0000
0380
0460
0400
0300
00c0
0020
0420
03c0
0000
0000
ENDCHAR
STARTCHAR 2a33
ENCODING 10803
SWIDTH 823 0
DWIDTH 16 0
BBX 16 16 0 -2
BITMAP
0000
0000
0000
0000
0000
0000
0380
0460
0400
0300
00c0
0020
0420
03c0
0080
0780
ENDCHAR
STARTCHAR 2a34
ENCODING 10804
SWIDTH 823 0
DWIDTH 16 0
BBX 16 16 0 -2
BITMAP
0220
0140
0080
0080
0080
03e0
0080
0080
0080
0080
0080
0080
0080
0060
0000
0000
ENDCHAR
STARTCHAR 2a35
ENCODING 10805
SWIDTH 823 0
DWIDTH 16 0
BBX 16 16 0 -2
BITMAP
0000
0000
00c0
0080
0100
0000
0ff0
0020
0040
0080
0100
0200
0400
0ff0
0000
0000
ENDCHAR
STARTCHAR 2a36
ENCODING 10806
SWIDTH 823 0
DWIDTH 16 0
BBX 16 16 0 -2
BITMAP
01b0
0120
0240
0000
0000
0000
0000
0000
0000
0000
0000
0000
0000
0000
0000
0000
ENDCHAR
STARTCHAR 2a37
ENCODING 10807
SWIDTH 823 0
DWIDTH 16 0
BBX 16 16 0 -2
BITMAP
0000
0000
0220
0140
0080
0000
0ff0
0020
0040
0080
0100
0200
0400
0ff0
0000
0000
ENDCHAR
STARTCHAR 2a38
ENCODING 10808
SWIDTH 823 0
DWIDTH 16 0
BBX 16 16 0 -2
BITMAP
0000
0000
0000
0180
0180
0000
0ff0
0020
0040
0080
0100
0200
0400
0ff0
0000
0000
ENDCHAR
STARTCHAR 2a39
ENCODING 10809
SWIDTH 823 0
DWIDTH 16 0
BBX 16 16 0 -2
BITMAP
00c0
0080
0100
0fe0
0810
0808
0808
0810
0fe0
0820
0810
0810
0808
0808
0000
0000
ENDCHAR
STARTCHAR 2a3a
ENCODING 10810
SWIDTH 823 0
DWIDTH 16 0
BBX 16 16 0 -2
BITMAP
0220
01c0
0000
0080
0140
0140
0220
0220
07f0
0410
0808
0808
1004
1004
0000
0000
ENDCHAR
STARTCHAR 2a3b
ENCODING 10811
SWIDTH 823 0
DWIDTH 16 0
BBX 16 16 0 -2
BITMAP
0030
0020
0440
0400
0400
0400
0400
0400
0400
0400
0400
0400
0400
07fc
0000
0000
ENDCHAR
STARTCHAR 2a3c
ENCODING 10812
SWIDTH 823 0
DWIDTH 16 0
BBX 16 16 0 -2
BITMAP
0060
0040
0080
01e0
0210
0408
0800
0800
0800
0800
0800
0408
0210
01e0
0000
0000
ENDCHAR
STARTCHAR 2a3d
ENCODING 10813
SWIDTH 823 0
DWIDTH 16 0
BBX 16 16 0 -2
BITMAP
0220
0140
0080
01e0
0210
0408
0800
0800
0800
0800
0800
0408
0210
01e0
0000
0000
ENDCHAR
STARTCHAR 2a3e
ENCODING 10814
SWIDTH 823 0
DWIDTH 16 0
BBX 16 16 0 -2
BITMAP
0000
0ff0
0800
0800
0800
0800
0800
0fc0
0800
0800
0800
0800
0800
0ff8
0010
001c
ENDCHAR
STARTCHAR 2a3f
ENCODING 10815
SWIDTH 823 0
DWIDTH 16 0
BBX 16 16 0 -2
BITMAP
0440
0280
0100
0ff0
0800
0800
0800
0800
0fc0
0800
0800
0800
0800
0ff8
0000
0000
ENDCHAR
STARTCHAR 2a40
ENCODING 10816
SWIDTH 823 0
DWIDTH 16 0
BBX 16 16 0 -2
BITMAP
0440
0280
0100
0fc0
0820
0810
0810
0808
0808
0808
0810
0810
0820
0fc0
0000
0000
ENDCHAR
STARTCHAR 2a41
ENCODING 10817
SWIDTH 823 0
DWIDTH 16 0
BBX 16 16 0 -2
BITMAP
00c0
1888
1d08
1408
1208
1208
1108
1088
1048
1048
1028
1018
1018
1008
0000
0000
ENDCHAR
STARTCHAR 2a42
ENCODING 10818
SWIDTH 823 0
DWIDTH 16 0
BBX 16 16 0 -2
BITMAP
0220
1948
1c88
1408
1208
1208
1108
1088
1048
1048
1028
1018
1018
1008
0000
0000
ENDCHAR
STARTCHAR 2a43
ENCODING 10819
SWIDTH 823 0
DWIDTH 16 0
BBX 16 16 0 -2
BITMAP
01b0
0120
0240
03c0
0c30
1008
1008
2004
2004
2004
1008
1008
0c30
03c0
0000
0000
ENDCHAR
STARTCHAR 2a44
ENCODING 10820
SWIDTH 823 0
DWIDTH 16 0
BBX 16 16 0 -2
BITMAP
0440
0280
0100
0fe0
0810
0808
0808
0810
0fe0
0820
0810
0810
0808
0808
0000
0000
ENDCHAR
STARTCHAR 2a45
ENCODING 10821
SWIDTH 823 0
DWIDTH 16 0
BBX 16 16 0 -2
BITMAP
01c0
0220
01c0
0808
0808
0808
0808
0808
0808
0808
0808
0808
0410
03e0
0000
0000
ENDCHAR
STARTCHAR 2a46
ENCODING 10822
SWIDTH 823 0
DWIDTH 16 0
BBX 16 16 0 -2
BITMAP
01b0
0120
0240
0808
0808
0808
0808
0808
0808
0808
0808
0808
0410
03e0
0000
0000
ENDCHAR
STARTCHAR 2a47
ENCODING 10823
SWIDTH 823 0
DWIDTH 16 0
BBX 16 16 0 -2
BITMAP
0000
1ffc
0080
0080
0080
0080
0080
0080
0080
0080
0080
0080
0080
0080
0080
0380
ENDCHAR
STARTCHAR 2a48
ENCODING 10824
SWIDTH 823 0
DWIDTH 16 0
BBX 16 16 0 -2
BITMAP
0000
0000
00c0
0080
0100
0000
02e0
0300
0200
0200
0200
0200
0200
0200
0000
0000
ENDCHAR
STARTCHAR 2a49
ENCODING 10825
SWIDTH 823 0
DWIDTH 16 0
BBX 16 16 0 -2
BITMAP
0000
0000
0440
0380
0000
07c0
0820
0020
03e0
0420
0820
0820
0860
0790
0000
0000
ENDCHAR
STARTCHAR 2a4a
ENCODING 10826
SWIDTH 823 0
DWIDTH 16 0
BBX 16 16 0 -2
BITMAP
0180
0100
0200
0100
0100
0100
0100
0100
0100
0100
0100
0100
0100
0100
0000
0000
ENDCHAR
STARTCHAR 2a4b
ENCODING 10827
SWIDTH 823 0
DWIDTH 16 0
BBX 16 16 0 -2
BITMAP
0000
0000
0060
0040
0080
0000
01e0
0210
0400
0400
0400
0400
0210
01e0
0000
0000
ENDCHAR
STARTCHAR 2a4c
ENCODING 10828
SWIDTH 823 0
DWIDTH 16 0
BBX 16 16 0 -2
BITMAP
0000
0000
0220
0140
0080
0000
01e0
0210
0400
0400
0400
0400
0210
01e0
0000
0000
ENDCHAR
STARTCHAR 2a4d
ENCODING 10829
SWIDTH 823 0
DWIDTH 16 0
BBX 16 16 0 -2
BITMAP
0000
0000
0000
0000
0000
0000
01c0
0220
0410
07f0
0400
0400
0210
01e0
0020
0038
ENDCHAR
STARTCHAR 2a4e
ENCODING 10830
SWIDTH 823 0
DWIDTH 16 0
BBX 16 16 0 -2
BITMAP
0000
0000
0220
0140
0080
0000
01c0
0220
0410
07f0
0400
0400
0210
01e0
0000
0000
ENDCHAR
STARTCHAR 2a4f
ENCODING 10831
SWIDTH 823 0
DWIDTH 16 0
BBX 16 16 0 -2
BITMAP
0220
0140
0090
0010
0010
0010
03d0
0430
0810
0810
0810
0810
0430
03d0
0000
0000
ENDCHAR
STARTCHAR 2a50
ENCODING 10832
SWIDTH 823 0
DWIDTH 16 0
BBX 16 16 0 -2
BITMAP
0000
0020
0020
01fc
0020
0020
07a0
0860
1020
1020
1020
1020
0860
07a0
0000
0000
ENDCHAR
STARTCHAR 2a51
ENCODING 10833
SWIDTH 823 0
DWIDTH 16 0
BBX 16 16 0 -2
BITMAP
0000
0000
00c0
0080
0100
0000
05c0
0620
0410
0410
0410
0410
0410
0410
0000
0000
ENDCHAR
STARTCHAR 2a52
ENCODING 10834
SWIDTH 823 0
DWIDTH 16 0
BBX 16 16 0 -2
BITMAP
0000
0000
0220
0140
0080
0000
05c0
0620
0410
0410
0410
0410
0410
0410
0000
0000
ENDCHAR
STARTCHAR 2a53
ENCODING 10835
SWIDTH 823 0
DWIDTH 16 0
BBX 16 16 0 -2
BITMAP
0000
0000
01b0
0120
0240
0000
03c0
0420
0810
0810
0810
0810
0420
03c0
0000
0000
ENDCHAR
STARTCHAR 2a54
ENCODING 10836
SWIDTH 823 0
DWIDTH 16 0
BBX 16 16 0 -2
BITMAP
0000
0000
0220
0140
0080
0000
02e0
0300
0200
0200
0200
0200
0200
0200
0000
0000
ENDCHAR
STARTCHAR 2a55
ENCODING 10837
SWIDTH 823 0
DWIDTH 16 0
BBX 16 16 0 -2
BITMAP
0000
0000
01c0
0220
01c0
0000
0410
0410
0410
0410
0410
0410
0230
01d0
0000
0000
ENDCHAR
STARTCHAR 2a56
ENCODING 10838
SWIDTH 823 0
DWIDTH 16 0
BBX 16 16 0 -2
BITMAP
0000
0000
0360
0240
0480
0000
0410
0410
0410
0410
0410
0410
0230
01d0
0000
0000
ENDCHAR
STARTCHAR 2a57
ENCODING 10839
SWIDTH 823 0
DWIDTH 16 0
BBX 16 16 0 -2
BITMAP
0000
0000
0000
0080
0080
0080
03e0
0080
0080
0080
0080
0080
0080
0060
0040
03c0
ENDCHAR
STARTCHAR 2a58
ENCODING 10840
SWIDTH 823 0
DWIDTH 16 0
BBX 16 16 0 -2
BITMAP
0000
0180
0180
0000
0000
0000
0000
0000
0000
0000
0000
0000
0000
0000
0000
0000
ENDCHAR
STARTCHAR 2a59
ENCODING 10841
SWIDTH 823 0
DWIDTH 16 0
BBX 16 16 0 -2
BITMAP
0080
0140
0220
03c0
0420
0810
1000
1000
1000
1000
1000
0808
0430
03c0
0000
0000
ENDCHAR
STARTCHAR 2a5a
ENCODING 10842
SWIDTH 823 0
DWIDTH 16 0
BBX 16 16 0 -2
BITMAP
0080
0140
0220
03e0
0410
0800
1000
1000
103c
1004
0804
0808
0630
01c0
0000
0000
ENDCHAR
STARTCHAR 2a5b
ENCODING 10843
SWIDTH 823 0
DWIDTH 16 0
BBX 16 16 0 -2
BITMAP
0080
0140
0220
0808
0808
0808
0808
0ff8
0808
0808
0808
0808
0808
0808
0000
0000
ENDCHAR
STARTCHAR 2a5c
ENCODING 10844
SWIDTH 823 0
DWIDTH 16 0
BBX 16 16 0 -2
BITMAP
0020
0050
0088
0010
0010
0010
0010
0010
0010
0010
0010
0810
0420
03c0
0000
0000
ENDCHAR
STARTCHAR 2a5d
ENCODING 10845
SWIDTH 823 0
DWIDTH 16 0
BBX 16 16 0 -2
BITMAP
0100
0280
0440
07c0
0830
1008
1000
0c00
03c0
0030
0008
1008
0c10
03e0
0000
0000
ENDCHAR
STARTCHAR 2a5e
ENCODING 10846
SWIDTH 823 0
DWIDTH 16 0
BBX 16 16 0 -2
BITMAP
0220
01c0
0000
0808
0808
0808
0808
0808
0808
0808
0808
0808
0410
03e0
0000
0000
ENDCHAR
STARTCHAR 2a5f
ENCODING 10847
SWIDTH 823 0
DWIDTH 16 0
BBX 16 16 0 -2
BITMAP
0000
0000
0080
0140
0220
0000
01e0
0210
0400
0400
0400
0400
0210
01e0
0000
0000
ENDCHAR
STARTCHAR 2a60
ENCODING 10848
SWIDTH 823 0
DWIDTH 16 0
BBX 16 16 0 -2
BITMAP
0000
0080
0140
0220
0000
01d0
0230
0410
0410
0410
0230
01d0
0010
0410
0220
01c0
ENDCHAR
STARTCHAR 2a61
ENCODING 10849
SWIDTH 823 0
DWIDTH 16 0
BBX 16 16 0 -2
BITMAP
0040
00a0
0510
0400
0400
0400
05c0
0620
0410
0410
0410
0410
0410
0410
0000
0000
ENDCHAR
STARTCHAR 2a62
ENCODING 10850
SWIDTH 823 0
DWIDTH 16 0
BBX 16 16 0 -2
BITMAP
0000
0000
0080
0140
0220
0000
0040
0040
0040
0040
0040
0040
0040
0040
0440
0380
ENDCHAR
STARTCHAR 2a63
ENCODING 10851
SWIDTH 823 0
DWIDTH 16 0
BBX 16 16 0 -2
BITMAP
0000
0000
0040
00a0
0110
0000
01c0
0230
0200
0180
0060
0410
0210
01e0
0000
0000
ENDCHAR
STARTCHAR 2a64
ENCODING 10852
SWIDTH 823 0
DWIDTH 16 0
BBX 16 16 0 -2
BITMAP
0000
0000
0000
0220
01c0
0000
0410
0410
0410
0410
0410
0410
0230
01d0
0000
0000
ENDCHAR
STARTCHAR 2a65
ENCODING 10853
SWIDTH 823 0
DWIDTH 16 0
BBX 16 16 0 -2
BITMAP
0000
0000
0000
0000
0000
0000
1738
18c4
1084
1084
1084
1084
1084
1084
0014
0018
ENDCHAR
STARTCHAR 2a66
ENCODING 10854
SWIDTH 823 0
DWIDTH 16 0
BBX 16 16 0 -2
BITMAP
0000
0000
0000
0000
0000
0000
1870
0410
0410
0410
0410
0420
0220
01c0
0000
0000
ENDCHAR
STARTCHAR 2a67
ENCODING 10855
SWIDTH 823 0
DWIDTH 16 0
BBX 16 16 0 -2
BITMAP
0000
0000
0000
0000
0000
0000
00c0
0120
0120
0100
0100
0100
0100
07c0
0000
0000
ENDCHAR
STARTCHAR 2a68
ENCODING 10856
SWIDTH 823 0
DWIDTH 16 0
BBX 16 16 0 -2
BITMAP
0060
0090
0080
0080
0080
0080
0080
0080
0080
0080
0080
0080
0080
0080
0480
0300
ENDCHAR
STARTCHAR 2a69
ENCODING 10857
SWIDTH 823 0
DWIDTH 16 0
BBX 16 16 0 -2
BITMAP
0000
0000
0000
0000
0000
0000
0fe0
0040
0080
0100
07c0
0020
0010
0010
0820
07c0
ENDCHAR
STARTCHAR 2a6a
ENCODING 10858
SWIDTH 823 0
DWIDTH 16 0
BBX 16 16 0 -2
BITMAP
0000
0080
0080
0080
0080
0680
0980
0880
0880
07fc
0080
0080
0080
0080
0000
0000
ENDCHAR
STARTCHAR 2a6b
ENCODING 10859
SWIDTH 823 0
DWIDTH 16 0
BBX 16 16 0 -2
BITMAP
0000
0400
0400
0400
0400
0400
07f8
0410
0460
0480
05e0
0410
0408
0008
0210
01e0
ENDCHAR
STARTCHAR 2a6c
ENCODING 10860
SWIDTH 823 0
DWIDTH 16 0
BBX 16 16 0 -2
BITMAP
0000
0000
0000
0000
0000
0000
0040
0040
0040
0040
0040
0040
09c0
0640
0000
0000
ENDCHAR
STARTCHAR 2a6d
ENCODING 10861
SWIDTH 823 0
DWIDTH 16 0
BBX 16 16 0 -2
BITMAP
0000
0000
0000
0080
0080
03e0
0080
0080
0080
0080
0080
0080
0080
0080
0080
0070
ENDCHAR
STARTCHAR 2a6e
ENCODING 10862
SWIDTH 823 0
DWIDTH 16 0
BBX 16 16 0 -2
BITMAP
0000
0000
0010
0010
0010
0010
03d0
0430
0810
0810
0810
0810
0430
03d0
0012
000c
ENDCHAR
STARTCHAR 2a6f
ENCODING 10863
SWIDTH 823 0
DWIDTH 16 0
BBX 16 16 0 -2
BITMAP
0000
0000
0000
0000
0000
0000
0b80
0c40
0820
0820
0820
0820
0820
0820
0024
0018
ENDCHAR
STARTCHAR 2a70
ENCODING 10864
SWIDTH 823 0
DWIDTH 16 0
BBX 16 16 0 -2
BITMAP
0000
0000
0000
0000
0000
0000
0260
0390
0200
0200
0200
0200
0200
0200
0240
0180
ENDCHAR
STARTCHAR 2a71
ENCODING 10865
SWIDTH 823 0
DWIDTH 16 0
BBX 16 16 0 -2
BITMAP
0000
0000
0000
0000
0000
0000
01c0
0230
0200
0180
0060
0010
0210
03e0
0200
01c0
ENDCHAR
STARTCHAR 2a72
ENCODING 10866
SWIDTH 823 0
DWIDTH 16 0
BBX 16 16 0 -2
BITMAP
0000
0000
0000
0000
0000
0000
0ff0
0020
0040
0080
0100
0200
0400
0ff0
0012
000c
ENDCHAR
STARTCHAR 2a73
ENCODING 10867
SWIDTH 823 0
DWIDTH 16 0
BBX 16 16 0 -2
BITMAP
0000
0000
0000
0000
0000
0000
0040
0040
0040
0040
0040
0040
09c0
0640
0048
0030
ENDCHAR
STARTCHAR 2a74
ENCODING 10868
SWIDTH 823 0
DWIDTH 16 0
BBX 16 16 0 -2
BITMAP
0000
0080
0080
0080
0080
0080
0080
0080
0080
0080
0080
0080
0080
0080
0090
0060
ENDCHAR
STARTCHAR 2a75
ENCODING 10869
SWIDTH 823 0
DWIDTH 16 0
BBX 16 16 0 -2
BITMAP
0000
0000
0000
0000
0000
0000
0080
0080
0080
0080
0080
0080
03e0
0080
0880
0700
ENDCHAR
STARTCHAR 2a76
ENCODING 10870
SWIDTH 823 0
DWIDTH 16 0
BBX 16 16 0 -2
BITMAP
0000
0000
0000
0000
0000
0000
02e0
0310
0208
0208
0208
0208
0208
0208
2400
1800
ENDCHAR
STARTCHAR 2a77
ENCODING 10871
SWIDTH 823 0
DWIDTH 16 0
BBX 16 16 0 -2
BITMAP
0000
0000
01c0
01c0
0000
0000
0080
0080
0080
0080
0080
0080
0080
03e0
0490
0300
ENDCHAR
STARTCHAR 2a78
ENCODING 10872
SWIDTH 823 0
DWIDTH 16 0
BBX 16 16 0 -2
BITMAP
0000
0000
0000
0000
0030
0040
0080
0080
0140
0140
0220
0220
0410
0410
0000
0000
ENDCHAR
STARTCHAR 2a79
ENCODING 10873
SWIDTH 823 0
DWIDTH 16 0
BBX 16 16 0 -2
BITMAP
0000
0000
0000
0000
0000
01d0
0230
0410
0410
0410
0230
01d0
0010
0410
0220
01c0
ENDCHAR
STARTCHAR 2a7a
ENCODING 10874
SWIDTH 823 0
DWIDTH 16 0
BBX 16 16 0 -2
BITMAP
0000
0000
0000
0000
0000
0000
05c0
0620
0410
0410
0410
0410
0410
0410
0090
0060
ENDCHAR
STARTCHAR 2a7b
ENCODING 10875
SWIDTH 823 0
DWIDTH 16 0
BBX 16 16 0 -2
BITMAP
0000
0000
0000
0000
0000
0000
1084
1084
1084
1084
1084
1084
118c
0e74
0004
0006
ENDCHAR
STARTCHAR 2a7c
ENCODING 10876
SWIDTH 823 0
DWIDTH 16 0
BBX 16 16 0 -2
BITMAP
0000
0000
0000
0000
0000
0418
0428
0440
05c0
0620
0410
0410
0620
05c0
0000
0000
ENDCHAR
STARTCHAR 2a7d
ENCODING 10877
SWIDTH 823 0
DWIDTH 16 0
BBX 16 16 0 -2
BITMAP
0000
0200
0200
0200
0f80
0200
02e0
0310
0208
0208
0208
0208
0208
0208
0000
0000
ENDCHAR
STARTCHAR 2a7e
ENCODING 10878
SWIDTH 823 0
DWIDTH 16 0
BBX 16 16 0 -2
BITMAP
0000
03e0
0410
0808
0808
0808
0600
0180
0080
0080
0080
0080
0080
0080
0000
0000
ENDCHAR
STARTCHAR 2b21
ENCODING 11041
SWIDTH 823 0
DWIDTH 16 0
BBX 16 16 0 -2
BITMAP
0000
03e0
0410
0808
0808
0808
0030
00c0
0080
0080
0080
0080
0080
0080
0000
0000
ENDCHAR
STARTCHAR 2b22
ENCODING 11042
SWIDTH 823 0
DWIDTH 16 0
BBX 16 16 0 -2
BITMAP
0000
01e0
0210
0400
0400
0400
05c0
0620
0410
0410
0410
0410
0410
0410
0000
0000
ENDCHAR
STARTCHAR 2b23
ENCODING 11043
SWIDTH 823 0
DWIDTH 16 0
BBX 16 16 0 -2
BITMAP
0000
0000
0000
0000
03c0
0420
0810
1008
1188
1188
1008
0810
0420
03c0
0000
0000
ENDCHAR
STARTCHAR 2b24
ENCODING 11044
SWIDTH 823 0
DWIDTH 16 0
BBX 16 16 0 -2
BITMAP
0000
0080
0080
0080
0080
07f0
0080
0080
0080
07f0
0080
0080
0080
0080
0000
0000
ENDCHAR
STARTCHAR 2b25
ENCODING 11045
SWIDTH 823 0
DWIDTH 16 0
BBX 16 16 0 -2
BITMAP
0000
01e0
0210
0400
0400
0400
05c0
0620
0410
0410
0410
0410
0620
05c0
0000
0000
ENDCHAR
STARTCHAR 2b26
ENCODING 11046
SWIDTH 823 0
DWIDTH 16 0
BBX 16 16 0 -2
BITMAP
0000
0018
0024
0020
0020
0020
03a0
0460
0820
0820
0820
0820
0460
03a0
0000
0000
ENDCHAR
STARTCHAR 2b27
ENCODING 11047
SWIDTH 823 0
DWIDTH 16 0
BBX 16 16 0 -2
BITMAP
0000
0000
0000
0060
0090
0100
0100
0100
0100
0100
0100
0fe0
0100
0100
1200
0c00
ENDCHAR
STARTCHAR 2b28
ENCODING 11048
SWIDTH 823 0
DWIDTH 16 0
BBX 16 16 0 -2
BITMAP
0000
0000
0000
000c
0012
01d0
0230
0410
0410
0410
0230
01d0
0010
0410
0220
01c0
ENDCHAR
STARTCHAR 2b29
ENCODING 11049
SWIDTH 823 0
DWIDTH 16 0
BBX 16 16 0 -2
BITMAP
0000
03e7
0c19
1000
1000
2000
2000
2000
203c
2004
1004
1008
0c30
03c0
0000
0000
ENDCHAR
STARTCHAR 2b2a
ENCODING 11050
SWIDTH 823 0
DWIDTH 16 0
BBX 16 16 0 -2
BITMAP
0000
0000
0000
0000
0000
0000
0e38
11c4
2082
20fe
2080
2080
11c2
0e3c
0000
0000
ENDCHAR
STARTCHAR 2b2b
ENCODING 11051
SWIDTH 823 0
DWIDTH 16 0
BBX 16 16 0 -2
BITMAP
0000
0f7e
10c0
1040
2040
2040
2040
2078
2040
2040
2040
1040
10c0
0f7e
0000
0000
ENDCHAR
STARTCHAR 2b2c
ENCODING 11052
SWIDTH 823 0
DWIDTH 16 0
BBX 16 16 0 -2
BITMAP
0000
0000
01c0
01c0
0000
0000
0080
0080
0080
03e0
0080
0080
0080
0080
0000
0000
ENDCHAR
STARTCHAR 2b2d
ENCODING 11053
SWIDTH 823 0
DWIDTH 16 0
BBX 16 16 0 -2
BITMAP
0000
0000
0000
0000
0000
0000
0410
0410
0410
1ffc
0410
0410
0220
01c0
0000
0000
ENDCHAR
STARTCHAR 2b2e
ENCODING 11054
SWIDTH 823 0
DWIDTH 16 0
BBX 16 16 0 -2
BITMAP
0000
0000
0000
0000
0000
0000
01c0
0220
0410
07f0
0010
0010
0420
03c0
0000
0000
ENDCHAR
STARTCHAR 2b2f
ENCODING 11055
SWIDTH 823 0
DWIDTH 16 0
BBX 16 16 0 -2
BITMAP
0000
0000
0000
0000
0000
0000
01e0
0210
0408
07f8
0408
0408
0210
01e0
0000
0000
ENDCHAR
STARTCHAR 2b30
ENCODING 11056
SWIDTH 823 0
DWIDTH 16 0
BBX 16 16 0 -2
BITMAP
0000
0000
0000
0000
0000
0000
03c0
0420
0010
0010
07f0
0410
0220
01c0
0000
0000
ENDCHAR
STARTCHAR 2b31
ENCODING 11057
SWIDTH 823 0
DWIDTH 16 0
BBX 16 16 0 -2
BITMAP
0000
0000
0000
0000
0000
0000
03e0
0410
0010
01e0
0010
0410
0220
01c0
0000
0000
ENDCHAR
STARTCHAR 2b32
ENCODING 11058
SWIDTH 823 0
DWIDTH 16 0
BBX 16 16 0 -2
BITMAP
0000
0000
0000
0000
0000
0000
01e0
0210
0410
04e0
0410
0410
0220
01c0
0000
0000
ENDCHAR
STARTCHAR 2b33
ENCODING 11059
SWIDTH 823 0
DWIDTH 16 0
BBX 16 16 0 -2
BITMAP
0000
0000
0000
0000
0000
0000
05e0
0610
0410
0410
0420
07c0
0400
0410
03e0
0000
ENDCHAR
STARTCHAR 2b34
ENCODING 11060
SWIDTH 823 0
DWIDTH 16 0
BBX 16 16 0 -2
BITMAP
0000
0000
0000
0000
0000
0000
1084
1084
1084
1084
1084
1084
118c
0e74
0000
0000
ENDCHAR
STARTCHAR 2b35
ENCODING 11061
SWIDTH 823 0
DWIDTH 16 0
BBX 16 16 0 -2
BITMAP
0000
0000
0000
0000
0000
0000
1e78
0420
0810
0810
0810
0810
0420
03c0
0000
0000
ENDCHAR
STARTCHAR 2b36
ENCODING 11062
SWIDTH 823 0
DWIDTH 16 0
BBX 16 16 0 -2
BITMAP
0000
0000
0000
0000
0000
1c70
0820
0440
0440
0280
0100
0280
0280
0100
0000
0000
ENDCHAR
STARTCHAR 2b37
ENCODING 11063
SWIDTH 823 0
DWIDTH 16 0
BBX 16 16 0 -2
BITMAP
0000
0000
0000
0000
0000
0000
0080
0080
0140
0140
0220
0220
0410
0410
0000
0000
ENDCHAR
STARTCHAR 2b38
ENCODING 11064
SWIDTH 823 0
DWIDTH 16 0
BBX 16 16 0 -2
BITMAP
0000
0000
0000
0000
0000
0000
03c0
0420
0010
0010
0010
0410
0220
01c0
0000
0000
ENDCHAR
STARTCHAR 2b39
ENCODING 11065
SWIDTH 823 0
DWIDTH 16 0
BBX 16 16 0 -2
BITMAP
0000
0000
0000
0000
0000
0000
03d0
0430
0810
0810
0810
0810
0430
03d0
0000
0000
ENDCHAR
STARTCHAR 2b3a
ENCODING 11066
SWIDTH 823 0
DWIDTH 16 0
BBX 16 16 0 -2
BITMAP
0000
0000
0000
0000
0000
0000
05e0
0610
0408
0408
0408
0408
0610
05e0
0000
0000
ENDCHAR
STARTCHAR 2b3b
ENCODING 11067
SWIDTH 823 0
DWIDTH 16 0
BBX 16 16 0 -2
BITMAP
0000
0000
0000
0000
0000
0000
0220
0220
0550
0550
0550
0888
0888
0888
0000
0000
ENDCHAR
STARTCHAR 2b3c
ENCODING 11068
SWIDTH 823 0
DWIDTH 16 0
BBX 16 16 0 -2
BITMAP
0000
0000
0000
0000
0000
0410
0410
0410
0410
0410
0410
0230
01d0
0010
0010
0010
ENDCHAR
STARTCHAR 2b3d
ENCODING 11069
SWIDTH 823 0
DWIDTH 16 0
BBX 16 16 0 -2
BITMAP
0000
03e0
0410
0808
0808
0808
0600
0180
0080
07f0
0080
0080
0080
0080
0000
0000
ENDCHAR
STARTCHAR 2b3e
ENCODING 11070
SWIDTH 823 0
DWIDTH 16 0
BBX 16 16 0 -2
BITMAP
0000
03e0
0410
0808
0808
0808
0030
00c0
0080
07f0
0080
0080
0080
0080
0000
0000
ENDCHAR
STARTCHAR 2b3f
ENCODING 11071
SWIDTH 823 0
DWIDTH 16 0
BBX 16 16 0 -2
BITMAP
0000
0000
0000
0000
0000
0000
03e0
0410
0800
0800
0820
0850
0490
03e0
0100
0200
ENDCHAR
STARTCHAR 2b40
ENCODING 11072
SWIDTH 823 0
DWIDTH 16 0
BBX 16 16 0 -2
BITMAP
0000
0000
0000
0000
0000
0000
07e0
0020
0040
0080
0120
0250
0490
0fe0
0100
0200
ENDCHAR
STARTCHAR 2b41
ENCODING 11073
SWIDTH 823 0
DWIDTH 16 0
BBX 16 16 0 -2
BITMAP
0000
0040
0040
0040
0040
0040
0040
0040
0040
0040
0040
0040
09c0
0640
0000
0000
ENDCHAR
STARTCHAR 2b42
ENCODING 11074
SWIDTH 823 0
DWIDTH 16 0
BBX 16 16 0 -2
BITMAP
0000
01e0
0210
0400
0400
0400
05c0
0620
0410
0410
0410
0410
0410
0410
0120
00c0
ENDCHAR
STARTCHAR 2b43
ENCODING 11075
SWIDTH 823 0
DWIDTH 16 0
BBX 16 16 0 -2
BITMAP
0000
0000
0000
0000
0000
0000
07c0
0824
007c
0194
0613
0810
0420
03c0
0000
0000
ENDCHAR
STARTCHAR 2b44
ENCODING 11076
SWIDTH 823 0
DWIDTH 16 0
BBX 16 16 0 -2
BITMAP
0000
0180
0080
0040
0000
0000
0f38
10c4
0082
0ffe
1080
2080
21c2
1ebc
0000
0000
ENDCHAR
STARTCHAR 2b45
ENCODING 11077
SWIDTH 823 0
DWIDTH 16 0
BBX 16 16 0 -2
BITMAP
0000
00c0
0080
0100
0000
0000
0f38
10c4
0082
0ffe
1080
2080
21c2
1ebc
0000
0000
ENDCHAR
STARTCHAR 2b46
ENCODING 11078
SWIDTH 823 0
DWIDTH 16 0
BBX 16 16 0 -2
BITMAP
0000
0000
0300
0100
0080
0000
03d0
0430
0810
0810
0810
0810
0430
03d0
0000
0000
ENDCHAR
STARTCHAR 2b47
ENCODING 11079
SWIDTH 823 0
DWIDTH 16 0
BBX 16 16 0 -2
BITMAP
0000
0000
0180
0100
0200
0000
03d0
0430
0810
0810
0810
0810
0430
03d0
0000
0000
ENDCHAR
STARTCHAR 2b48
ENCODING 11080
SWIDTH 823 0
DWIDTH 16 0
BBX 16 16 0 -2
BITMAP
0000
0000
0180
0080
0040
0000
03c0
0420
0010
0010
0010
0010
0420
03c0
0000
0000
ENDCHAR
STARTCHAR 2b49
ENCODING 11081
SWIDTH 823 0
DWIDTH 16 0
BBX 16 16 0 -2
BITMAP
0000
0000
00c0
0080
0100
0000
03c0
0420
0010
0010
0010
0010
0420
03c0
0000
0000
ENDCHAR
STARTCHAR 2b4a
ENCODING 11082
SWIDTH 823 0
DWIDTH 16 0
BBX 16 16 0 -2
BITMAP
0000
0000
0180
0080
0040
0000
0080
0080
0140
0140
0220
0220
0410
0410
0000
0000
ENDCHAR
STARTCHAR 2b4b
ENCODING 11083
SWIDTH 823 0
DWIDTH 16 0
BBX 16 16 0 -2
BITMAP
0000
0000
00c0
0080
0100
0000
0080
0080
0140
0140
0220
0220
0410
0410
0000
0000
ENDCHAR
STARTCHAR 2b4c
ENCODING 11084
SWIDTH 823 0
DWIDTH 16 0
BBX 16 16 0 -2
BITMAP
0000
0000
0300
0100
0080
0000
03c0
0420
0010
0010
07f0
0410
0220
01c0
0000
0000
ENDCHAR
STARTCHAR 2b4d
ENCODING 11085
SWIDTH 823 0
DWIDTH 16 0
BBX 16 16 0 -2
BITMAP
0000
0000
0180
0100
0200
0000
03c0
0420
0010
0010
07f0
0410
0220
01c0
0000
0000
ENDCHAR
STARTCHAR 2b4e
ENCODING 11086
SWIDTH 823 0
DWIDTH 16 0
BBX 16 16 0 -2
BITMAP
0000
0000
0300
0100
0080
0000
07c0
0824
007c
0194
0613
0810
0420
03c0
0000
0000
ENDCHAR
STARTCHAR 2b4f
ENCODING 11087
SWIDTH 823 0
DWIDTH 16 0
BBX 16 16 0 -2
BITMAP
0000
0000
0180
0100
0200
0000
07c0
0824
007c
0194
0613
0810
0420
03c0
0000
0000
ENDCHAR
STARTCHAR 2b50
ENCODING 11088
SWIDTH 823 0
DWIDTH 16 0
BBX 16 16 0 -2
BITMAP
0000
00c0
0040
0020
0000
01e0
0210
0408
0400
03e0
0400
0400
0208
01f0
0000
0000
ENDCHAR
STARTCHAR 2b51
ENCODING 11089
SWIDTH 823 0
DWIDTH 16 0
BBX 16 16 0 -2
BITMAP
0000
0060
0040
0080
0000
01e0
0210
0408
0400
03e0
0400
0400
0208
01f0
0000
0000
ENDCHAR
STARTCHAR 2b52
ENCODING 11090
SWIDTH 823 0
DWIDTH 16 0
BBX 16 16 0 -2
BITMAP
0000
07e0
1818
2004
0000
0000
0000
0000
0000
0000
0000
0000
0000
0000
0000
0000
ENDCHAR
STARTCHAR 2b53
ENCODING 11091
SWIDTH 823 0
DWIDTH 16 0
BBX 16 16 0 -2
BITMAP
0080
0080
0080
0080
0080
0000
0000
0000
0000
0000
0000
0000
0000
0000
0000
0000
ENDCHAR
STARTCHAR 2b54
ENCODING 11092
SWIDTH 823 0
DWIDTH 16 0
BBX 16 16 0 -2
BITMAP
0000
0000
0000
0000
0000
0000
0000
0000
0000
0000
0000
0080
0080
0080
0080
0080
ENDCHAR
STARTCHAR 2b55
ENCODING 11093
SWIDTH 823 0
DWIDTH 16 0
BBX 16 16 0 -2
BITMAP
0000
0000
0000
0000
0000
03e0
01c0
0080
0080
0000
0080
0080
01c0
03e0
0000
0000
ENDCHAR
STARTCHAR 2b56
ENCODING 11094
SWIDTH 823 0
DWIDTH 16 0
BBX 16 16 0 -2
BITMAP
0000
0000
0000
0000
0000
03e0
01c0
0080
0080
0000
0000
0000
0000
0000
0000
0000
ENDCHAR
STARTCHAR 2b57
ENCODING 11095
SWIDTH 823 0
DWIDTH 16 0
BBX 16 16 0 -2
BITMAP
0410
0410
0220
01c0
0000
0000
0000
0000
0000
0000
0000
0000
0000
0000
0000
0000
ENDCHAR
STARTCHAR 2b58
ENCODING 11096
SWIDTH 823 0
DWIDTH 16 0
BBX 16 16 0 -2
BITMAP
0000
0000
0000
0000
0000
0000
0000
0000
0000
0000
0000
0000
2004
1818
07e0
0000
ENDCHAR
STARTCHAR 2b59
ENCODING 11097
SWIDTH 823 0
DWIDTH 16 0
BBX 16 16 0 -2
BITMAP
0360
0240
0480
0900
0000
0000
0000
0000
0000
0000
0000
0000
0000
0000
0000
0000
ENDCHAR
STARTCHAR 2b5a
ENCODING 11098
SWIDTH 823 0
DWIDTH 16 0
BBX 16 16 0 -2
BITMAP
0060
0040
0080
0100
0000
0000
0000
0000
0000
0000
0000
0000
0000
0000
0000
0000
ENDCHAR
STARTCHAR 2b5b
ENCODING 11099
SWIDTH 823 0
DWIDTH 16 0
BBX 16 16 0 -2
BITMAP
0000
07e0
0000
0000
0000
0000
0000
0000
0000
0000
0000
0000
0000
0000
0000
0000
ENDCHAR
STARTCHAR 2b5c
ENCODING 11100
SWIDTH 823 0
DWIDTH 16 0
BBX 16 16 0 -2
BITMAP
0300
0100
0080
0040
0000
0000
0000
0000
0000
0000
0000
0000
0000
0000
0000
0000
ENDCHAR
STARTCHAR 2b5d
ENCODING 11101
SWIDTH 823 0
DWIDTH 16 0
BBX 16 16 0 -2
BITMAP
06c0
0240
0120
0090
0000
0000
0000
0000
0000
0000
0000
0000
0000
0000
0000
0000
ENDCHAR
STARTCHAR 2b5e
ENCODING 11102
SWIDTH 823 0
DWIDTH 16 0
BBX 16 16 0 -2
BITMAP
0410
0220
0140
0080
0000
0000
0000
0000
0000
0000
0000
0000
0000
0000
0000
0000
ENDCHAR
STARTCHAR 2b5f
ENCODING 11103
SWIDTH 823 0
DWIDTH 16 0
BBX 16 16 0 -2
BITMAP
0080
0140
0220
0410
0000
0000
0000
0000
0000
0000
0000
0000
0000
0000
0000
0000
ENDCHAR
STARTCHAR 2b60
ENCODING 11104
SWIDTH 823 0
DWIDTH 16 0
BBX 16 16 0 -2
BITMAP
0000
0000
0000
0000
0000
0000
0000
0000
0000
0000
0000
0000
0000
0000
0000
0000
ENDCHAR
STARTCHAR 2b60
ENCODING 11104
SWIDTH 823 0
DWIDTH 16 0
BBX 16 16 0 -2
BITMAP
ff80
0080
0080
0080
0080
0080
0080
0080
0080
0080
0080
0080
0080
0080
0080
0080
ENDCHAR
STARTCHAR 2b61
ENCODING 11105
SWIDTH 823 0
DWIDTH 16 0
BBX 16 16 0 -2
BITMAP
0080
0080
0080
0080
ff80
0080
0080
0080
0080
0080
0080
0080
0080
0080
0080
0080
ENDCHAR
STARTCHAR 2b62
ENCODING 11106
SWIDTH 823 0
DWIDTH 16 0
BBX 16 16 0 -2
BITMAP
0080
0080
0080
0080
0080
0080
0080
0080
ff80
0080
0080
0080
0080
0080
0080
0080
ENDCHAR
STARTCHAR 2b63
ENCODING 11107
SWIDTH 823 0
DWIDTH 16 0
BBX 16 16 0 -2
BITMAP
0080
0080
0080
0080
0080
0080
0080
0080
0080
0080
0080
ff80
0080
0080
0080
0080
ENDCHAR
STARTCHAR 2b64
ENCODING 11108
SWIDTH 823 0
DWIDTH 16 0
BBX 16 16 0 -2
BITMAP
0080
0080
0080
0080
0080
0080
0080
0080
0080
0080
0080
0080
0080
0080
0080
ff80
ENDCHAR
STARTCHAR 2b65
ENCODING 11109
SWIDTH 823 0
DWIDTH 16 0
BBX 16 16 0 -2
BITMAP
0008
0008
0018
0028
0028
0048
0088
0088
0108
0208
0208
0408
0808
0808
1008
2008
ENDCHAR
STARTCHAR 2b66
ENCODING 11110
SWIDTH 823 0
DWIDTH 16 0
BBX 16 16 0 -2
BITMAP
2008
1008
0808
0808
0408
0208
0208
0108
0088
0088
0048
0028
0028
0018
0008
0008
ENDCHAR
STARTCHAR 2b67
ENCODING 11111
SWIDTH 823 0
DWIDTH 16 0
BBX 16 16 0 -2
BITMAP
0000
0000
0000
0000
0000
0000
0000
0000
0000
0000
0000
0000
0180
0240
0240
0180
ENDCHAR
STARTCHAR 2b68
ENCODING 11112
SWIDTH 823 0
DWIDTH 16 0
BBX 16 16 0 -2
BITMAP
0000
0000
0000
0000
0000
0000
0000
0000
0000
0000
0000
0000
0410
0220
0140
0080
ENDCHAR
STARTCHAR 2b69
ENCODING 11113
SWIDTH 823 0
DWIDTH 16 0
BBX 16 16 0 -2
BITMAP
0000
0000
0000
0000
0000
0000
0000
0000
0000
0000
0000
0000
01c0
0020
0020
01c0
ENDCHAR
STARTCHAR 2b6a
ENCODING 11114
SWIDTH 823 0
DWIDTH 16 0
BBX 16 16 0 -2
BITMAP
0000
0000
0000
0000
0000
0000
0000
0000
0000
0000
0000
0000
01c0
0200
0200
01c0
ENDCHAR
STARTCHAR 2b6b
ENCODING 11115
SWIDTH 823 0
DWIDTH 16 0
BBX 16 16 0 -2
BITMAP
0000
0000
0000
0000
0000
0000
0000
0000
0000
0000
0000
0100
0100
0fe0
0100
0100
ENDCHAR
STARTCHAR 2b6c
ENCODING 11116
SWIDTH 823 0
DWIDTH 16 0
BBX 16 16 0 -2
BITMAP
0000
0000
0000
0000
0000
0000
0000
0000
0000
0000
0000
0000
0000
0fe0
0000
0000
ENDCHAR
STARTCHAR 2b6d
ENCODING 11117
SWIDTH 823 0
DWIDTH 16 0
BBX 16 16 0 -2
BITMAP
0000
0660
0660
0000
0000
0000
0000
0000
0000
0000
0000
0000
0000
0000
0000
0000
ENDCHAR
STARTCHAR 2b6e
ENCODING 11118
SWIDTH 823 0
DWIDTH 16 0
BBX 16 16 0 -2
BITMAP
0420
0240
0180
0240
0420
0000
0000
0000
0000
0000
0000
0000
0000
0000
0000
0000
ENDCHAR
STARTCHAR 2b6f
ENCODING 11119
SWIDTH 823 0
DWIDTH 16 0
BBX 16 16 0 -2
BITMAP
0000
0000
0000
0000
0000
0000
0000
0000
0000
0000
0000
0000
0100
0100
0100
0100
ENDCHAR
STARTCHAR 2b70
ENCODING 11120
SWIDTH 823 0
DWIDTH 16 0
BBX 16 16 0 -2
BITMAP
0000
0000
0000
0000
0000
0000
0000
0000
0000
0000
0000
0000
01c0
0220
0410
0410
ENDCHAR
STARTCHAR 2b71
ENCODING 11121
SWIDTH 823 0
DWIDTH 16 0
BBX 16 16 0 -2
BITMAP
0000
0000
0000
0000
0000
0100
0280
0040
0048
0050
0060
0000
0000
0000
0000
0000
ENDCHAR
STARTCHAR 2b72
ENCODING 11122
SWIDTH 823 0
DWIDTH 16 0
BBX 16 16 0 -2
BITMAP
0000
0000
0000
0000
0000
0000
0000
0000
0000
0000
0000
0000
0000
0660
0660
0000
ENDCHAR
STARTCHAR 2b73
ENCODING 11123
SWIDTH 823 0
DWIDTH 16 0
BBX 16 16 0 -2
BITMAP
0000
0000
0000
0000
0000
0000
0000
0000
0000
0000
0000
0000
0000
0310
0490
0460
ENDCHAR
STARTCHAR 2b74
ENCODING 11124
SWIDTH 823 0
DWIDTH 16 0
BBX 16 16 0 -2
BITMAP
0000
0000
0000
0000
0000
0000
0000
0000
0000
0000
0000
0000
0000
0660
0990
0810
ENDCHAR
STARTCHAR 2b75
ENCODING 11125
SWIDTH 823 0
DWIDTH 16 0
BBX 16 16 0 -2
BITMAP
0000
0000
0000
0000
0000
0000
0000
0620
0920
08c0
0000
0000
0000
0000
0000
0000
ENDCHAR
STARTCHAR 2b76
ENCODING 11126
SWIDTH 823 0
DWIDTH 16 0
BBX 16 16 0 -2
BITMAP
0000
0000
0000
0000
0000
0000
0000
0000
0000
0000
0000
0080
0080
0080
07f0
0000
ENDCHAR
STARTCHAR 2b77
ENCODING 11127
SWIDTH 823 0
DWIDTH 16 0
BBX 16 16 0 -2
BITMAP
0000
0000
0000
0000
0000
0000
0000
0000
0000
0000
0000
07f0
0080
0080
0080
0000
ENDCHAR
STARTCHAR 2b78
ENCODING 11128
SWIDTH 823 0
DWIDTH 16 0
BBX 16 16 0 -2
BITMAP
0000
0000
0000
0000
0000
0000
0000
0000
0000
0000
0080
0080
0780
0080
0080
0000
ENDCHAR
STARTCHAR 2b79
ENCODING 11129
SWIDTH 823 0
DWIDTH 16 0
BBX 16 16 0 -2
BITMAP
0000
0000
0000
0000
0000
0000
0000
0000
0000
0000
0080
0080
00f0
0080
0080
0000
ENDCHAR
STARTCHAR 2b7a
ENCODING 11130
SWIDTH 823 0
DWIDTH 16 0
BBX 16 16 0 -2
BITMAP
0000
0000
0000
0000
0000
0000
0000
0000
0000
0000
0000
0000
0ff0
0810
0810
0000
ENDCHAR
STARTCHAR 2b7b
ENCODING 11131
SWIDTH 823 0
DWIDTH 16 0
BBX 16 16 0 -2
BITMAP
0000
0000
0000
0000
0000
0000
0000
0000
0000
0000
0000
0000
0810
0810
0ff0
0000
ENDCHAR
STARTCHAR 2b7c
ENCODING 11132
SWIDTH 823 0
DWIDTH 16 0
BBX 16 16 0 -2
BITMAP
0000
0000
0000
0000
0000
0000
0000
0000
0000
0000
0000
0ff0
0810
0810
0ff0
0000
ENDCHAR
STARTCHAR 2b7d
ENCODING 11133
SWIDTH 823 0
DWIDTH 16 0
BBX 16 16 0 -2
BITMAP
0310
0490
0460
0000
0000
0000
0000
0000
0000
0000
0000
0000
0000
0000
0000
0000
ENDCHAR
STARTCHAR 2b7e
ENCODING 11134
SWIDTH 823 0
DWIDTH 16 0
BBX 16 16 0 -2
BITMAP
0000
0078
0008
0008
0008
0000
0000
0000
0000
0000
0000
0000
0000
0000
0000
0000
ENDCHAR
STARTCHAR 2c21
ENCODING 11297
SWIDTH 823 0
DWIDTH 16 0
BBX 16 16 0 -2
BITMAP
03e0
0ff8
1ffc
3f7e
3e7e
7f7f
7f7f
7f7f
7f7f
7f7f
3f7e
3f7e
1ffc
0ff8
03e0
0000
ENDCHAR
STARTCHAR 2c22
ENCODING 11298
SWIDTH 823 0
DWIDTH 16 0
BBX 16 16 0 -2
BITMAP
03e0
0ff8
1ffc
3e3e
3dde
7fdf
7fbf
7f7f
7eff
7dff
3dfe
3c1e
1ffc
0ff8
03e0
0000
ENDCHAR
STARTCHAR 2c23
ENCODING 11299
SWIDTH 823 0
DWIDTH 16 0
BBX 16 16 0 -2
BITMAP
03e0
0ff8
1ffc
3e3e
3dde
7fdf
7fdf
7f3f
7fdf
7ddf
3dde
3e3e
1ffc
0ff8
03e0
0000
ENDCHAR
STARTCHAR 2c24
ENCODING 11300
SWIDTH 823 0
DWIDTH 16 0
BBX 16 16 0 -2
BITMAP
03e0
0ff8
1ffc
3fbe
3f3e
7ebf
7dbf
7dbf
780f
7fbf
3fbe
3fbe
1ffc
0ff8
03e0
0000
ENDCHAR
STARTCHAR 2c25
ENCODING 11301
SWIDTH 823 0
DWIDTH 16 0
BBX 16 16 0 -2
BITMAP
03e0
0ff8
1ffc
3c1e
3dfe
7dff
7c3f
7fdf
7fdf
7ddf
3dde
3e3e
1ffc
0ff8
03e0
0000
ENDCHAR
STARTCHAR 2c26
ENCODING 11302
SWIDTH 823 0
DWIDTH 16 0
BBX 16 16 0 -2
BITMAP
03e0
0ff8
1ffc
3e3e
3dde
7dff
7dff
7c3f
7ddf
7ddf
3dde
3e3e
1ffc
0ff8
03e0
0000
ENDCHAR
STARTCHAR 2c27
ENCODING 11303
SWIDTH 823 0
DWIDTH 16 0
BBX 16 16 0 -2
BITMAP
03e0
0ff8
1ffc
3c1e
3fde
7fdf
7fbf
7fbf
7fbf
7f7f
3f7e
3f7e
1ffc
0ff8
03e0
0000
ENDCHAR
STARTCHAR 2c28
ENCODING 11304
SWIDTH 823 0
DWIDTH 16 0
BBX 16 16 0 -2
BITMAP
03e0
0ff8
1ffc
3e3e
3dde
7ddf
7ddf
7e3f
7ddf
7ddf
3dde
3e3e
1ffc
0ff8
03e0
0000
ENDCHAR
STARTCHAR 2c29
ENCODING 11305
SWIDTH 823 0
DWIDTH 16 0
BBX 16 16 0 -2
BITMAP
03e0
0ff8
1ffc
3e3e
3dde
7ddf
7ddf
7e3f
7fbf
7fbf
3f7e
3f7e
1ffc
0ff8
03e0
0000
ENDCHAR
STARTCHAR 2c2a
ENCODING 11306
SWIDTH 823 0
DWIDTH 16 0
BBX 16 16 0 -2
BITMAP
03e0
0ff8
1ffc
3d9e
396e
7d6f
7d6f
7d6f
7d6f
7d6f
3d6e
3d9e
1ffc
0ff8
03e0
0000
ENDCHAR
STARTCHAR 2c2b
ENCODING 11307
SWIDTH 823 0
DWIDTH 16 0
BBX 16 16 0 -2
BITMAP
03e0
0ff8
1ffc
3dde
399e
7ddf
7ddf
7ddf
7ddf
7ddf
3dde
3dde
1ffc
0ff8
03e0
0000
ENDCHAR
STARTCHAR 2c2c
ENCODING 11308
SWIDTH 823 0
DWIDTH 16 0
BBX 16 16 0 -2
BITMAP
03e0
0ff8
1ffc
3d9e
396e
7def
7ddf
7ddf
7dbf
7dbf
3d7e
3d0e
1ffc
0ff8
03e0
0000
ENDCHAR
STARTCHAR 2c2d
ENCODING 11309
SWIDTH 823 0
DWIDTH 16 0
BBX 16 16 0 -2
BITMAP
03e0
0ff8
1ffc
3d9e
396e
7def
7def
7d9f
7def
7def
3d6e
3d9e
1ffc
0ff8
03e0
0000
ENDCHAR
STARTCHAR 2c2e
ENCODING 11310
SWIDTH 823 0
DWIDTH 16 0
BBX 16 16 0 -2
BITMAP
03e0
0ff8
1ffc
3dee
39ce
7daf
7daf
7d6f
7d07
7def
3dee
3dee
1ffc
0ff8
03e0
0000
ENDCHAR
STARTCHAR 2c2f
ENCODING 11311
SWIDTH 823 0
DWIDTH 16 0
BBX 16 16 0 -2
BITMAP
03e0
0ff8
1ffc
3d0e
397e
7d7f
7d1f
7def
7def
7def
3d6e
3d9e
1ffc
0ff8
03e0
0000
ENDCHAR
STARTCHAR 2c30
ENCODING 11312
SWIDTH 823 0
DWIDTH 16 0
BBX 16 16 0 -2
BITMAP
03e0
0ff8
1ffc
3d9e
396e
7d7f
7d7f
7d1f
7d6f
7d6f
3d6e
3d9e
1ffc
0ff8
03e0
0000
ENDCHAR
STARTCHAR 2c31
ENCODING 11313
SWIDTH 823 0
DWIDTH 16 0
BBX 16 16 0 -2
BITMAP
03e0
0ff8
1ffc
3d0e
39ee
7def
7def
7ddf
7ddf
7ddf
3dde
3dde
1ffc
0ff8
03e0
0000
ENDCHAR
STARTCHAR 2c32
ENCODING 11314
SWIDTH 823 0
DWIDTH 16 0
BBX 16 16 0 -2
BITMAP
03e0
0ff8
1ffc
3d9e
396e
7d6f
7d6f
7d9f
7d6f
7d6f
3d6e
3d9e
1ffc
0ff8
03e0
0000
ENDCHAR
STARTCHAR 2c33
ENCODING 11315
SWIDTH 823 0
DWIDTH 16 0
BBX 16 16 0 -2
BITMAP
03e0
0ff8
1ffc
3d9e
396e
7d6f
7d6f
7d9f
7ddf
7ddf
3dbe
3dbe
1ffc
0ff8
03e0
0000
ENDCHAR
STARTCHAR 2c34
ENCODING 11316
SWIDTH 823 0
DWIDTH 16 0
BBX 16 16 0 -2
BITMAP
03e0
0ff8
1ffc
39ce
36b6
7eb7
7eb7
7db7
7bb7
77b7
37b6
30ce
1ffc
0ff8
03e0
0000
ENDCHAR
STARTCHAR 2c35
ENCODING 11317
SWIDTH 823 0
DWIDTH 16 0
BBX 16 16 0 -2
BITMAP
0000
0000
0080
0080
0000
0000
0080
0080
0080
0080
0080
0080
0080
0080
0000
0000
ENDCHAR
STARTCHAR 2c36
ENCODING 11318
SWIDTH 823 0
DWIDTH 16 0
BBX 16 16 0 -2
BITMAP
0000
0000
0220
0220
0000
0000
0220
0220
0220
0220
0220
0220
0220
0220
0000
0000
ENDCHAR
STARTCHAR 2c37
ENCODING 11319
SWIDTH 823 0
DWIDTH 16 0
BBX 16 16 0 -2
BITMAP
0000
0000
0888
0888
0000
0000
0888
0888
0888
0888
0888
0888
0888
0888
0000
0000
ENDCHAR
STARTCHAR 2c38
ENCODING 11320
SWIDTH 823 0
DWIDTH 16 0
BBX 16 16 0 -2
BITMAP
0000
0000
0800
0800
0000
0000
0904
0904
0888
0888
0850
0850
0820
0820
0000
0000
ENDCHAR
STARTCHAR 2c39
ENCODING 11321
SWIDTH 823 0
DWIDTH 16 0
BBX 16 16 0 -2
BITMAP
0000
0000
0000
0000
0000
0000
0410
0410
0220
0220
0140
0140
0080
0080
0000
0000
ENDCHAR
STARTCHAR 2c3a
ENCODING 11322
SWIDTH 823 0
DWIDTH 16 0
BBX 16 16 0 -2
BITMAP
0000
0000
0008
0008
0000
0000
1048
1048
0888
0888
0508
0508
0208
0208
0000
0000
ENDCHAR
STARTCHAR 2c3b
ENCODING 11323
SWIDTH 823 0
DWIDTH 16 0
BBX 16 16 0 -2
BITMAP
0000
0000
0022
0022
0000
0000
20a2
20a2
1122
1122
0a22
0a22
0422
0422
0000
0000
ENDCHAR
STARTCHAR 2c3c
ENCODING 11324
SWIDTH 823 0
DWIDTH 16 0
BBX 16 16 0 -2
BITMAP
0000
0000
0092
0092
0000
0000
2292
2292
2292
1492
1492
1492
0892
0892
0000
0000
ENDCHAR
STARTCHAR 2c3d
ENCODING 11325
SWIDTH 823 0
DWIDTH 16 0
BBX 16 16 0 -2
BITMAP
0000
0000
1000
1000
0000
0000
1208
1110
10a0
1040
10a0
1110
1208
1404
0000
0000
ENDCHAR
STARTCHAR 2c3e
ENCODING 11326
SWIDTH 823 0
DWIDTH 16 0
BBX 16 16 0 -2
BITMAP
0000
0000
0000
0000
0000
0000
0410
0220
0140
0080
0140
0220
0410
0808
0000
0000
ENDCHAR
STARTCHAR 2c3f
ENCODING 11327
SWIDTH 823 0
DWIDTH 16 0
BBX 16 16 0 -2
BITMAP
0000
0000
0008
0008
0000
0000
1048
0888
0508
0208
0508
0888
1048
2028
0000
0000
ENDCHAR
STARTCHAR 2c40
ENCODING 11328
SWIDTH 823 0
DWIDTH 16 0
BBX 16 16 0 -2
BITMAP
0000
0000
0012
0012
0000
0000
2092
1112
0a12
0412
0a12
1112
2092
4052
0000
0000
ENDCHAR
STARTCHAR 2c41
ENCODING 11329
SWIDTH 823 0
DWIDTH 16 0
BBX 16 16 0 -2
BITMAP
03e0
0c18
1004
2002
23c2
4421
4021
43e1
4421
4421
23d2
2002
1004
0c18
03e0
0000
ENDCHAR
STARTCHAR 2c42
ENCODING 11330
SWIDTH 823 0
DWIDTH 16 0
BBX 16 16 0 -2
BITMAP
03e0
0c18
1004
2202
2202
4201
42c1
4321
4211
4211
2322
22c2
1004
0c18
03e0
0000
ENDCHAR
STARTCHAR 2c43
ENCODING 11331
SWIDTH 823 0
DWIDTH 16 0
BBX 16 16 0 -2
BITMAP
03e0
0c18
1004
2002
21c2
4221
4401
4401
4411
4221
21c2
2002
1004
0c18
03e0
0000
ENDCHAR
STARTCHAR 2c44
ENCODING 11332
SWIDTH 823 0
DWIDTH 16 0
BBX 16 16 0 -2
BITMAP
03e0
0c18
1004
2022
2022
4021
41a1
4261
4421
4421
2262
21a2
1004
0c18
03e0
0000
ENDCHAR
STARTCHAR 2c45
ENCODING 11333
SWIDTH 823 0
DWIDTH 16 0
BBX 16 16 0 -2
BITMAP
03e0
0c18
1004
2002
21c2
4221
4411
47f1
4401
4211
21e2
2002
1004
0c18
03e0
0000
ENDCHAR
STARTCHAR 2c46
ENCODING 11334
SWIDTH 823 0
DWIDTH 16 0
BBX 16 16 0 -2
BITMAP
03e0
0c18
1004
2062
2082
4081
41e1
4081
4081
4081
2082
2082
1004
0c18
03e0
0000
ENDCHAR
STARTCHAR 2c47
ENCODING 11335
SWIDTH 823 0
DWIDTH 16 0
BBX 16 16 0 -2
BITMAP
03e0
0c18
1004
21d2
2232
4411
4411
4231
41d1
4411
2222
21c2
1004
0c18
03e0
0000
ENDCHAR
STARTCHAR 2c48
ENCODING 11336
SWIDTH 823 0
DWIDTH 16 0
BBX 16 16 0 -2
BITMAP
03e0
0c18
1004
2202
2202
4201
42c1
4321
4211
4211
2212
2212
1004
0c18
03e0
0000
ENDCHAR
STARTCHAR 2c49
ENCODING 11337
SWIDTH 823 0
DWIDTH 16 0
BBX 16 16 0 -2
BITMAP
03e0
0c18
1084
2082
2002
4001
4081
4081
4081
4081
2082
2082
1004
0c18
03e0
0000
ENDCHAR
STARTCHAR 2c4a
ENCODING 11338
SWIDTH 823 0
DWIDTH 16 0
BBX 16 16 0 -2
BITMAP
03e0
0c18
1044
2042
2002
4001
4041
4041
4041
4041
2042
2242
1184
0c18
03e0
0000
ENDCHAR
STARTCHAR 2c4b
ENCODING 11339
SWIDTH 823 0
DWIDTH 16 0
BBX 16 16 0 -2
BITMAP
03e0
0c18
1004
2202
2202
4201
4211
4261
4381
4241
2222
2212
1004
0c18
03e0
0000
ENDCHAR
STARTCHAR 2c4c
ENCODING 11340
SWIDTH 823 0
DWIDTH 16 0
BBX 16 16 0 -2
BITMAP
03e0
0c18
1084
2082
2082
4081
4081
4081
4081
4081
2082
2082
1004
0c18
03e0
0000
ENDCHAR
STARTCHAR 2c4d
ENCODING 11341
SWIDTH 823 0
DWIDTH 16 0
BBX 16 16 0 -2
BITMAP
03e0
0c18
1004
2002
2b32
4cc9
4889
4889
4889
4889
288a
2002
1004
0c18
03e0
0000
ENDCHAR
STARTCHAR 2c4e
ENCODING 11342
SWIDTH 823 0
DWIDTH 16 0
BBX 16 16 0 -2
BITMAP
03e0
0c18
1004
2002
22e2
4311
4211
4211
4211
4211
2212
2002
1004
0c18
03e0
0000
ENDCHAR
STARTCHAR 2c4f
ENCODING 11343
SWIDTH 823 0
DWIDTH 16 0
BBX 16 16 0 -2
BITMAP
03e0
0c18
1004
2002
21c2
4221
4411
4411
4411
4221
21c2
2002
1004
0c18
03e0
0000
ENDCHAR
STARTCHAR 2c50
ENCODING 11344
SWIDTH 823 0
DWIDTH 16 0
BBX 16 16 0 -2
BITMAP
03e0
0c18
1004
2002
22c2
4321
4211
4211
4321
42c1
2202
2202
1204
0c18
03e0
0000
ENDCHAR
STARTCHAR 2c51
ENCODING 11345
SWIDTH 823 0
DWIDTH 16 0
BBX 16 16 0 -2
BITMAP
03e0
0c18
1004
2002
21a2
4261
4421
4421
4261
41a1
2022
2022
1024
0c18
03e0
0000
ENDCHAR
STARTCHAR 2c52
ENCODING 11346
SWIDTH 823 0
DWIDTH 16 0
BBX 16 16 0 -2
BITMAP
03e0
0c18
1004
2002
22e2
4301
4201
4201
4201
4201
2202
2002
1004
0c18
03e0
0000
ENDCHAR
STARTCHAR 2c53
ENCODING 11347
SWIDTH 823 0
DWIDTH 16 0
BBX 16 16 0 -2
BITMAP
03e0
0c18
1004
2002
21c2
4221
4201
41c1
4021
4011
2222
21c2
1004
0c18
03e0
0000
ENDCHAR
STARTCHAR 2c54
ENCODING 11348
SWIDTH 823 0
DWIDTH 16 0
BBX 16 16 0 -2
BITMAP
03e0
0c18
1004
2002
2102
4101
43c1
4101
4101
4101
2102
20c2
1004
0c18
03e0
0000
ENDCHAR
STARTCHAR 2c55
ENCODING 11349
SWIDTH 823 0
DWIDTH 16 0
BBX 16 16 0 -2
BITMAP
03e0
0c18
1004
2002
2212
4211
4211
4211
4211
4231
21d2
2002
1004
0c18
03e0
0000
ENDCHAR
STARTCHAR 2c56
ENCODING 11350
SWIDTH 823 0
DWIDTH 16 0
BBX 16 16 0 -2
BITMAP
03e0
0c18
1004
2002
2412
4411
4221
4221
4141
4141
2082
2082
1004
0c18
03e0
0000
ENDCHAR
STARTCHAR 2c57
ENCODING 11351
SWIDTH 823 0
DWIDTH 16 0
BBX 16 16 0 -2
BITMAP
03e0
0c18
1004
2002
288a
4889
4491
4551
4551
4221
2222
2222
1004
0c18
03e0
0000
ENDCHAR
STARTCHAR 2c58
ENCODING 11352
SWIDTH 823 0
DWIDTH 16 0
BBX 16 16 0 -2
BITMAP
03e0
0c18
1004
2002
2222
4221
4141
4081
4141
4221
2412
2002
1004
0c18
03e0
0000
ENDCHAR
STARTCHAR 2c59
ENCODING 11353
SWIDTH 823 0
DWIDTH 16 0
BBX 16 16 0 -2
BITMAP
03e0
0c18
1004
2002
2112
4111
40a1
40a1
4041
4041
2082
2302
1004
0c18
03e0
0000
ENDCHAR
STARTCHAR 2c5a
ENCODING 11354
SWIDTH 823 0
DWIDTH 16 0
BBX 16 16 0 -2
BITMAP
03e0
0c18
1004
2002
23e2
4021
4041
4081
4101
4201
23e2
2002
1004
0c18
03e0
0000
ENDCHAR
STARTCHAR 2c5b
ENCODING 11355
SWIDTH 823 0
DWIDTH 16 0
BBX 16 16 0 -2
BITMAP
03e0
0c18
1004
27fa
200a
4091
40a1
4081
4081
4101
2102
2202
1004
0c18
03e0
0000
ENDCHAR
STARTCHAR 2c5c
ENCODING 11356
SWIDTH 823 0
DWIDTH 16 0
BBX 16 16 0 -2
BITMAP
03e0
0c18
1004
2022
2022
4041
4181
4681
4081
4081
2082
2082
1004
0c18
03e0
0000
ENDCHAR
STARTCHAR 2c5d
ENCODING 11357
SWIDTH 823 0
DWIDTH 16 0
BBX 16 16 0 -2
BITMAP
03e0
0c18
1004
2082
2082
47f1
4411
4411
4011
4021
2042
2182
1004
0c18
03e0
0000
ENDCHAR
STARTCHAR 2c5e
ENCODING 11358
SWIDTH 823 0
DWIDTH 16 0
BBX 16 16 0 -2
BITMAP
03e0
0c18
1004
2002
2002
43e1
4081
4081
4081
4081
2ffa
2002
1004
0c18
03e0
0000
ENDCHAR
STARTCHAR 2c5f
ENCODING 11359
SWIDTH 823 0
DWIDTH 16 0
BBX 16 16 0 -2
BITMAP
03e0
0c18
1004
2022
2022
47f9
4061
40a1
4121
4221
2422
2062
1004
0c18
03e0
0000
ENDCHAR
STARTCHAR 2c60
ENCODING 11360
SWIDTH 823 0
DWIDTH 16 0
BBX 16 16 0 -2
BITMAP
03e0
0c18
1004
2082
2082
47f1
4091
4091
4111
4111
2212
2462
1004
0c18
03e0
0000
ENDCHAR
STARTCHAR 2c61
ENCODING 11361
SWIDTH 823 0
DWIDTH 16 0
BBX 16 16 0 -2
BITMAP
03e0
0c18
1004
2082
20e2
4381
4081
40b9
47c1
4041
2042
2042
1004
0c18
03e0
0000
ENDCHAR
STARTCHAR 2c62
ENCODING 11362
SWIDTH 823 0
DWIDTH 16 0
BBX 16 16 0 -2
BITMAP
03e0
0c18
1104
2102
21f2
4211
4211
4411
4021
4021
2042
2082
1304
0c18
03e0
0000
ENDCHAR
STARTCHAR 2c63
ENCODING 11363
SWIDTH 823 0
DWIDTH 16 0
BBX 16 16 0 -2
BITMAP
03e0
0c18
1104
2102
2102
43f9
4221
4421
4021
4021
2042
2182
1004
0c18
03e0
0000
ENDCHAR
STARTCHAR 2c64
ENCODING 11364
SWIDTH 823 0
DWIDTH 16 0
BBX 16 16 0 -2
BITMAP
03e0
0c18
1004
2002
23f2
4011
4011
4011
4011
4011
23f2
2002
1004
0c18
03e0
0000
ENDCHAR
STARTCHAR 2c65
ENCODING 11365
SWIDTH 823 0
DWIDTH 16 0
BBX 16 16 0 -2
BITMAP
03e0
0c18
1004
2222
2222
4ff9
4221
4221
4021
4021
2042
2082
1004
0c18
03e0
0000
ENDCHAR
STARTCHAR 2c66
ENCODING 11366
SWIDTH 823 0
DWIDTH 16 0
BBX 16 16 0 -2
BITMAP
03e0
0c18
1004
2202
2102
4001
4409
4211
4021
4041
2082
2302
1004
0c18
03e0
0000
ENDCHAR
STARTCHAR 2c67
ENCODING 11367
SWIDTH 823 0
DWIDTH 16 0
BBX 16 16 0 -2
BITMAP
03e0
0c18
1004
2002
23e2
4021
4021
4041
4081
4141
2222
2412
1004
0c18
03e0
0000
ENDCHAR
STARTCHAR 2c68
ENCODING 11368
SWIDTH 823 0
DWIDTH 16 0
BBX 16 16 0 -2
BITMAP
03e0
0c18
1004
2202
2202
42f1
4f11
4221
4201
4201
2202
21e2
1004
0c18
03e0
0000
ENDCHAR
STARTCHAR 2c69
ENCODING 11369
SWIDTH 823 0
DWIDTH 16 0
BBX 16 16 0 -2
BITMAP
03e0
0c18
1004
2002
2402
4209
4209
4011
4011
4021
2042
2182
1004
0c18
03e0
0000
ENDCHAR
STARTCHAR 2c6a
ENCODING 11370
SWIDTH 823 0
DWIDTH 16 0
BBX 16 16 0 -2
BITMAP
03e0
0c18
1084
2082
20f2
4111
4311
44a1
4061
4041
2082
2302
1004
0c18
03e0
0000
ENDCHAR
STARTCHAR 2c6b
ENCODING 11371
SWIDTH 823 0
DWIDTH 16 0
BBX 16 16 0 -2
BITMAP
03e0
0c18
1004
2062
2382
4041
4041
4ff9
4041
4041
2082
2302
1004
0c18
03e0
0000
ENDCHAR
STARTCHAR 2c6c
ENCODING 11372
SWIDTH 823 0
DWIDTH 16 0
BBX 16 16 0 -2
BITMAP
03e0
0c18
1004
2102
2482
4289
4209
4011
4011
4021
2042
2182
1004
0c18
03e0
0000
ENDCHAR
STARTCHAR 2c6d
ENCODING 11373
SWIDTH 823 0
DWIDTH 16 0
BBX 16 16 0 -2
BITMAP
03e0
0c18
1004
27f2
2002
4001
4ff9
4041
4041
4041
2082
2302
1004
0c18
03e0
0000
ENDCHAR
STARTCHAR 2c6e
ENCODING 11374
SWIDTH 823 0
DWIDTH 16 0
BBX 16 16 0 -2
BITMAP
03e0
0c18
1004
2102
2102
4101
4181
4161
4101
4101
2102
2102
1004
0c18
03e0
0000
ENDCHAR
STARTCHAR 2c6f
ENCODING 11375
SWIDTH 823 0
DWIDTH 16 0
BBX 16 16 0 -2
BITMAP
03e0
0c18
1004
2002
27f2
4411
4411
4411
4411
47f1
2412
2002
1004
0c18
03e0
0000
ENDCHAR
STARTCHAR 2c70
ENCODING 11376
SWIDTH 823 0
DWIDTH 16 0
BBX 16 16 0 -2
BITMAP
03e0
0c18
1004
2002
2102
4121
4211
4211
4409
4809
2002
2002
1004
0c18
03e0
0000
ENDCHAR
STARTCHAR 2c71
ENCODING 11377
SWIDTH 823 0
DWIDTH 16 0
BBX 16 16 0 -2
BITMAP
03e0
0c18
1004
2002
2002
43e1
4001
4001
4001
4001
2ffa
2002
1004
0c18
03e0
0000
ENDCHAR
STARTCHAR 2c72
ENCODING 11378
SWIDTH 823 0
DWIDTH 16 0
BBX 16 16 0 -2
BITMAP
03e0
0c18
1004
2082
2082
4ff9
4081
4491
4491
4889
2082
2182
1004
0c18
03e0
0000
ENDCHAR
STARTCHAR 2c73
ENCODING 11379
SWIDTH 823 0
DWIDTH 16 0
BBX 16 16 0 -2
BITMAP
03e0
0c18
1004
2002
2002
4001
4301
44c1
4839
4001
2002
2002
1004
0c18
03e0
0000
ENDCHAR
STARTCHAR 2c7d
ENCODING 11389
SWIDTH 823 0
DWIDTH 16 0
BBX 16 16 0 -2
BITMAP
0080
06b0
01c0
0080
01c0
06b0
0080
0000
0080
06b0
01c0
0080
01c0
06b0
0080
0000
ENDCHAR
STARTCHAR 2c7e
ENCODING 11390
SWIDTH 823 0
DWIDTH 16 0
BBX 16 16 0 -2
BITMAP
0080
06b0
01c0
0080
01c0
06b0
0080
0000
0808
6b6b
1c1c
0808
1c1c
6b6b
0808
0000
ENDCHAR
STARTCHAR 2d21
ENCODING 11553
SWIDTH 823 0
DWIDTH 16 0
BBX 16 16 0 -2
BITMAP
03e0
0c18
1004
2082
2182
4081
4081
4081
4081
4081
2082
2082
1004
0c18
03e0
0000
ENDCHAR
STARTCHAR 2d22
ENCODING 11554
SWIDTH 823 0
DWIDTH 16 0
BBX 16 16 0 -2
BITMAP
03e0
0c18
1004
21c2
2222
4021
4041
4081
4101
4201
2202
23e2
1004
0c18
03e0
0000
ENDCHAR
STARTCHAR 2d23
ENCODING 11555
SWIDTH 823 0
DWIDTH 16 0
BBX 16 16 0 -2
BITMAP
03e0
0c18
1004
21c2
2222
4021
4021
40c1
4021
4221
2222
21c2
1004
0c18
03e0
0000
ENDCHAR
STARTCHAR 2d24
ENCODING 11556
SWIDTH 823 0
DWIDTH 16 0
BBX 16 16 0 -2
BITMAP
03e0
0c18
1004
2042
20c2
4141
4241
4241
47f1
4041
2042
2042
1004
0c18
03e0
0000
ENDCHAR
STARTCHAR 2d25
ENCODING 11557
SWIDTH 823 0
DWIDTH 16 0
BBX 16 16 0 -2
BITMAP
03e0
0c18
1004
23e2
2202
4201
43c1
4021
4021
4221
2222
21c2
1004
0c18
03e0
0000
ENDCHAR
STARTCHAR 2d26
ENCODING 11558
SWIDTH 823 0
DWIDTH 16 0
BBX 16 16 0 -2
BITMAP
03e0
0c18
1004
21c2
2222
4201
4201
43c1
4221
4221
2222
21c2
1004
0c18
03e0
0000
ENDCHAR
STARTCHAR 2d27
ENCODING 11559
SWIDTH 823 0
DWIDTH 16 0
BBX 16 16 0 -2
BITMAP
03e0
0c18
1004
23e2
2022
4021
4041
4041
4041
4081
2082
2082
1004
0c18
03e0
0000
ENDCHAR
STARTCHAR 2d28
ENCODING 11560
SWIDTH 823 0
DWIDTH 16 0
BBX 16 16 0 -2
BITMAP
03e0
0c18
1004
21c2
2222
4221
4221
41c1
4221
4221
2222
21c2
1004
0c18
03e0
0000
ENDCHAR
STARTCHAR 2d29
ENCODING 11561
SWIDTH 823 0
DWIDTH 16 0
BBX 16 16 0 -2
BITMAP
03e0
0c18
1004
21c2
2222
4221
4221
41e1
4021
4021
2222
21c2
1004
0c18
03e0
0000
ENDCHAR
STARTCHAR 2d2a
ENCODING 11562
SWIDTH 823 0
DWIDTH 16 0
BBX 16 16 0 -2
BITMAP
03e0
0c18
1004
2262
2692
4291
4291
4291
4291
4291
2292
2262
1004
0c18
03e0
0000
ENDCHAR
STARTCHAR 2d2b
ENCODING 11563
SWIDTH 823 0
DWIDTH 16 0
BBX 16 16 0 -2
BITMAP
03e0
0c18
1004
2222
2662
4221
4221
4221
4221
4221
2222
2222
1004
0c18
03e0
0000
ENDCHAR
STARTCHAR 2d2c
ENCODING 11564
SWIDTH 823 0
DWIDTH 16 0
BBX 16 16 0 -2
BITMAP
03e0
0c18
1004
2262
2692
4211
4221
4221
4241
4241
2282
22f2
1004
0c18
03e0
0000
ENDCHAR
STARTCHAR 2d2d
ENCODING 11565
SWIDTH 823 0
DWIDTH 16 0
BBX 16 16 0 -2
BITMAP
03e0
0c18
1004
2262
2692
4211
4211
4261
4211
4211
2292
2262
1004
0c18
03e0
0000
ENDCHAR
STARTCHAR 2d2e
ENCODING 11566
SWIDTH 823 0
DWIDTH 16 0
BBX 16 16 0 -2
BITMAP
03e0
0c18
1004
2212
2632
4251
4251
4291
42f9
4211
2212
2212
1004
0c18
03e0
0000
ENDCHAR
STARTCHAR 2d2f
ENCODING 11567
SWIDTH 823 0
DWIDTH 16 0
BBX 16 16 0 -2
BITMAP
03e0
0c18
1004
22f2
2682
4281
42e1
4211
4211
4211
2292
2262
1004
0c18
03e0
0000
ENDCHAR
STARTCHAR 2d30
ENCODING 11568
SWIDTH 823 0
DWIDTH 16 0
BBX 16 16 0 -2
BITMAP
03e0
0c18
1004
2262
2692
4281
4281
42e1
4291
4291
2292
2262
1004
0c18
03e0
0000
ENDCHAR
STARTCHAR 2d31
ENCODING 11569
SWIDTH 823 0
DWIDTH 16 0
BBX 16 16 0 -2
BITMAP
03e0
0c18
1004
22f2
2612
4211
4211
4221
4221
4221
2222
2222
1004
0c18
03e0
0000
ENDCHAR
STARTCHAR 2d32
ENCODING 11570
SWIDTH 823 0
DWIDTH 16 0
BBX 16 16 0 -2
BITMAP
03e0
0c18
1004
2262
2692
4291
4291
4261
4291
4291
2292
2262
1004
0c18
03e0
0000
ENDCHAR
STARTCHAR 2d33
ENCODING 11571
SWIDTH 823 0
DWIDTH 16 0
BBX 16 16 0 -2
BITMAP
03e0
0c18
1004
2262
2692
4291
4291
4271
4211
4211
2292
2262
1004
0c18
03e0
0000
ENDCHAR
STARTCHAR 2d34
ENCODING 11572
SWIDTH 823 0
DWIDTH 16 0
BBX 16 16 0 -2
BITMAP
03e0
0c18
1004
2632
294a
4149
4149
4249
4449
4849
284a
2f32
1004
0c18
03e0
0000
ENDCHAR
STARTCHAR 2d35
ENCODING 11573
SWIDTH 823 0
DWIDTH 16 0
BBX 16 16 0 -2
BITMAP
0000
0080
0080
0080
0080
0080
0080
0080
0080
0080
0080
0080
0080
0080
0000
0000
ENDCHAR
STARTCHAR 2d36
ENCODING 11574
SWIDTH 823 0
DWIDTH 16 0
BBX 16 16 0 -2
BITMAP
0000
0420
0420
0420
0420
0420
0420
0420
0420
0420
0420
0420
0420
0420
0000
0000
ENDCHAR
STARTCHAR 2d37
ENCODING 11575
SWIDTH 823 0
DWIDTH 16 0
BBX 16 16 0 -2
BITMAP
0000
0888
0888
0888
0888
0888
0888
0888
0888
0888
0888
0888
0888
0888
0000
0000
ENDCHAR
STARTCHAR 2d38
ENCODING 11576
SWIDTH 823 0
DWIDTH 16 0
BBX 16 16 0 -2
BITMAP
0000
1208
1208
1208
1208
1110
1110
1110
10a0
10a0
10a0
1040
1040
1040
0000
0000
ENDCHAR
STARTCHAR 2d39
ENCODING 11577
SWIDTH 823 0
DWIDTH 16 0
BBX 16 16 0 -2
BITMAP
0000
0808
0808
0808
0410
0410
0410
0220
0220
0220
0140
0140
0080
0080
0000
0000
ENDCHAR
STARTCHAR 2d3a
ENCODING 11578
SWIDTH 823 0
DWIDTH 16 0
BBX 16 16 0 -2
BITMAP
0000
1048
1048
1048
1048
0888
0888
0888
0508
0508
0508
0208
0208
0208
0000
0000
ENDCHAR
STARTCHAR 2d3b
ENCODING 11579
SWIDTH 823 0
DWIDTH 16 0
BBX 16 16 0 -2
BITMAP
0000
20a4
20a4
20a4
20a4
1124
1124
1124
0a24
0a24
0a24
0424
0424
0424
0000
0000
ENDCHAR
STARTCHAR 2d3c
ENCODING 11580
SWIDTH 823 0
DWIDTH 16 0
BBX 16 16 0 -2
BITMAP
0000
4149
4149
4149
4149
2249
2249
2249
1449
1449
1449
0849
0849
0849
0000
0000
ENDCHAR
STARTCHAR 2d3d
ENCODING 11581
SWIDTH 823 0
DWIDTH 16 0
BBX 16 16 0 -2
BITMAP
0000
1104
1104
1088
1088
1050
1050
1020
1050
1088
1088
1104
1104
1202
0000
0000
ENDCHAR
STARTCHAR 2d3e
ENCODING 11582
SWIDTH 823 0
DWIDTH 16 0
BBX 16 16 0 -2
BITMAP
0000
0808
0410
0410
0220
0220
0140
0080
0140
0220
0220
0410
0808
1004
0000
0000
ENDCHAR
STARTCHAR 2d3f
ENCODING 11583
SWIDTH 823 0
DWIDTH 16 0
BBX 16 16 0 -2
BITMAP
0000
1044
1044
0884
0884
0504
0504
0204
0504
0884
0884
1044
1044
2024
0000
0000
ENDCHAR
STARTCHAR 2d40
ENCODING 11584
SWIDTH 823 0
DWIDTH 16 0
BBX 16 16 0 -2
BITMAP
0000
1800
0600
0100
1800
0600
0122
3822
0622
0122
0022
0002
0002
0004
0018
0000
ENDCHAR
STARTCHAR 2d41
ENCODING 11585
SWIDTH 823 0
DWIDTH 16 0
BBX 16 16 0 -2
BITMAP
0000
0800
0800
0f00
7800
0400
0780
3c00
027e
0242
0242
0042
0042
007e
0042
0000
ENDCHAR
STARTCHAR 2d42
ENCODING 11586
SWIDTH 823 0
DWIDTH 16 0
BBX 16 16 0 -2
BITMAP
1000
1020
1f10
7102
1204
1008
0f30
0000
0300
0e00
0200
3fc0
0200
0200
0400
0000
ENDCHAR
STARTCHAR 2d43
ENCODING 11587
SWIDTH 823 0
DWIDTH 16 0
BBX 16 16 0 -2
BITMAP
0000
0100
1100
0a00
047e
0a00
3100
0000
1010
1050
1850
1450
1052
1094
1118
0000
ENDCHAR
STARTCHAR 2d44
ENCODING 11588
SWIDTH 823 0
DWIDTH 16 0
BBX 16 16 0 -2
BITMAP
0280
115c
1e00
123e
2202
0202
0404
1818
0000
0800
0800
0a00
0900
1380
3c80
0000
ENDCHAR
STARTCHAR 2d45
ENCODING 11589
SWIDTH 823 0
DWIDTH 16 0
BBX 16 16 0 -2
BITMAP
0000
1000
1000
1000
1c00
1200
1000
1000
1040
0020
0002
0004
0008
0010
0060
0000
ENDCHAR
STARTCHAR 2d46
ENCODING 11590
SWIDTH 823 0
DWIDTH 16 0
BBX 16 16 0 -2
BITMAP
0000
7f00
0100
0a00
087e
0800
1000
1000
0000
0200
1200
1200
1240
2280
4300
0000
ENDCHAR
STARTCHAR 2d47
ENCODING 11591
SWIDTH 823 0
DWIDTH 16 0
BBX 16 16 0 -2
BITMAP
0010
101e
2812
4422
0302
0004
0018
2000
3c04
2414
6414
15d4
0815
1026
6024
0000
ENDCHAR
STARTCHAR 2d48
ENCODING 11592
SWIDTH 823 0
DWIDTH 16 0
BBX 16 16 0 -2
BITMAP
0000
2200
2240
22a4
2244
0208
0410
1820
1000
1050
1c50
1250
1052
1094
1118
0000
ENDCHAR
STARTCHAR 2d49
ENCODING 11593
SWIDTH 823 0
DWIDTH 16 0
BBX 16 16 0 -2
BITMAP
0000
3f00
2120
2152
0122
0204
0408
1010
1000
1000
1c00
1200
1000
1000
1000
0000
ENDCHAR
STARTCHAR 2d4a
ENCODING 11594
SWIDTH 823 0
DWIDTH 16 0
BBX 16 16 0 -2
BITMAP
1000
1000
7e7e
1242
1242
1242
2242
467e
0000
2200
2200
227e
0200
0400
1800
0000
ENDCHAR
STARTCHAR 2d4b
ENCODING 11595
SWIDTH 823 0
DWIDTH 16 0
BBX 16 16 0 -2
BITMAP
0100
1280
1100
1000
1c00
1200
1000
1000
1090
0090
0090
0092
0114
0218
0000
0000
ENDCHAR
STARTCHAR 2d4c
ENCODING 11596
SWIDTH 823 0
DWIDTH 16 0
BBX 16 16 0 -2
BITMAP
1000
1060
1f11
7202
1004
1008
0f30
1000
1000
1000
1c00
1200
1000
1000
1000
0000
ENDCHAR
STARTCHAR 2d4d
ENCODING 11597
SWIDTH 823 0
DWIDTH 16 0
BBX 16 16 0 -2
BITMAP
00c0
0120
1520
12c0
223f
2100
4100
0000
2004
2d04
7486
2415
2824
2044
1d84
0000
ENDCHAR
STARTCHAR 2d4e
ENCODING 11598
SWIDTH 823 0
DWIDTH 16 0
BBX 16 16 0 -2
BITMAP
3822
0622
1822
0422
0002
3804
0618
0400
0a04
2414
2814
29d4
4415
4426
4024
0000
ENDCHAR
STARTCHAR 2d4f
ENCODING 11599
SWIDTH 823 0
DWIDTH 16 0
BBX 16 16 0 -2
BITMAP
0180
0240
1a40
2580
423e
0100
0000
0080
1140
0880
2000
1100
0200
0400
1800
0000
ENDCHAR
STARTCHAR 2d50
ENCODING 11600
SWIDTH 823 0
DWIDTH 16 0
BBX 16 16 0 -2
BITMAP
0000
0000
0000
0000
0000
0000
5a5a
6d6d
4949
4949
4949
4949
4949
4949
0000
0000
ENDCHAR
STARTCHAR 2d51
ENCODING 11601
SWIDTH 823 0
DWIDTH 16 0
BBX 16 16 0 -2
BITMAP
0000
0000
0000
0000
0000
0000
1cb4
22da
4092
4092
4092
4092
2292
1c92
0000
0000
ENDCHAR
STARTCHAR 2d52
ENCODING 11602
SWIDTH 823 0
DWIDTH 16 0
BBX 16 16 0 -2
BITMAP
0000
4000
4000
4000
4000
4000
42b4
44da
4892
7092
4892
4492
4292
4292
0000
0000
ENDCHAR
STARTCHAR 2d53
ENCODING 11603
SWIDTH 823 0
DWIDTH 16 0
BBX 16 16 0 -2
BITMAP
0000
0000
0000
0000
0000
0000
5a1d
6d23
4941
4941
4941
4923
491d
4941
0022
001c
ENDCHAR
STARTCHAR 2d54
ENCODING 11604
SWIDTH 823 0
DWIDTH 16 0
BBX 16 16 0 -2
BITMAP
2000
2000
2000
2000
2000
2000
211d
2223
2441
3841
2441
2223
211d
2141
0022
001c
ENDCHAR
STARTCHAR 2d55
ENCODING 11605
SWIDTH 823 0
DWIDTH 16 0
BBX 16 16 0 -2
BITMAP
0000
0000
0000
0000
0000
0000
1e1e
2121
4040
4040
4040
4040
2121
1e1e
0000
0000
ENDCHAR
STARTCHAR 2d56
ENCODING 11606
SWIDTH 823 0
DWIDTH 16 0
BBX 16 16 0 -2
BITMAP
0006
0009
0002
0004
000f
0000
1738
18c4
1084
1084
1084
1084
1084
1084
0000
0000
ENDCHAR
STARTCHAR 2d57
ENCODING 11607
SWIDTH 823 0
DWIDTH 16 0
BBX 16 16 0 -2
BITMAP
0000
2092
2092
1112
1112
0a12
0a12
0412
0a12
1112
1112
2092
2092
4052
0000
0000
ENDCHAR
STARTCHAR 2d5f
ENCODING 11615
SWIDTH 823 0
DWIDTH 16 0
BBX 16 16 0 -2
BITMAP
000c
3f0a
0808
2aff
2a88
2a89
1a89
08e9
7fa9
08aa
08aa
08a4
0925
094a
0a32
0000
ENDCHAR
STARTCHAR 2d60
ENCODING 11616
SWIDTH 823 0
DWIDTH 16 0
BBX 16 16 0 -2
BITMAP
0000
0110
0088
0044
0000
0000
0000
0000
0000
0000
0000
0000
0000
0000
0000
0000
ENDCHAR
STARTCHAR 2d61
ENCODING 11617
SWIDTH 823 0
DWIDTH 16 0
BBX 16 16 0 -2
BITMAP
0000
0000
0000
0000
0000
0000
0000
0000
0000
0000
0000
0000
2200
1100
0880
0000
ENDCHAR
STARTCHAR 2d62
ENCODING 11618
SWIDTH 823 0
DWIDTH 16 0
BBX 16 16 0 -2
BITMAP
0000
4200
4200
6200
6200
5230
5248
4a84
4a84
4a84
4684
4684
424b
4233
0000
0000
ENDCHAR
STARTCHAR 2d63
ENCODING 11619
SWIDTH 823 0
DWIDTH 16 0
BBX 16 16 0 -2
BITMAP
0000
4444
4444
4848
4848
5050
5050
7070
5050
5050
4848
4848
4949
4545
0000
0000
ENDCHAR
STARTCHAR 2d64
ENCODING 11620
SWIDTH 823 0
DWIDTH 16 0
BBX 16 16 0 -2
BITMAP
0000
7de8
1108
1108
1108
1108
1108
11e8
1108
1108
1108
1108
1108
11ef
0000
0000
ENDCHAR
STARTCHAR 2d65
ENCODING 11621
SWIDTH 823 0
DWIDTH 16 0
BBX 16 16 0 -2
BITMAP
03e0
0c18
1084
2082
2082
4081
40f1
4081
4081
4081
2082
2ffa
1004
0c18
03e0
0000
ENDCHAR
STARTCHAR 2d66
ENCODING 11622
SWIDTH 823 0
DWIDTH 16 0
BBX 16 16 0 -2
BITMAP
03e0
0c18
1084
2082
2ffa
4889
4889
4889
4ff9
4081
2082
2082
1084
0c18
03e0
0000
ENDCHAR
STARTCHAR 2d67
ENCODING 11623
SWIDTH 823 0
DWIDTH 16 0
BBX 16 16 0 -2
BITMAP
03e0
0c18
1004
2ffa
2082
4081
40e1
4091
4081
4081
2082
2082
1004
0c18
03e0
0000
ENDCHAR
STARTCHAR 2d68
ENCODING 11624
SWIDTH 823 0
DWIDTH 16 0
BBX 16 16 0 -2
BITMAP
03e0
0c18
1084
2082
2ffa
4101
4201
45f1
4841
4041
2042
23fa
1004
0c18
03e0
0000
ENDCHAR
STARTCHAR 2d69
ENCODING 11625
SWIDTH 823 0
DWIDTH 16 0
BBX 16 16 0 -2
BITMAP
03e0
0c18
1104
2102
2ffa
4201
4201
47f1
4a11
4211
2212
23f2
1004
0c18
03e0
0000
ENDCHAR
STARTCHAR 2d6a
ENCODING 11626
SWIDTH 823 0
DWIDTH 16 0
BBX 16 16 0 -2
BITMAP
1424
24a2
24a2
5ef9
4521
4521
4c21
4ffd
4c21
5471
5471
44a9
2526
2622
1424
0000
ENDCHAR
STARTCHAR 2d6b
ENCODING 11627
SWIDTH 823 0
DWIDTH 16 0
BBX 16 16 0 -2
BITMAP
1084
2082
27fa
4101
43f9
4209
4609
4bf9
5209
4209
43f9
4209
220a
223a
1004
0000
ENDCHAR
STARTCHAR 2d6c
ENCODING 11628
SWIDTH 823 0
DWIDTH 16 0
BBX 16 16 0 -2
BITMAP
1244
2252
224a
4449
4441
4c7d
55c1
4441
4441
4421
4421
4421
242a
2412
1414
0000
ENDCHAR
STARTCHAR 2d6d
ENCODING 11629
SWIDTH 823 0
DWIDTH 16 0
BBX 16 16 0 -2
BITMAP
0048
0728
7508
550a
5592
5757
7539
5501
5500
573f
5531
7551
0951
0951
139f
0000
ENDCHAR
STARTCHAR 2d6e
ENCODING 11630
SWIDTH 823 0
DWIDTH 16 0
BBX 16 16 0 -2
BITMAP
0800
08ff
0808
0808
7f08
0848
0848
084e
0848
1448
1448
1448
2248
2248
43ff
0000
ENDCHAR
STARTCHAR 2d6f
ENCODING 11631
SWIDTH 823 0
DWIDTH 16 0
BBX 16 16 0 -2
BITMAP
0010
0fa7
72e5
52a5
52a5
54fd
54a5
78b5
51ad
5065
57a5
54a5
74a5
04a7
07a0
0000
ENDCHAR
STARTCHAR 2d73
ENCODING 11635
SWIDTH 823 0
DWIDTH 16 0
BBX 16 16 0 -2
BITMAP
0180
0240
0200
0200
03c0
0520
0520
04a0
04a0
03c0
0040
0040
0040
0240
0180
0000
ENDCHAR
STARTCHAR 2d78
ENCODING 11640
SWIDTH 823 0
DWIDTH 16 0
BBX 16 16 0 -2
BITMAP
0000
2000
2000
2000
2000
2000
2000
2000
2000
2000
2000
2000
2000
3ffc
0000
0000
ENDCHAR
STARTCHAR 2d79
ENCODING 11641
SWIDTH 823 0
DWIDTH 16 0
BBX 16 16 0 -2
BITMAP
0000
0004
000c
0014
0024
0044
0084
0104
0204
0404
0804
1004
2004
7ffc
0000
0000
ENDCHAR
STARTCHAR 2d7d
ENCODING 11645
SWIDTH 823 0
DWIDTH 16 0
BBX 16 16 0 -2
BITMAP
0000
0080
01c0
03e0
03e0
09c8
1c9c
3e3e
3e3e
1c9c
09c8
03e0
03e0
01c0
0080
0000
ENDCHAR
STARTCHAR 2d7e
ENCODING 11646
SWIDTH 823 0
DWIDTH 16 0
BBX 16 16 0 -2
BITMAP
0000
0000
0000
1ffe
6201
45fe
4aa0
51c0
4040
4380
6080
1f00
0000
0000
0000
0000
ENDCHAR
STARTCHAR 2e21
ENCODING 11809
SWIDTH 823 0
DWIDTH 16 0
BBX 16 16 0 -2
BITMAP
0800
08fc
0884
10fc
1084
30fc
5084
1084
10fc
1084
1084
13ff
1040
1084
1303
0000
ENDCHAR
STARTCHAR 2e22
ENCODING 11810
SWIDTH 823 0
DWIDTH 16 0
BBX 16 16 0 -2
BITMAP
0080
0088
0084
7fff
0080
0880
0880
0480
0480
0300
0100
0280
0460
1818
6007
0000
ENDCHAR
STARTCHAR 2e23
ENCODING 11811
SWIDTH 823 0
DWIDTH 16 0
BBX 16 16 0 -2
BITMAP
0400
043e
7fc0
0400
0402
03fe
0000
1020
11a3
162c
78f0
1020
10a1
10a1
0f9f
0000
ENDCHAR
STARTCHAR 2e24
ENCODING 11812
SWIDTH 823 0
DWIDTH 16 0
BBX 16 16 0 -2
BITMAP
0000
0100
0100
0100
0100
0100
0100
0100
0100
0100
0100
0100
0100
0100
0100
0000
ENDCHAR
STARTCHAR 2e25
ENCODING 11813
SWIDTH 823 0
DWIDTH 16 0
BBX 16 16 0 -2
BITMAP
0100
010c
01f0
1f00
0100
0118
01e0
3f00
0100
010e
01f0
7f00
0100
0100
0100
0000
ENDCHAR
STARTCHAR 2e26
ENCODING 11814
SWIDTH 823 0
DWIDTH 16 0
BBX 16 16 0 -2
BITMAP
0080
0080
3ffe
0080
0080
0080
1ffc
0080
0080
0080
7fff
0080
0080
0080
0080
0000
ENDCHAR
STARTCHAR 2e27
ENCODING 11815
SWIDTH 823 0
DWIDTH 16 0
BBX 16 16 0 -2
BITMAP
0000
1ffc
0000
0000
0000
0000
7fff
0080
0080
0080
0080
0080
0080
0080
0380
0000
ENDCHAR
STARTCHAR 2e28
ENCODING 11816
SWIDTH 823 0
DWIDTH 16 0
BBX 16 16 0 -2
BITMAP
0880
0880
09ff
1100
1200
34fc
5018
1020
1040
1080
1100
1200
1201
1101
10ff
0000
ENDCHAR
STARTCHAR 2e29
ENCODING 11817
SWIDTH 823 0
DWIDTH 16 0
BBX 16 16 0 -2
BITMAP
0838
0888
0884
1104
1202
3401
51fc
1044
1044
1044
1084
1084
1108
1208
1470
0000
ENDCHAR
STARTCHAR 2e2a
ENCODING 11818
SWIDTH 823 0
DWIDTH 16 0
BBX 16 16 0 -2
BITMAP
0820
0820
0820
13ff
1040
3040
5040
107e
1082
1082
1082
1102
1104
1204
1438
0000
ENDCHAR
STARTCHAR 2e2b
ENCODING 11819
SWIDTH 823 0
DWIDTH 16 0
BBX 16 16 0 -2
BITMAP
0800
09fc
0804
1088
1050
3020
53ff
1021
1022
1024
1020
1020
1020
1020
10e0
0000
ENDCHAR
STARTCHAR 2e2c
ENCODING 11820
SWIDTH 823 0
DWIDTH 16 0
BBX 16 16 0 -2
BITMAP
0800
0bfc
0884
1088
1088
30fe
5182
1142
1144
1224
1228
1410
1828
10c4
1303
0000
ENDCHAR
STARTCHAR 2e2d
ENCODING 11821
SWIDTH 823 0
DWIDTH 16 0
BBX 16 16 0 -2
BITMAP
0880
0880
0880
11ff
1222
3424
5020
1124
1124
1222
1222
1421
1020
1020
10e0
0000
ENDCHAR
STARTCHAR 2e2e
ENCODING 11822
SWIDTH 823 0
DWIDTH 16 0
BBX 16 16 0 -2
BITMAP
0840
0840
0bff
1080
10a0
3120
53fe
1622
1a22
1222
1222
1222
1226
1020
1020
0000
ENDCHAR
STARTCHAR 2e2f
ENCODING 11823
SWIDTH 823 0
DWIDTH 16 0
BBX 16 16 0 -2
BITMAP
0820
0820
0820
13fe
1020
3020
5020
17ff
1040
1040
1048
1084
1086
113a
17c1
0000
ENDCHAR
STARTCHAR 2e30
ENCODING 11824
SWIDTH 823 0
DWIDTH 16 0
BBX 16 16 0 -2
BITMAP
0880
0840
0824
1084
1084
3088
5288
1294
1292
14a1
14a0
10c0
1082
1142
163e
0000
ENDCHAR
STARTCHAR 2e31
ENCODING 11825
SWIDTH 823 0
DWIDTH 16 0
BBX 16 16 0 -2
BITMAP
0880
08f8
0908
1210
1520
30e0
5090
130c
1c43
1030
1000
1000
1018
1060
1180
0000
ENDCHAR
STARTCHAR 2e32
ENCODING 11826
SWIDTH 823 0
DWIDTH 16 0
BBX 16 16 0 -2
BITMAP
0800
0bff
0a01
1201
1201
3279
5249
1249
1249
1249
1279
1201
1201
1201
13ff
0000
ENDCHAR
STARTCHAR 2e33
ENCODING 11827
SWIDTH 823 0
DWIDTH 16 0
BBX 16 16 0 -2
BITMAP
0844
0844
0bfc
1048
1048
3050
57ff
10c0
1180
168c
10f0
1080
1082
1082
107e
0000
ENDCHAR
STARTCHAR 2e34
ENCODING 11828
SWIDTH 823 0
DWIDTH 16 0
BBX 16 16 0 -2
BITMAP
0878
0808
0884
1104
1202
35fd
5104
1104
11fc
1104
1104
11fc
1104
1104
110c
0000
ENDCHAR
STARTCHAR 2e35
ENCODING 11829
SWIDTH 823 0
DWIDTH 16 0
BBX 16 16 0 -2
BITMAP
0820
0a22
0a22
1124
1124
3020
5020
17ff
1090
1090
1090
1110
1111
1211
140f
0000
ENDCHAR
ENDFONT
